<svg width="139" height="139" viewBox="0 0 139 139" fill="none" xmlns="http://www.w3.org/2000/svg">
<circle cx="69.5" cy="69.5" r="68.5" fill="#A1CFBF" stroke="#047267" stroke-width="2"/>
<mask id="mask0_44_22059" style="mask-type:alpha" maskUnits="userSpaceOnUse" x="0" y="0" width="139" height="139">
<circle cx="69.5" cy="69.5" r="68.5" fill="#A1CFBF" stroke="#047267" stroke-width="2"/>
</mask>
<g mask="url(#mask0_44_22059)">
<g opacity="0.1">
<path d="M130.75 83.3814H135.989V135H-77V64.3399H-63.8278V64.132H-63.345V59.4437L-62.4173 58.73H-46.1355L-45.2031 59.4437V75.7629L-43.6837 75.0068L-37.5875 72.0293L-35.912 72.8611V72.2325L-35.1689 72.6342V73.2203L-32.2959 74.6098L-29.4182 73.2203V72.6342L-28.6751 72.2325V72.8658L-26.9948 72.0293L-20.8797 75.0068L-19.3793 75.7866V67.4781H-19.8668V58.4748H-19.3793V50.6815L-18.4516 49.9631H-2.16974L-1.22312 50.6815V55.365H-0.735611V55.5777H14.8457V69.9923H15.3948V71.4433H21.0035V79.2224L33.5415 79.161V30H51.4941V76.486H54.457V72.3034L59.1049 69.3638H61.3105V67.7238H62.7257V66.254H64.0321V53.4557H84.1335V89.5159H91.1243V78.178L90.7835 77.9369C90.9823 77.7952 91.1858 77.6675 91.3894 77.5494C91.6402 77.3887 91.8438 77.2611 92.0662 77.1477C93.6471 76.3017 95.5356 75.7629 97.5519 75.5786C97.5519 75.5833 97.6607 75.5786 97.727 75.5739C97.7743 75.5692 97.8311 75.5644 97.8879 75.5644H97.9258L97.9636 75.5597C98.3044 75.5219 98.6783 75.5219 99.0665 75.5219C102.28 75.5219 105.21 76.3584 107.321 77.8377H107.136L107.117 78.5419V89.4876L110.521 91.5198L111.188 73.6078H114.236V69.2362H115.646V68.3524H116.953V67.9743H128.009V68.3524H129.339V69.2362H130.75V83.3814Z" fill="url(#paint0_linear_44_22059)"/>
<g opacity="0.5">
<path d="M12.0815 58.2332H9.80957V60.505H12.0815V58.2332Z" fill="white"/>
<path d="M10.9418 69.2659H8.66992V71.5378H10.9418V69.2659Z" fill="white"/>
<path d="M12.0815 84.5869H9.80957V86.8588H12.0815V84.5869Z" fill="white"/>
<path d="M7.93107 58.2332H5.65918V60.505H7.93107V58.2332Z" fill="white"/>
<path d="M3.78068 63.624H1.50879V65.8959H3.78068V63.624Z" fill="white"/>
<path d="M74.4408 86.5417H72.1689V88.8136H74.4408V86.5417Z" fill="white"/>
<path d="M99.516 95.7808H97.2441V98.0526H99.516V95.7808Z" fill="white"/>
<path d="M126.282 95.7808H124.01V98.0526H126.282V95.7808Z" fill="white"/>
<path d="M134.239 88.8752H131.967V91.1471H134.239V88.8752Z" fill="white"/>
<path d="M103.974 86.8586H101.702V89.1305H103.974V86.8586Z" fill="white"/>
<path d="M115.215 86.8586H112.943V89.1305H115.215V86.8586Z" fill="white"/>
<path d="M68.9594 86.5417H66.6875V88.8136H68.9594V86.5417Z" fill="white"/>
<path d="M36.3385 32.3997H34.9375V34.7331H36.3385V32.3997Z" fill="white"/>
<path d="M42.8707 32.3997H41.4697V34.7331H42.8707V32.3997Z" fill="white"/>
<path d="M39.6051 37.0051H38.2041V39.3385H39.6051V37.0051Z" fill="white"/>
<path d="M36.3385 41.6104H34.9375V43.9438H36.3385V41.6104Z" fill="white"/>
<path d="M42.8707 41.6104H41.4697V43.9438H42.8707V41.6104Z" fill="white"/>
<path d="M49.401 41.6104H48V43.9438H49.401V41.6104Z" fill="white"/>
<path d="M46.1363 46.2202H44.7354V48.5536H46.1363V46.2202Z" fill="white"/>
<path d="M49.401 46.2202H48V48.5536H49.401V46.2202Z" fill="white"/>
<path d="M36.3385 50.8257H34.9375V53.1591H36.3385V50.8257Z" fill="white"/>
<path d="M67.8287 55.4312H66.4277V57.7646H67.8287V55.4312Z" fill="white"/>
<path d="M71.2692 60.5049H69.8682V62.8383H71.2692V60.5049Z" fill="white"/>
<path d="M81.5865 60.5049H80.1855V62.8383H81.5865V60.5049Z" fill="white"/>
<path d="M74.7106 55.4312H73.3096V57.7646H74.7106V55.4312Z" fill="white"/>
<path d="M117.801 70.4158H116.4V72.7492H117.801V70.4158Z" fill="white"/>
<path d="M121.473 70.3733H120.072V72.7067H121.473V70.3733Z" fill="white"/>
<path d="M121.473 74.439H120.072V76.7724H121.473V74.439Z" fill="white"/>
<path d="M121.473 85.6943H120.072V88.0278H121.473V85.6943Z" fill="white"/>
<path d="M121.473 95.1133H120.072V97.4467H121.473V95.1133Z" fill="white"/>
<path d="M128.819 79.7024H127.418V82.0358H128.819V79.7024Z" fill="white"/>
<path d="M125.147 74.6616H123.746V76.995H125.147V74.6616Z" fill="white"/>
<path d="M80.8912 93.9443H79.4902V96.2777H80.8912V93.9443Z" fill="white"/>
<path d="M95.3307 86.8586H93.9297V89.1921H95.3307V86.8586Z" fill="white"/>
<path d="M95.3307 79.7024H93.9297V82.0358H95.3307V79.7024Z" fill="white"/>
<path d="M113.644 79.5132H112.243V81.8466H113.644V79.5132Z" fill="white"/>
<path d="M81.5865 55.4312H80.1855V57.7646H81.5865V55.4312Z" fill="white"/>
<path d="M78.151 65.2852H76.75V67.6186H78.151V65.2852Z" fill="white"/>
<path d="M81.5865 73.0144H80.1855V75.3478H81.5865V73.0144Z" fill="white"/>
<path d="M57.9742 73.2747H56.5732V75.6081H57.9742V73.2747Z" fill="white"/>
<path d="M62.8717 70.4158H61.4707V72.7492H62.8717V70.4158Z" fill="white"/>
<path d="M70.569 77.1797H69.168V79.5131H70.569V77.1797Z" fill="white"/>
<path d="M39.6051 50.8257H38.2041V53.1591H39.6051V50.8257Z" fill="white"/>
<path d="M42.8707 50.8257H41.4697V53.1591H42.8707V50.8257Z" fill="white"/>
<path d="M46.1363 55.4312H44.7354V57.7646H46.1363V55.4312Z" fill="white"/>
<path d="M36.3385 60.0361H34.9375V62.3695H36.3385V60.0361Z" fill="white"/>
<path d="M46.1363 64.6465H44.7354V66.9799H46.1363V64.6465Z" fill="white"/>
<path d="M49.401 64.6465H48V66.9799H49.401V64.6465Z" fill="white"/>
<path d="M39.6051 69.2517H38.2041V71.5851H39.6051V69.2517Z" fill="white"/>
<path d="M46.1363 69.2517H44.7354V71.5851H46.1363V69.2517Z" fill="white"/>
<path d="M36.3385 73.8569H34.9375V76.1903H36.3385V73.8569Z" fill="white"/>
<path d="M49.401 73.8569H48V76.1903H49.401V73.8569Z" fill="white"/>
<path d="M36.3385 78.4622H34.9375V80.7956H36.3385V78.4622Z" fill="white"/>
<path d="M49.401 78.4622H48V80.7956H49.401V78.4622Z" fill="white"/>
<path d="M42.8707 83.0723H41.4697V85.4057H42.8707V83.0723Z" fill="white"/>
<path d="M49.401 83.0723H48V85.4057H49.401V83.0723Z" fill="white"/>
<path d="M36.3385 87.6775H34.9375V90.0109H36.3385V87.6775Z" fill="white"/>
<path d="M24.4108 82.2251H23.0098V84.5585H24.4108V82.2251Z" fill="white"/>
<path d="M19.1393 74.1504H17.7383V76.4838H19.1393V74.1504Z" fill="white"/>
</g>
</g>
<path opacity="0.1" d="M82.4072 118.738C82.4072 120.467 80.9764 121.87 79.2116 121.87H28.2307C26.4659 121.87 25.0352 120.467 25.0352 118.738C25.0352 117.008 26.4659 115.605 28.2307 115.605H79.2116C80.9764 115.605 82.4072 117.008 82.4072 118.738Z" fill="black"/>
<path d="M24.4656 116.607C24.9277 116.607 25.3023 113.755 25.3023 110.237C25.3023 106.719 24.9277 103.867 24.4656 103.867C24.0035 103.867 23.6289 106.719 23.6289 110.237C23.6289 113.755 24.0035 116.607 24.4656 116.607Z" fill="#C6C6C6"/>
<path d="M32.9943 100.654H25.5908C24.9685 100.654 24.4658 101.157 24.4658 101.779V119.096C24.4658 119.719 24.9685 120.221 25.5908 120.221H32.9943C33.6165 120.221 34.1192 119.719 34.1192 119.096V101.779C34.1192 101.157 33.6165 100.654 32.9943 100.654Z" fill="#272F30"/>
<path d="M77.4851 103.867C77.9456 103.867 78.3218 106.718 78.3218 110.237C78.3218 113.756 77.9456 116.607 77.4851 116.607C77.0246 116.607 76.6484 113.756 76.6484 110.237C76.6484 106.718 77.0211 103.867 77.4851 103.867Z" fill="#C6C6C6"/>
<path d="M68.9531 100.654H76.3566C76.9788 100.654 77.4815 101.157 77.4815 101.779V119.096C77.4815 119.719 76.9788 120.221 76.3566 120.221H68.9531C68.3308 120.221 67.8281 119.719 67.8281 119.096V101.779C67.8281 101.157 68.3308 100.654 68.9531 100.654Z" fill="#272F30"/>
<path d="M78.3222 59.2283H23.6289V90.2591H78.3222V59.2283Z" fill="#245F69"/>
<path d="M82.3828 64.2344H78.0693V111.197H82.3828V64.2344Z" fill="#5E4A4C"/>
<path d="M81.8238 64.7935H78.0693V110.638H81.8238V64.7935Z" fill="#04A494"/>
<path d="M79.6583 65.9114H78.0693V88.5333H79.6583C80.2348 88.5333 80.7024 88.0622 80.7024 87.4892V66.9625C80.7059 66.3789 80.2348 65.9114 79.6583 65.9114Z" fill="#EDDFC8"/>
<path d="M79.6587 65.3523H78.0732V65.9113H79.6587C80.2388 65.9113 80.7063 66.3788 80.7063 66.9589V87.482C80.7063 88.0621 80.2352 88.5296 79.6587 88.5296H78.0732V89.0886H79.6587C80.5446 89.0886 81.2653 88.3679 81.2653 87.482V66.9589C81.2653 66.073 80.5446 65.3523 79.6587 65.3523Z" fill="#5E4A4C"/>
<path d="M81.8238 90.5159H78.0693V95.8277H81.8238V90.5159Z" fill="#245F69"/>
<path d="M81.8238 97.0476H78.0693V98.9038H81.8238V97.0476Z" fill="#245F69"/>
<path d="M79.6548 66.4702H78.0693V78.0852L80.147 71.9086V66.9624C80.147 66.6917 79.929 66.4702 79.6548 66.4702Z" fill="white"/>
<path d="M78.3222 90.259H23.6289V106.416H78.3222V90.259Z" fill="#245F69"/>
<path d="M75.0772 113.651H26.8734C24.8907 113.651 23.2842 111.756 23.2842 109.422V105.161H78.6665V109.422C78.6665 111.756 77.0599 113.651 75.0772 113.651Z" fill="#269999"/>
<path d="M76.3781 52.8303H25.5694C24.4972 52.8303 23.6289 53.6986 23.6289 54.7708V59.2249H78.3222V54.7744C78.3222 53.6986 77.4503 52.8303 76.3781 52.8303Z" fill="#04A494"/>
<path d="M73.162 52.8302H28.79V48.9281C28.79 48.4148 29.2049 48 29.7181 48H72.2339C72.7471 48 73.162 48.4148 73.162 48.9281V52.8302Z" fill="#269999"/>
<path opacity="0.75" d="M78.3261 62.8352H23.6328V90.0482H78.3261V62.8352Z" fill="#EDDFC8"/>
<path d="M23.6289 90.6319H78.3222V90.0448H23.6289V90.6319ZM23.6289 62.2517V62.8388H78.3222V62.2517H23.6289Z" fill="#5E4A4C"/>
<path d="M34.5516 104.701H28.3046C27.6226 104.701 27.0742 104.149 27.0742 103.467V103.442C27.0742 102.76 27.6261 102.212 28.3046 102.212H34.5516C35.2336 102.212 35.782 102.764 35.782 103.442V103.467C35.782 104.152 35.2336 104.701 34.5516 104.701Z" fill="#EDDFC8"/>
<path d="M73.6469 104.701H67.3999C66.7179 104.701 66.166 104.149 66.166 103.467V103.442C66.166 102.76 66.7179 102.212 67.3999 102.212H73.6469C74.3289 102.212 74.8808 102.764 74.8808 103.442V103.467C74.8773 104.152 74.3254 104.701 73.6469 104.701Z" fill="#EDDFC8"/>
<path d="M41.5048 103.547C41.5048 103.899 41.2201 104.18 40.872 104.18C40.5205 104.18 40.2393 103.895 40.2393 103.547V94.2456C40.2393 93.894 40.524 93.6128 40.872 93.6128C41.2236 93.6128 41.5048 93.8975 41.5048 94.2456V103.547Z" fill="#362A2B"/>
<path d="M43.7509 103.547C43.7509 103.899 43.4662 104.18 43.1181 104.18C42.7666 104.18 42.4854 103.895 42.4854 103.547V94.2456C42.4854 93.894 42.7701 93.6128 43.1181 93.6128C43.4697 93.6128 43.7509 93.8975 43.7509 94.2456V103.547Z" fill="#362A2B"/>
<path d="M45.9976 103.547C45.9976 103.899 45.7128 104.18 45.3648 104.18C45.0133 104.18 44.7285 103.895 44.7285 103.547V94.2456C44.7285 93.894 45.0133 93.6128 45.3648 93.6128C45.7164 93.6128 45.9976 93.8975 45.9976 94.2456V103.547Z" fill="#362A2B"/>
<path d="M48.2408 103.547C48.2408 103.899 47.956 104.18 47.608 104.18C47.2564 104.18 46.9717 103.895 46.9717 103.547V94.2456C46.9717 93.894 47.2564 93.6128 47.608 93.6128C47.9595 93.6128 48.2408 93.8975 48.2408 94.2456V103.547Z" fill="#362A2B"/>
<path d="M50.4863 103.547C50.4863 103.899 50.2015 104.18 49.8535 104.18C49.5019 104.18 49.2207 103.895 49.2207 103.547V94.2456C49.2207 93.894 49.5055 93.6128 49.8535 93.6128C50.205 93.6128 50.4863 93.8975 50.4863 94.2456V103.547Z" fill="#362A2B"/>
<path d="M52.7329 103.547C52.7329 103.899 52.4482 104.18 52.0966 104.18C51.7451 104.18 51.4639 103.895 51.4639 103.547V94.2456C51.4639 93.894 51.7486 93.6128 52.0966 93.6128C52.4482 93.6128 52.7329 93.8975 52.7329 94.2456V103.547Z" fill="#362A2B"/>
<path d="M54.9761 103.547C54.9761 103.899 54.6914 104.18 54.3433 104.18C53.9918 104.18 53.707 103.895 53.707 103.547V94.2456C53.707 93.894 53.9918 93.6128 54.3433 93.6128C54.6949 93.6128 54.9761 93.8975 54.9761 94.2456V103.547Z" fill="#362A2B"/>
<path d="M57.2226 103.547C57.2226 103.899 56.9378 104.18 56.5898 104.18C56.2383 104.18 55.957 103.895 55.957 103.547V94.2456C55.957 93.894 56.2418 93.6128 56.5898 93.6128C56.9414 93.6128 57.2226 93.8975 57.2226 94.2456V103.547Z" fill="#362A2B"/>
<path d="M59.4687 103.547C59.4687 103.899 59.1839 104.18 58.8359 104.18C58.4844 104.18 58.2031 103.895 58.2031 103.547V94.2456C58.2031 93.894 58.4879 93.6128 58.8359 93.6128C59.1874 93.6128 59.4687 93.8975 59.4687 94.2456V103.547Z" fill="#362A2B"/>
<path d="M61.7115 103.547C61.7115 103.899 61.4267 104.18 61.0752 104.18C60.7236 104.18 60.4424 103.895 60.4424 103.547V94.2456C60.4424 93.894 60.7271 93.6128 61.0752 93.6128C61.4267 93.6128 61.7115 93.8975 61.7115 94.2456V103.547Z" fill="#362A2B"/>
<path d="M21.0761 67.1663H19.3184V64.477C19.3184 58.1879 27.2457 59.5061 27.2457 59.5061V62.2552H23.2978C22.0745 62.2552 21.0761 63.2501 21.0761 64.477V67.1663Z" fill="#04A494"/>
<path d="M21.2381 74.4328H19.2308C18.7949 74.4328 18.4398 74.0777 18.4398 73.6418C17.9055 70.8435 17.8035 68.2772 18.4398 66.1047C18.4398 65.6688 18.7949 65.3137 19.2308 65.3137H21.2381C21.674 65.3137 22.0291 65.6688 22.0291 66.1047C22.6197 68.2561 22.4158 70.8927 22.0291 73.6418C22.0291 74.0777 21.674 74.4328 21.2381 74.4328Z" fill="#229192"/>
<path d="M80.8708 67.1663H82.6285V64.477C82.6285 58.1879 74.7012 59.5061 74.7012 59.5061V62.2552H78.649C79.8759 62.2552 80.8708 63.2501 80.8708 64.477V67.1663Z" fill="#04A494"/>
<path d="M80.7121 74.4328H82.7195C83.1554 74.4328 83.5104 74.0777 83.5104 73.6418C84.0448 70.8435 84.1467 68.2772 83.5104 66.1047C83.5104 65.6688 83.1554 65.3137 82.7195 65.3137H80.7121C80.2762 65.3137 79.9212 65.6688 79.9212 66.1047C79.3306 68.2561 79.5345 70.8927 79.9212 73.6418C79.9212 74.0777 80.2762 74.4328 80.7121 74.4328Z" fill="#229192"/>
<path d="M58.4953 112.505H43.4562C43.0941 112.505 42.7988 112.21 42.7988 111.848V108.378C42.7988 108.016 43.0941 107.72 43.4562 107.72H58.4953C58.8574 107.72 59.1527 108.016 59.1527 108.378V111.848C59.1492 112.21 58.8574 112.505 58.4953 112.505Z" fill="#EDDFC8"/>
<path d="M43.4561 111.918C43.4174 111.918 43.3857 111.886 43.3857 111.847V108.378C43.3857 108.339 43.4174 108.307 43.4561 108.307H58.4951C58.5338 108.307 58.5654 108.339 58.5654 108.378V111.847C58.5654 111.886 58.5338 111.918 58.4951 111.918H43.4561Z" fill="white"/>
<path d="M45.1818 109.053C45.0131 109.053 44.9076 109.13 44.9076 109.338V109.647H44.4049V109.369C44.4049 108.909 44.6756 108.645 45.1959 108.645C45.7161 108.645 45.9868 108.909 45.9868 109.369C45.9868 110.273 44.9287 110.61 44.9287 111.085C44.9287 111.106 44.9287 111.127 44.9322 111.148H45.9376V111.559H44.4014V111.204C44.4014 110.357 45.4525 110.216 45.4525 109.387C45.456 109.123 45.3505 109.053 45.1818 109.053Z" fill="#362A2B"/>
<path d="M47.3441 109.38C47.3441 109.119 47.2386 109.049 47.0699 109.049C46.9011 109.049 46.7957 109.126 46.7957 109.334V109.52H46.293V109.366C46.293 108.905 46.5637 108.641 47.0839 108.641C47.6042 108.641 47.8749 108.905 47.8749 109.366V109.439C47.8749 109.749 47.7589 109.942 47.5023 110.03C47.7695 110.128 47.8749 110.343 47.8749 110.635V110.86C47.8749 111.32 47.6042 111.584 47.0839 111.584C46.5637 111.584 46.293 111.32 46.293 110.86V110.621H46.7957V110.888C46.7957 111.092 46.9011 111.172 47.0699 111.172C47.2386 111.172 47.3441 111.102 47.3441 110.849V110.624C47.3441 110.357 47.2386 110.258 46.9961 110.258H46.8168V109.847H47.0242C47.221 109.847 47.3441 109.773 47.3441 109.541V109.38Z" fill="#362A2B"/>
<path d="M48.208 109.907H49.1748V110.318H48.208V109.907Z" fill="#362A2B"/>
<path d="M50.0154 110.624V110.891C50.0154 111.095 50.1209 111.172 50.2896 111.172C50.4583 111.172 50.5638 111.099 50.5638 110.891V110.258C50.5638 110.051 50.4583 109.974 50.2896 109.974C50.1209 109.974 50.0154 110.051 50.0154 110.258V110.346H49.5127L49.6076 108.677H51.0068V109.088H50.0857L50.0435 109.773C50.142 109.636 50.2966 109.562 50.5076 109.562C50.8978 109.562 51.0982 109.798 51.0982 110.22V110.86C51.0982 111.32 50.8275 111.584 50.3072 111.584C49.7869 111.584 49.5162 111.32 49.5162 110.86V110.621H50.0154V110.624Z" fill="#362A2B"/>
<path d="M51.418 109.39C51.418 108.905 51.6781 108.641 52.23 108.641C52.7503 108.641 53.021 108.905 53.021 109.366V109.439H52.5183V109.337C52.5183 109.13 52.4128 109.053 52.2441 109.053C52.0578 109.053 51.9488 109.13 51.9488 109.408V109.935C52.0402 109.77 52.2054 109.678 52.441 109.678C52.8312 109.678 53.0316 109.914 53.0316 110.336V110.863C53.0316 111.324 52.7468 111.587 52.2265 111.587C51.7062 111.587 51.4215 111.324 51.4215 110.863V109.39H51.418ZM51.9488 110.371V110.888C51.9488 111.092 52.0543 111.169 52.223 111.169C52.3917 111.169 52.4972 111.095 52.4972 110.888V110.371C52.4972 110.167 52.3917 110.086 52.223 110.086C52.0543 110.086 51.9488 110.167 51.9488 110.371Z" fill="#362A2B"/>
<path d="M55.2251 111.552C55.197 111.478 55.1759 111.433 55.1759 111.197V110.744C55.1759 110.476 55.0705 110.378 54.8279 110.378H54.6451V111.549H54.1143V108.669H54.9158C55.4677 108.669 55.7032 108.887 55.7032 109.33V109.555C55.7032 109.851 55.5907 110.044 55.3552 110.139C55.6224 110.234 55.7068 110.452 55.7068 110.751V111.194C55.7068 111.334 55.7103 111.436 55.7665 111.542H55.2251V111.552ZM54.6451 109.084V109.967H54.8525C55.0494 109.967 55.1724 109.893 55.1724 109.661V109.376C55.1724 109.172 55.0916 109.081 54.9017 109.081H54.6451V109.084Z" fill="#362A2B"/>
<path d="M55.9033 108.673H57.545V109.084H56.9896V111.552H56.4588V109.084H55.9033V108.673Z" fill="#362A2B"/>
<path d="M45.1818 109.053C45.0131 109.053 44.9076 109.13 44.9076 109.338V109.647H44.4049V109.369C44.4049 108.909 44.6756 108.645 45.1959 108.645C45.7161 108.645 45.9868 108.909 45.9868 109.369C45.9868 110.273 44.9287 110.61 44.9287 111.085C44.9287 111.106 44.9287 111.127 44.9322 111.148H45.9376V111.559H44.4014V111.204C44.4014 110.357 45.4525 110.216 45.4525 109.387C45.456 109.123 45.3505 109.053 45.1818 109.053Z" fill="#362A2B"/>
<path d="M47.3441 109.38C47.3441 109.119 47.2386 109.049 47.0699 109.049C46.9011 109.049 46.7957 109.126 46.7957 109.334V109.52H46.293V109.366C46.293 108.905 46.5637 108.641 47.0839 108.641C47.6042 108.641 47.8749 108.905 47.8749 109.366V109.439C47.8749 109.749 47.7589 109.942 47.5023 110.03C47.7695 110.128 47.8749 110.343 47.8749 110.635V110.86C47.8749 111.32 47.6042 111.584 47.0839 111.584C46.5637 111.584 46.293 111.32 46.293 110.86V110.621H46.7957V110.888C46.7957 111.092 46.9011 111.172 47.0699 111.172C47.2386 111.172 47.3441 111.102 47.3441 110.849V110.624C47.3441 110.357 47.2386 110.258 46.9961 110.258H46.8168V109.847H47.0242C47.221 109.847 47.3441 109.773 47.3441 109.541V109.38Z" fill="#362A2B"/>
<path d="M48.208 109.907H49.1748V110.318H48.208V109.907Z" fill="#362A2B"/>
<path d="M50.0154 110.624V110.891C50.0154 111.095 50.1209 111.172 50.2896 111.172C50.4583 111.172 50.5638 111.099 50.5638 110.891V110.258C50.5638 110.051 50.4583 109.974 50.2896 109.974C50.1209 109.974 50.0154 110.051 50.0154 110.258V110.346H49.5127L49.6076 108.677H51.0068V109.088H50.0857L50.0435 109.773C50.142 109.636 50.2966 109.562 50.5076 109.562C50.8978 109.562 51.0982 109.798 51.0982 110.22V110.86C51.0982 111.32 50.8275 111.584 50.3072 111.584C49.7869 111.584 49.5162 111.32 49.5162 110.86V110.621H50.0154V110.624Z" fill="#362A2B"/>
<path d="M51.418 109.39C51.418 108.905 51.6781 108.641 52.23 108.641C52.7503 108.641 53.021 108.905 53.021 109.366V109.439H52.5183V109.337C52.5183 109.13 52.4128 109.053 52.2441 109.053C52.0578 109.053 51.9488 109.13 51.9488 109.408V109.935C52.0402 109.77 52.2054 109.678 52.441 109.678C52.8312 109.678 53.0316 109.914 53.0316 110.336V110.863C53.0316 111.324 52.7468 111.587 52.2265 111.587C51.7062 111.587 51.4215 111.324 51.4215 110.863V109.39H51.418ZM51.9488 110.371V110.888C51.9488 111.092 52.0543 111.169 52.223 111.169C52.3917 111.169 52.4972 111.095 52.4972 110.888V110.371C52.4972 110.167 52.3917 110.086 52.223 110.086C52.0543 110.086 51.9488 110.167 51.9488 110.371Z" fill="#362A2B"/>
<path d="M55.2251 111.552C55.197 111.478 55.1759 111.433 55.1759 111.197V110.744C55.1759 110.476 55.0705 110.378 54.8279 110.378H54.6451V111.549H54.1143V108.669H54.9158C55.4677 108.669 55.7032 108.887 55.7032 109.33V109.555C55.7032 109.851 55.5907 110.044 55.3552 110.139C55.6224 110.234 55.7068 110.452 55.7068 110.751V111.194C55.7068 111.334 55.7103 111.436 55.7665 111.542H55.2251V111.552ZM54.6451 109.084V109.967H54.8525C55.0494 109.967 55.1724 109.893 55.1724 109.661V109.376C55.1724 109.172 55.0916 109.081 54.9017 109.081H54.6451V109.084Z" fill="#362A2B"/>
<path d="M55.9033 108.673H57.545V109.084H56.9896V111.552H56.4588V109.084H55.9033V108.673Z" fill="#362A2B"/>
<path d="M37.0291 96.2179V96.2601C37.0291 97.3745 36.1256 98.2744 35.0077 98.2744H27.8433C27.7659 98.2744 27.6956 98.2674 27.6253 98.2639C27.3195 98.2287 27.0382 98.1303 26.7921 97.9756C26.2121 97.6311 25.8184 96.9843 25.8184 96.2601V96.2179C25.8184 95.1 26.7253 94.1965 27.8397 94.1965H35.0042C35.2433 94.1965 35.4718 94.2387 35.6827 94.3196C36.4701 94.5973 37.0291 95.3391 37.0291 96.2179Z" fill="#C7C7C7"/>
<path d="M35.0081 94.1965C36.1225 94.1965 37.0295 95.0999 37.0295 96.2178V96.26C37.0295 97.3744 36.126 98.2814 35.0081 98.2814H27.8471C26.7327 98.2814 25.8258 97.3779 25.8258 96.26V96.2178C25.8258 95.1034 26.7292 94.1965 27.8471 94.1965H35.0081ZM35.0081 93.6094H27.8471C26.4093 93.6094 25.2422 94.78 25.2422 96.2143V96.2565C25.2422 97.6943 26.4128 98.8614 27.8471 98.8614H35.0081C36.4459 98.8614 37.613 97.6908 37.613 96.2565V96.2143C37.613 94.78 36.4459 93.6094 35.0081 93.6094Z" fill="#5E4A4C"/>
<path d="M76.1252 96.2179V96.2601C76.1252 97.3745 75.2217 98.2744 74.1038 98.2744H66.9393C66.623 98.2744 66.3241 98.1971 66.0605 98.0705C65.3855 97.7471 64.918 97.0581 64.918 96.2601V96.2179C64.918 95.1 65.825 94.1965 66.9393 94.1965H74.1038C74.4132 94.1965 74.7085 94.2668 74.9721 94.3969C75.6541 94.7133 76.1252 95.4094 76.1252 96.2179Z" fill="#C7C7C7"/>
<path d="M74.1038 94.1965C75.2182 94.1965 76.1252 95.0999 76.1252 96.2178V96.26C76.1252 97.3744 75.2217 98.2814 74.1038 98.2814H66.9428C65.8284 98.2814 64.9215 97.3779 64.9215 96.26V96.2178C64.9215 95.1034 65.8249 94.1965 66.9428 94.1965H74.1038ZM74.1038 93.6094H66.9428C65.505 93.6094 64.3379 94.78 64.3379 96.2143V96.2565C64.3379 97.6943 65.5085 98.8614 66.9428 98.8614H74.1038C75.5416 98.8614 76.7087 97.6908 76.7087 96.2565V96.2143C76.7087 94.78 75.5416 93.6094 74.1038 93.6094Z" fill="#5E4A4C"/>
<g opacity="0.6">
<path d="M35.6865 94.3196L32.273 98.2744H28.0439L31.5242 94.1965H35.008C35.2471 94.1965 35.4756 94.2387 35.6865 94.3196Z" fill="white"/>
<path d="M27.6291 98.2639L31.0777 94.1965H29.9879L26.7959 97.9756L27.6291 98.2639Z" fill="white"/>
</g>
<g opacity="0.6">
<path d="M74.9682 94.3969L71.6109 98.2744H67.3818L70.8656 94.1965H74.0998C74.4127 94.1965 74.7045 94.2668 74.9682 94.3969Z" fill="white"/>
<path d="M70.4197 94.1965L66.964 98.2744H66.9394C66.623 98.2744 66.3242 98.1971 66.0605 98.0705L69.3299 94.2H70.4197V94.1965Z" fill="white"/>
</g>
<path d="M29.7277 56.0293H26.0013C25.5971 56.0293 25.2666 55.6988 25.2666 55.2945V55.277C25.2666 54.8727 25.5971 54.5422 26.0013 54.5422H29.7277C30.132 54.5422 30.4624 54.8727 30.4624 55.277V55.291C30.4624 55.6988 30.132 56.0293 29.7277 56.0293Z" fill="#EDDFC8"/>
<path d="M76.5675 56.0293H72.8412C72.4369 56.0293 72.1064 55.6988 72.1064 55.2945V55.277C72.1064 54.8727 72.4369 54.5422 72.8412 54.5422H76.5675C76.9718 54.5422 77.3023 54.8727 77.3023 55.277V55.291C77.3023 55.6988 76.9718 56.0293 76.5675 56.0293Z" fill="#EDDFC8"/>
<path opacity="0.1" d="M47.7282 80.5003C47.7634 80.4721 47.7985 80.444 47.8337 80.4124C47.8478 80.3948 47.8653 80.3772 47.8794 80.3632C48.0165 80.212 48.1185 80.0222 48.1677 79.8112L48.2977 79.2066L49.036 81.6709L49.1977 82.4162L49.2047 82.4338L49.2012 82.4513L49.0887 83.3372L48.4067 83.3653L48.3645 83.3689L48.4208 84.6731C48.4243 84.7258 48.4454 84.775 48.47 84.8102L48.5016 85.5203C48.5122 85.6961 48.6317 85.8332 48.7723 85.8437L48.7653 85.9035L48.3891 88.8986H53.5428V81.5936C53.5428 80.6866 54.3127 79.9483 55.2548 79.9483H55.9473L55.3989 76.4013L56.6223 77.5332L57.1707 79.9483H59.5753L59.0128 76.7633C58.9812 76.6368 58.9355 76.5208 58.8722 76.4188C58.8089 76.2325 58.6999 76.0567 58.5488 75.9126L54.608 72.2636C54.1404 71.6765 53.1948 71.557 52.3264 71.4691L52.33 71.4234L51.3667 71.3496L51.0749 71.3285L50.8464 70.6605L50.8429 70.6535C50.9589 70.6781 51.0855 70.6781 51.2261 70.65C51.2261 70.65 51.2824 69.9258 51.3175 69.1348C51.3281 68.8395 51.3386 68.5372 51.3421 68.256C51.3456 67.9396 51.3421 67.6548 51.321 67.4509L51.3175 67.4193C51.314 67.3701 51.3105 67.3244 51.3034 67.2787C51.2964 67.2365 51.2929 67.1908 51.2824 67.1451C51.2824 67.1381 51.2788 67.131 51.2753 67.124C51.2718 67.0994 51.2683 67.0748 51.2613 67.0502C51.2577 67.0361 51.2542 67.022 51.2507 67.008C51.2331 66.9377 51.212 66.8674 51.1874 66.8006C51.1874 66.8006 51.1874 66.8006 51.1874 66.7971C51.1804 66.7795 51.1734 66.7619 51.1699 66.7478C51.1663 66.7443 51.1663 66.7443 51.1663 66.7408C51.1628 66.7373 51.1628 66.7338 51.1593 66.7268C51.1593 66.7232 51.1558 66.7162 51.1523 66.7127C51.1382 66.6705 51.1206 66.6283 51.0996 66.5897C51.0785 66.5475 51.0609 66.5088 51.0363 66.4701C51.0257 66.4525 51.0152 66.4315 51.0046 66.4139V66.4104C50.9976 66.3998 50.9906 66.3893 50.9835 66.3787C50.98 66.3752 50.98 66.3752 50.9765 66.3717C50.966 66.3541 50.9554 66.3365 50.9449 66.3225C50.9273 66.2979 50.9132 66.2733 50.8921 66.2487C50.8746 66.2205 50.85 66.1924 50.8289 66.1643L50.8183 66.1537C50.8113 66.1502 50.8078 66.1432 50.8007 66.1362C50.7937 66.1291 50.7902 66.1221 50.7832 66.1151C50.7656 66.094 50.748 66.0764 50.7269 66.0553C50.7199 66.0483 50.7093 66.0412 50.7023 66.0307C50.6882 66.0201 50.6777 66.0061 50.6636 65.992C50.6355 65.9639 50.6074 65.9393 50.5758 65.9147C50.5511 65.8936 50.5265 65.8725 50.4984 65.8514C50.4949 65.8479 50.4879 65.8444 50.4808 65.8409V65.8373C50.4527 65.8163 50.4246 65.7952 50.3929 65.7776C50.3648 65.7565 50.3332 65.7389 50.3015 65.7178C50.2699 65.7002 50.2383 65.6827 50.2066 65.6651C50.175 65.6475 50.1433 65.6335 50.1117 65.6159C50.1012 65.6124 50.0906 65.6053 50.0801 65.6018C50.0801 65.6018 50.0766 65.6018 50.073 65.5983C50.0695 65.5983 50.066 65.5948 50.0625 65.5948C50.0449 65.5842 50.0273 65.5772 50.0098 65.5702C49.9852 65.5596 49.9605 65.5491 49.9324 65.5385C49.9078 65.528 49.8797 65.521 49.8551 65.5104C49.8445 65.5069 49.834 65.5034 49.8234 65.4999C49.8059 65.4963 49.7918 65.4893 49.7742 65.4858C49.7496 65.4753 49.7215 65.4682 49.6969 65.4612C49.6688 65.4542 49.6406 65.4471 49.6125 65.4401C49.5949 65.4366 49.5738 65.4296 49.5563 65.426C49.5387 65.4225 49.5211 65.419 49.5035 65.4155C49.4578 65.4049 49.4086 65.3979 49.3594 65.3874C49.1661 65.3592 48.9692 65.3487 48.7688 65.3522C48.7196 65.3592 48.6669 65.3628 48.6176 65.3663C47.5384 65.4542 45.9072 65.6862 46.4838 66.9869C46.4732 67.0045 46.4662 67.022 46.4592 67.0396C46.4346 67.1381 46.4275 67.3033 46.431 67.4931C46.4381 67.7216 46.4592 67.9888 46.4803 68.2138C46.4978 68.3685 46.5154 68.5021 46.526 68.5935C46.5365 68.6743 46.5435 68.72 46.5435 68.72C46.4627 68.8536 46.3889 69.0012 46.3256 69.1559C46.2658 69.3071 46.2131 69.4688 46.1709 69.6375C46.1463 69.7325 46.1744 69.8309 46.2307 69.9012C46.2764 69.961 46.3432 69.9996 46.424 70.0137L46.6912 70.0594L46.7791 70.8574C46.8599 71.5113 47.1904 71.898 47.672 71.8558C47.672 71.8558 47.9462 71.796 48.2872 71.6097C48.354 71.8101 48.4208 72.0069 48.4841 72.1827L47.7353 72.8155C47.7036 72.8331 47.672 72.8542 47.6439 72.8717C47.6017 72.8999 47.5595 72.9245 47.5208 72.9526C47.4576 72.9913 47.4013 73.0405 47.3451 73.0897C47.1376 73.2549 46.9795 73.4869 46.9162 73.7682L46.9056 73.8033C46.8986 73.842 46.8881 73.8807 46.881 73.9193L45.8686 78.6125L42.4375 79.9483H46.4521C46.9584 79.9483 47.4154 80.1628 47.7282 80.5003Z" fill="#1D1D1B"/>
<path opacity="0.1" d="M56.4106 86.1462L56.6461 87.236L56.7657 87.802L56.8676 88.2836L56.2665 88.3328C56.3122 88.5227 56.3579 88.716 56.4 88.9023H53.542V81.5937C53.542 80.6867 54.3119 79.9485 55.254 79.9485H55.9466L56.2665 82.0121L56.3192 82.005L56.8535 85.1092C56.9238 85.524 56.7375 85.9212 56.4106 86.1462Z" fill="#1D1D1B"/>
<path opacity="0.3" d="M76.502 90.0343H25.4473C25.7285 89.3664 26.3859 88.9023 27.1452 88.9023H56.7242C57.0687 88.3152 57.8421 87.7879 58.9248 87.3731C58.8967 87.345 58.9143 87.011 58.9529 86.5294C58.96 86.4415 58.9705 86.3466 58.9776 86.2552C58.9881 86.1603 59.0022 86.0724 59.0057 85.974C59.0233 85.756 59.0479 85.5345 59.076 85.299C59.1006 85.0775 59.1287 84.849 59.1533 84.6205C59.1533 84.5959 59.1604 84.5748 59.1604 84.5502C59.185 84.3498 59.2061 84.153 59.2307 83.9631C59.2553 83.7452 59.2764 83.5483 59.301 83.3655C59.3115 83.2882 59.3186 83.2143 59.3256 83.144C59.3326 83.1159 59.3361 83.0807 59.3432 83.0491C59.3502 82.9893 59.3537 82.9366 59.3607 82.8839C59.3607 82.8487 59.3678 82.8206 59.3713 82.789C59.3783 82.7257 59.3818 82.673 59.3889 82.6237C59.4064 82.5077 59.4135 82.4409 59.4135 82.4409C59.4767 82.1245 59.6525 81.8609 59.8881 81.6781C60.0041 81.5902 60.1341 81.5269 60.2748 81.4777L60.2677 81.4531V81.4461L63.0977 80.8063L63.5265 80.7113L63.6953 79.9731C63.6953 79.9801 63.7023 79.9836 63.7058 79.9907L63.6953 79.3403V79.3333C63.6496 79.263 63.6004 79.1997 63.5441 79.1153C63.3859 78.8868 63.3437 78.5001 63.2523 78.0712C63.2418 78.0712 63.182 78.2013 62.9816 78.131C62.8129 78.0712 62.6582 77.667 62.5879 77.3682C62.5246 77.1115 62.5879 76.9041 62.718 76.8233C62.7531 76.7951 62.7988 76.7776 62.8516 76.7776C62.8164 76.5209 62.7988 76.2924 62.7918 76.085C62.7918 76.092 62.7848 76.092 62.7813 76.092L62.7391 75.396C62.7391 74.2781 63.6461 73.3711 64.764 73.3711H65.4249C66.5428 73.3711 67.4498 74.2781 67.4498 75.396L67.4076 76.0639C67.4006 76.0639 67.4006 76.0639 67.397 76.0639C67.39 76.2678 67.3724 76.4963 67.3373 76.7494C67.397 76.7494 67.4498 76.774 67.4955 76.8092C67.608 76.8971 67.6642 77.0975 67.608 77.3435C67.5447 77.6424 67.39 78.0466 67.2283 78.1064C67.0279 78.1767 66.9717 78.0537 66.9576 78.0537C66.8697 78.4825 66.8346 78.8692 66.6764 79.0978C66.6131 79.1962 66.5533 79.2806 66.4936 79.3614V79.3684L66.4865 79.9661V79.9836L66.6518 80.7113L69.886 81.439C69.893 81.439 69.893 81.439 69.8965 81.4461L69.9246 81.4531L69.9176 81.4883C70.0512 81.5304 70.1813 81.5937 70.2938 81.6816C70.5293 81.8644 70.7051 82.1281 70.7684 82.4445C70.7684 82.4445 70.7754 82.4902 70.7789 82.578C70.7859 82.6132 70.7894 82.6483 70.7965 82.694C70.7965 82.7011 70.7965 82.7046 70.7965 82.7046C70.8035 82.7573 70.807 82.8171 70.8211 82.8804C70.8316 83.014 70.8562 83.1792 70.8738 83.355C70.8808 83.4499 70.8914 83.5413 70.9019 83.6432C70.9125 83.6889 70.9195 83.7416 70.9195 83.7909C70.9371 83.9491 70.9617 84.1073 70.9722 84.2725C70.9722 84.2901 70.9793 84.3006 70.9793 84.3147C70.9969 84.4834 71.0144 84.6557 71.032 84.8244C71.0426 84.9228 71.0566 85.0283 71.0672 85.1338C71.0777 85.2111 71.0847 85.2849 71.0918 85.3552C71.1093 85.5486 71.1269 85.7349 71.1515 85.9177V85.9529C71.1691 86.1357 71.1797 86.3114 71.1972 86.4732C71.2043 86.4907 71.2043 86.5083 71.2043 86.5259C71.2394 87.0251 71.257 87.3766 71.2218 87.4047C72.2659 87.816 73.0077 88.3258 73.3417 88.8988H74.8006C75.5669 88.9023 76.2208 89.3664 76.502 90.0343Z" fill="#362A2B"/>
<path opacity="0.05" d="M78.3225 62.8352V86.5328H74.8493V81.5936C74.8493 80.6866 74.0829 79.9484 73.1338 79.9484H66.8095C66.697 79.9484 66.5915 79.9589 66.4931 79.9765L66.5001 79.3789V79.3718C66.5599 79.291 66.6161 79.2066 66.6829 79.1082C66.8411 78.8797 66.8763 78.493 66.9642 78.0641C66.9747 78.0641 67.0345 78.1871 67.2348 78.1168C67.4001 78.0571 67.5512 77.6528 67.6145 77.354C67.6743 77.1079 67.6145 76.9075 67.502 76.8196C67.4563 76.7845 67.4036 76.7599 67.3438 76.7599C67.379 76.5068 67.3966 76.2783 67.4036 76.0744C67.4106 76.0744 67.4106 76.0744 67.4141 76.0744L67.4563 75.4064C67.4563 74.2885 66.5493 73.3815 65.4314 73.3815H64.7705C63.6526 73.3815 62.7456 74.2885 62.7456 75.4064L62.7878 76.1025C62.7948 76.1025 62.7984 76.1025 62.7984 76.0955C62.8054 76.2993 62.823 76.5279 62.8581 76.788C62.8054 76.788 62.7597 76.8056 62.7245 76.8337C62.5945 76.9146 62.5312 77.122 62.5945 77.3786C62.6648 77.6774 62.8159 78.0817 62.9882 78.1414C63.1886 78.2118 63.2448 78.0817 63.2589 78.0817C63.3538 78.5106 63.3925 78.8973 63.5507 79.1258C63.6104 79.2066 63.6561 79.2734 63.7018 79.3437V79.3508L63.7124 80.0011C63.7053 79.9941 63.7018 79.9906 63.7018 79.9835L63.5331 80.7218L63.1042 80.8167C62.8159 80.2964 62.2429 79.9449 61.5926 79.9449H55.2612C54.3191 79.9449 53.5492 80.6831 53.5492 81.5901V86.5258H48.1601V81.5936C48.1601 80.6866 47.3937 79.9484 46.4515 79.9484H40.1202C39.1781 79.9484 38.4117 80.6866 38.4117 81.5936V86.5293H36.6153V81.5936C36.6153 80.6866 35.849 79.9484 34.9068 79.9484H28.5685C27.6264 79.9484 26.86 80.6866 26.86 81.5936V86.5293H23.6328V62.8352H78.3225Z" fill="#362A2B"/>
<path opacity="0.15" d="M36.6122 81.5937V88.9023H26.8604V81.5937C26.8604 80.6867 27.6267 79.9485 28.5689 79.9485H34.9002C35.8423 79.9485 36.6122 80.6867 36.6122 81.5937Z" fill="#362A2B"/>
<path opacity="0.15" d="M48.16 81.5937V88.9023H38.4082V81.5937C38.4082 81.2387 38.5277 80.9082 38.7316 80.6375C38.925 80.3739 39.1992 80.1664 39.5226 80.054C39.614 80.0188 39.7124 79.9942 39.8109 79.9766C39.9128 79.959 40.0148 79.9485 40.1202 79.9485H46.4515C46.9578 79.9485 47.4148 80.1629 47.7276 80.5004C47.9948 80.7922 48.16 81.1754 48.16 81.5937Z" fill="#362A2B"/>
<path opacity="0.15" d="M60.267 81.4636L60.2741 81.4883C60.1334 81.534 60.0034 81.6007 59.8874 81.6886L59.8839 81.6921C59.6483 81.8714 59.4761 82.1316 59.4128 82.448C59.4128 82.448 59.1105 84.8631 58.9769 86.3079C58.9698 86.3853 58.9628 86.4626 58.9558 86.5329C58.9136 87.011 58.896 87.345 58.9276 87.3731C57.8414 87.7914 57.068 88.3188 56.7235 88.9023H53.542V81.5937C53.542 80.6867 54.3119 79.9485 55.254 79.9485H61.5853C62.2357 79.9485 62.8087 80.3 63.097 80.8203L60.267 81.4601V81.4636Z" fill="#362A2B"/>
<path opacity="0.15" d="M74.8494 81.5937V88.9023H73.3448C73.0108 88.3293 72.2655 87.8195 71.2249 87.4082C71.2601 87.3801 71.2425 87.0285 71.2074 86.5293C71.0914 85.1056 70.775 82.4479 70.775 82.4479C70.7117 82.1315 70.5359 81.8679 70.3004 81.6851C70.1879 81.5972 70.0613 81.5339 69.9242 81.4917L69.9313 81.4566L69.9031 81.4495C69.8961 81.4425 69.8961 81.4425 69.8926 81.4425L66.6584 80.7148L66.4932 79.9871V79.9695C66.5916 79.952 66.6971 79.9414 66.8096 79.9414H73.1338C74.083 79.9484 74.8494 80.6867 74.8494 81.5937Z" fill="#362A2B"/>
<g opacity="0.6">
<path d="M40.5217 63.4224L29.1738 89.4612H37.9765L49.4685 63.4224H40.5217Z" fill="white"/>
<path d="M37.291 63.4224L26.0557 89.4612H28.2985L39.5796 63.4224H37.291Z" fill="white"/>
</g>
<g opacity="0.6">
<path d="M67.201 63.4224L55.8496 89.4612H64.6558L76.1478 63.4224H67.201Z" fill="white"/>
<path d="M63.9697 63.4224L52.7344 89.4612H54.9772L66.2548 63.4224H63.9697Z" fill="white"/>
</g>
<path d="M74.473 89.6896L54.8779 89.1306V89.1236C54.8885 88.8037 55.1732 88.5506 55.5177 88.5611L73.8719 89.0849C74.0371 89.0884 74.1918 89.1552 74.3043 89.2677C74.4168 89.3802 74.4765 89.5279 74.473 89.6825V89.6896Z" fill="#3C3C3B"/>
<path d="M66.4899 89.2819L57.0896 89.883L57.0264 89.2959L66.4583 88.969L66.4899 89.2819Z" fill="#575756"/>
<path d="M56.4316 89.6894C56.4316 89.9425 56.7023 90.1464 57.0328 90.1464C57.3667 90.1464 57.6339 89.9425 57.6339 89.6894C57.6339 89.4363 57.3632 89.2324 57.0328 89.2324C56.7023 89.2324 56.4316 89.4398 56.4316 89.6894Z" fill="#3C3C3B"/>
<path d="M53.4967 89.0499L33.9017 89.5456V89.5385C33.8911 89.2186 34.1618 88.9514 34.5063 88.9444L52.864 88.4804C53.0292 88.4769 53.1874 88.5331 53.3069 88.6386C53.4264 88.744 53.4967 88.8917 53.5003 89.0429L53.4967 89.0499Z" fill="#3C3C3B"/>
<path d="M35.4872 90.02C35.5012 90.2732 35.786 90.463 36.1164 90.4454C36.4504 90.4278 36.707 90.2099 36.6895 89.9568C36.6754 89.7037 36.3906 89.5138 36.0602 89.5314C35.7262 89.549 35.4696 89.7669 35.4872 90.02Z" fill="#3C3C3B"/>
<path d="M45.5026 89.0709L36.1551 90.1748L36.0566 89.5947L45.4499 88.7581L45.5026 89.0709Z" fill="#575756"/>
<path d="M78.3255 62.8352H77.4854V90.2135H78.3255V62.8352Z" fill="#5E4A4C"/>
<path d="M24.4691 62.8352H23.6289V90.2135H24.4691V62.8352Z" fill="#5E4A4C"/>
<g opacity="0.3">
<path d="M74.0091 90.2592V64.7933H77.8164V64.2344H73.2217V90.2592H74.0091Z" fill="#5E4A4C"/>
<path d="M77.8162 88.5331H76.171C75.591 88.5331 75.1234 88.0656 75.1234 87.4855V66.9589C75.1234 66.3788 75.5945 65.9113 76.171 65.9113H77.8162V65.3523H76.171C75.2851 65.3523 74.5645 66.073 74.5645 66.9589V87.482C74.5645 88.3679 75.2851 89.0886 76.171 89.0886H77.8162V88.5331Z" fill="#5E4A4C"/>
</g>
<path d="M126.253 90.0339C126.249 90.0339 126.249 90.0339 126.244 90.0294C126.044 89.9626 125.843 90.0918 125.785 90.3057C125.558 91.1213 125.255 91.8833 124.885 92.583C124.791 92.7657 124.858 92.9885 125.037 93.0955L125.041 93.1C125.219 93.2025 125.451 93.1401 125.549 92.9484C125.941 92.2131 126.267 91.4154 126.507 90.5642C126.57 90.3414 126.454 90.1007 126.253 90.0339Z" fill="#F0C997"/>
<path d="M126.043 90.8628H126.035C125.843 90.8628 125.691 91.0232 125.691 91.2149L125.723 94.018C125.723 94.2096 125.883 94.3612 126.075 94.3612H126.084C126.275 94.3612 126.427 94.2007 126.427 94.0091L126.396 91.2059C126.396 91.0143 126.235 90.8628 126.043 90.8628Z" fill="#FAD8AC"/>
<path d="M126.752 91.1658H126.743C126.538 91.1658 126.378 91.3262 126.378 91.5178L126.409 94.321C126.409 94.5126 126.578 94.6641 126.779 94.6641H126.788C126.993 94.6641 127.153 94.5037 127.153 94.3121L127.122 91.5089C127.122 91.3173 126.953 91.1658 126.752 91.1658Z" fill="#FAD8AC"/>
<path d="M127.474 90.8983H127.465C127.269 90.8983 127.113 91.0587 127.117 91.2504L127.144 94.049C127.144 94.2407 127.304 94.3922 127.501 94.3922H127.509C127.706 94.3922 127.862 94.2318 127.857 94.0401L127.826 91.237C127.826 91.0498 127.67 90.8938 127.474 90.8983Z" fill="#FAD8AC"/>
<path d="M128.116 91.1614H128.112C127.942 91.1614 127.804 91.304 127.809 91.4733L127.84 93.3406C127.84 93.51 127.983 93.6481 128.152 93.6437H128.156C128.326 93.6437 128.464 93.5011 128.459 93.3317L128.428 91.4644C128.424 91.2951 128.286 91.1614 128.116 91.1614Z" fill="#FAD8AC"/>
<path d="M127.934 88.6564L126.147 88.6748L126.167 90.5285L127.953 90.5101L127.934 88.6564Z" fill="#FAD8AC"/>
<path d="M128.133 92.311H128.129C127.959 92.311 127.821 92.1773 127.817 92.0079V92.1193C127.817 92.311 127.665 92.4669 127.474 92.4714H127.465C127.273 92.4714 127.117 92.3199 127.113 92.1282V92.2307C127.113 92.4224 126.961 92.5784 126.769 92.5828H126.761C126.569 92.5828 126.413 92.4313 126.409 92.2397C126.409 92.4313 126.257 92.5873 126.065 92.5917H126.056C125.865 92.5917 125.709 92.4402 125.704 92.2486L125.695 91.54V91.4152L125.687 90.7066C125.682 90.1451 126.132 89.6816 126.694 89.6772L127.376 89.6682C127.937 89.6638 128.401 90.1139 128.405 90.6754L128.414 91.384V91.5088L128.418 92.0035C128.441 92.1728 128.303 92.311 128.133 92.311Z" fill="#FAD8AC"/>
<path d="M108.489 90.5775L108.484 90.5731C108.306 90.4884 108.097 90.5642 108.012 90.738L106.764 93.3361C106.68 93.5144 106.755 93.7239 106.929 93.8085L106.934 93.813C107.112 93.8977 107.321 93.8219 107.406 93.6481L108.654 91.0499C108.738 90.8761 108.667 90.6622 108.489 90.5775Z" fill="#FAD8AC"/>
<path d="M108.078 90.1229L108.074 90.1184C107.904 90.0159 107.691 90.0694 107.588 90.2388L106.086 92.6988C105.984 92.8681 106.037 93.082 106.207 93.1845L106.211 93.189C106.38 93.2915 106.594 93.238 106.697 93.0687L108.199 90.6087C108.297 90.4438 108.243 90.2254 108.078 90.1229Z" fill="#FAD8AC"/>
<path d="M109.108 90.8715L109.104 90.8671C108.925 90.7868 108.716 90.8715 108.636 91.0498L107.593 93.4429C107.513 93.6212 107.597 93.8306 107.776 93.9109L107.78 93.9153C107.958 93.9955 108.168 93.9109 108.248 93.7326L109.291 91.3394C109.371 91.1612 109.291 90.9517 109.108 90.8715Z" fill="#FAD8AC"/>
<path d="M109.674 91.1478H109.67C109.505 91.0943 109.326 91.179 109.269 91.3439L108.662 93.1354C108.609 93.3003 108.694 93.4786 108.859 93.5365H108.863C109.028 93.59 109.206 93.5053 109.264 93.3404L109.87 91.5489C109.928 91.384 109.839 91.2057 109.674 91.1478Z" fill="#FAD8AC"/>
<path d="M110.2 88.3136L109.424 87.0256L108.631 88.6567C108.261 88.6211 107.98 88.6211 107.753 88.8929C107.7 88.9553 107.655 89.0222 107.619 89.0979L107.294 89.7753L107.548 90.0026L107.111 91.0142C108.003 91.4866 108.84 91.6693 109.794 91.7629L110.298 90.4081C110.44 90.114 110.418 89.7842 110.275 89.499L111.207 87.7075L110.2 88.3136Z" fill="#F0C997"/>
<path d="M107.009 89.4231C106.791 89.7752 106.305 90.1094 106.038 90.2431C105.686 90.4169 105.908 91.2414 106.742 90.7111C106.982 90.5596 107.401 90.3144 107.531 90.056C107.936 90.4036 108.591 90.3679 109.019 90.0381L107.887 88.6477C107.624 88.6566 107.259 89.0176 107.009 89.4231Z" fill="#FAD8AC"/>
<path d="M109.429 87.03L108.667 88.6076C108.35 88.5185 107.954 88.5675 107.615 88.7502L107.499 89.5123L107.811 90.0293C108.377 90.2476 109.068 90.2788 109.331 89.646V89.6416L110.07 88.0951L109.429 87.03Z" fill="#FAD8AC"/>
<path d="M126.694 83.3134L126.662 83.3223C126.417 83.407 126.168 83.4337 125.927 83.3981C125.633 83.3624 125.357 83.2421 125.125 83.0594C124.907 82.8856 124.733 82.6494 124.63 82.3731C124.626 82.3597 124.621 82.3463 124.617 82.333L123.726 79.7838L123.44 78.9638L122.255 75.5724C121.965 74.7346 122.406 73.8165 123.244 73.5269L123.275 73.518C123.601 73.4065 123.935 73.4021 124.243 73.4868C124.728 73.6249 125.143 73.9859 125.321 74.5029L127.683 81.2679C127.705 81.3258 127.723 81.3882 127.732 81.4506C127.745 81.4996 127.75 81.5442 127.754 81.5932C127.852 82.3285 127.424 83.0594 126.694 83.3134Z" fill="#FBF7CF"/>
<path d="M116.484 116.43C116.631 116.474 116.845 116.564 116.827 118.204H109.772C109.772 115.975 114.791 115.908 116.484 116.43Z" fill="#6B6A58"/>
<path d="M116.827 118.012H109.772V118.694H116.827V118.012Z" fill="#16191E"/>
<path d="M124.243 73.4734V73.4823L123.815 78.7321L123.73 79.7839L123.267 85.4303C123.218 86.0319 123.013 87.2485 122.509 87.5516C122.425 87.6006 122.335 87.6273 122.233 87.6184L120.107 87.5115L112.919 87.155L112.781 87.1505C112.772 87.1505 112.763 87.146 112.758 87.146C112.625 87.1327 112.522 87.0525 112.451 86.9277C112.134 86.4063 112.264 85.0916 112.308 84.5256L113.026 75.7507L113.084 75.0466L112.816 73.4199L114.782 72.6222L121.208 72.4351L124.243 73.4734Z" fill="#FBF7CF"/>
<path d="M123.668 118.204H119.314L117.687 95.1455L117.682 95.0385L116.827 118.016L112.713 116.256L112.566 91.1614C112.566 90.8539 112.789 87.2485 113.101 87.2485L122.634 87.6229C122.665 88.844 122.834 90.8539 122.834 91.1614L123.668 118.012V118.016V118.204Z" fill="#5E4A4C"/>
<path d="M122.661 88.7324C122.661 88.162 122.648 87.9124 122.63 87.6227L112.817 87.1548C112.759 87.3553 112.794 87.6896 112.817 88.2244L122.661 88.7324Z" fill="#16191E"/>
<path d="M116.521 87.4402L116.472 88.2944L117.62 88.3601L117.668 87.5058L116.521 87.4402Z" fill="#FBF7CF"/>
<path d="M121.493 116.43C122.696 116.43 123.668 116.563 123.668 118.203H119.318C119.318 116.483 120.29 116.43 121.493 116.43Z" fill="#6B6A58"/>
<path d="M123.668 118.012H119.318V118.694H123.668V118.012Z" fill="#16191E"/>
<path d="M116.382 67.8047L115.905 71.0401C116.061 72.2434 116.609 73.1525 117.724 73.6338C119.003 73.1971 119.814 72.4885 119.938 71.3699L120.29 68.1523L116.382 67.8047Z" fill="#F0C997"/>
<path d="M113.685 73.353L113.716 73.3575C114.14 73.4332 114.496 73.6739 114.732 73.9992C114.982 74.3379 115.098 74.7746 115.013 75.2203L114.969 75.4743L113.747 82.275C113.698 82.5557 113.578 82.8053 113.409 83.0103C113.404 83.0148 113.404 83.0148 113.404 83.0148C113.07 83.4203 112.54 83.6476 111.987 83.5852C111.952 83.5807 111.92 83.5763 111.885 83.5718L111.853 83.5629C110.98 83.4069 110.401 82.5736 110.557 81.6956L110.646 81.1965L111.738 75.0955L111.818 74.641C111.978 73.7764 112.812 73.197 113.685 73.353Z" fill="#FBF7CF"/>
<path d="M112.478 81.1208L112.509 81.1341C112.545 81.152 112.58 81.1653 112.616 81.1832C113.191 81.4773 113.521 82.0789 113.49 82.6939C113.49 82.6984 113.49 82.6984 113.49 82.7028C113.481 82.8811 113.436 83.0638 113.365 83.2376L110.744 89.089L108.726 88.523L110.196 82.4132L110.37 81.9764C110.718 81.1564 111.662 80.7776 112.478 81.1208Z" fill="#FBF7CF"/>
<path d="M128.204 89.4946L126.591 89.8021L126.382 89.8422L125.945 89.9269L124.621 82.3374L124.612 82.2884C124.563 82.0522 124.577 81.8204 124.63 81.6021C124.661 81.4728 124.706 81.348 124.768 81.2366C124.871 81.0405 125.014 80.8712 125.187 80.7375C125.383 80.5815 125.62 80.4657 125.887 80.4122L125.923 80.4077C126.716 80.2562 127.478 80.7108 127.736 81.455C127.768 81.5308 127.785 81.611 127.803 81.6912L127.821 82.0477L128.204 89.4946Z" fill="#FBF7CF"/>
<path opacity="0.07" d="M121.494 92.1863C121.351 92.271 121.195 92.3556 121.03 92.4269C121.186 92.3423 121.338 92.262 121.494 92.1863Z" fill="black"/>
<path opacity="0.15" d="M123.668 118.012H123.664L122.055 118.199H119.319L117.692 95.1411L117.688 95.0341L116.832 118.012L112.719 116.252H112.754C114.582 116.198 116.061 114.741 116.132 112.909L117.14 95.15C116.765 93.9468 115.54 93.0733 114.283 92.3335C115.936 93.3318 119.136 93.2783 121.035 92.4226C119.626 93.1624 118.28 94.0136 118.12 95.1099L119.854 112.103C120.059 114.393 121.302 116.466 123.227 117.722L123.664 118.008L123.668 118.012Z" fill="black"/>
<path d="M116.235 74.6766L117.242 73.2015C116.15 72.6132 116.293 72.2344 115.905 71.6016L115.259 72.1898L114.777 72.6266C115.406 73.5223 115.339 74.017 116.235 74.6766Z" fill="#F0EAB6"/>
<path d="M117.856 74.9127L116.956 73.1123C118.021 72.9742 119.496 72.426 119.937 71.3743L121.203 72.4438C120.744 73.4555 118.984 74.5919 117.856 74.9127Z" fill="#F0EAB6"/>
<path opacity="0.07" d="M126.382 89.8421L125.945 89.9267L124.622 82.3373L123.731 79.7882L123.267 85.4346C123.218 86.0362 123.013 87.2528 122.509 87.5559C122.425 87.6049 122.336 87.6316 122.233 87.6227L120.107 87.5158C122.046 85.087 123.214 82.061 123.441 78.9682C123.494 78.2819 123.499 77.5911 123.454 76.9048C123.526 77.5287 123.646 78.1392 123.815 78.7409C124.056 79.5965 124.381 80.4343 124.769 81.241C124.787 81.2811 124.809 81.3257 124.827 81.3702C124.92 81.5708 125.019 82.2125 125.13 83.0726C125.402 85.2028 125.763 88.6745 126.382 89.8421Z" fill="black"/>
<path d="M120.869 69.2263C121.194 68.5177 121.395 67.6888 121.457 66.9045C121.52 63.3125 118.997 63.3615 117.665 63.2991C116.109 63.2902 114.59 64.2662 114.389 66.6504C114.456 66.8866 114.541 67.0872 114.541 67.0872L113.961 68.3929C113.868 68.6069 113.984 68.8564 114.211 68.9188L114.55 69.0302C114.545 69.2709 114.465 70.3003 114.465 70.3003C114.456 70.9064 114.755 71.7398 115.485 71.7621L116.261 71.7754C117.201 71.7175 118.663 70.6747 118.681 69.0926C119.251 69.048 120.628 69.7433 120.869 69.2263Z" fill="#FAD8AC"/>
<path d="M120.138 69.9572C117.691 70.3627 119.189 67.6621 119.189 67.6621C119.189 67.6621 118.6 68.5043 118.391 68.7405C117.999 68.7183 117.999 68.7183 117.642 68.6692C117.651 65.6165 118.311 64.2796 114.919 64.8188C114.264 64.6717 113.992 62.5638 118.043 62.8802C119.835 63.0184 121.185 64.0746 121.417 65.8527C121.644 67.5952 121.564 69.5695 120.138 69.9572Z" fill="#362A2B"/>
<path d="M119.586 67.9205C119.554 68.482 119.046 69.106 118.681 69.0837C118.316 69.0658 118.378 68.6113 118.4 68.0498C118.418 67.6799 118.351 67.1451 118.757 67.047C119.118 66.9668 119.63 67.0961 119.586 67.9205Z" fill="#FAD8AC"/>
<path d="M129.524 116.496C129.68 116.541 129.898 116.63 129.881 118.257H122.559C122.559 116.046 127.768 115.984 129.524 116.496Z" fill="#16191E"/>
<path d="M129.885 118.07H122.559V118.743H129.885V118.07Z" fill="#6B6A58"/>
<path d="M125.611 116.323L129.885 118.065L130.46 104.865L131.712 95.2834L131.721 95.3903L133.406 118.257H137.925L137.92 118.07V118.065L137.145 94.2361L137.051 91.4419C137.051 91.2324 136.958 89.4008 136.788 88.3312C136.721 87.8811 136.632 87.5647 136.539 87.5647H126.948C126.859 87.5647 126.779 87.8365 126.703 88.2421C126.641 88.5719 126.592 88.9863 126.547 89.4052C126.454 90.3322 126.396 91.2903 126.396 91.4419L125.986 104.339L125.611 116.323Z" fill="#215159"/>
<path d="M136.824 88.5318C136.824 87.9659 136.842 87.7564 136.824 87.4712H126.658C126.6 87.6717 126.636 88.0015 126.658 88.5318H136.824Z" fill="#16191E"/>
<path d="M131.65 87.5603H130.46V88.4115H131.65V87.5603Z" fill="#FBF7CF"/>
<path d="M135.67 116.497C136.917 116.497 137.929 116.626 137.929 118.257H133.41C133.41 116.555 134.422 116.497 135.67 116.497Z" fill="#16191E"/>
<path d="M137.929 118.07H133.41V118.743H137.929V118.07Z" fill="#6B6A58"/>
<path opacity="0.07" d="M135.67 92.458C135.523 92.5427 135.358 92.6229 135.188 92.6942C135.349 92.614 135.509 92.5338 135.67 92.458Z" fill="black"/>
<path opacity="0.15" d="M125.611 116.323L129.885 118.065L130.46 104.865L131.712 95.2836L131.721 95.3906L133.406 118.257H136.249L137.92 118.07H137.925V118.065H137.92L137.47 117.785C135.469 116.537 134.177 114.482 133.963 112.209L132.162 95.3594C132.327 94.272 133.722 93.4297 135.188 92.6944C133.214 93.5455 129.894 93.5946 128.178 92.6052C129.48 93.3361 130.754 94.2007 131.142 95.3995L129.631 104.821L129.159 113.007C129.083 114.821 127.55 116.274 125.647 116.323H125.611Z" fill="black"/>
<path opacity="0.1" d="M126.547 89.4054C129.043 89.6059 131.596 89.9224 133.802 91.0677C135.193 91.7852 136.427 92.9082 137.149 94.2363L137.055 91.442C137.055 91.2281 136.957 89.3965 136.792 88.3269C133.428 88.3002 130.068 88.2645 126.703 88.2378C126.645 88.5676 126.591 88.982 126.547 89.4054Z" fill="black"/>
<path d="M120.782 80.0199L121.575 80.6794C122.003 80.1847 122.413 79.6767 122.845 79.182L122.078 78.5447L122.127 78.3665C122.194 78.0456 122.132 77.7203 121.949 77.4618C121.9 77.395 121.209 76.6062 121.178 76.5705L120.866 76.9671L119.993 76.2407C119.275 77.034 118.83 77.6222 118.232 78.4021L119.155 79.3068C119.859 79.9753 120.269 80.109 120.782 80.0199Z" fill="#F2C799"/>
<path d="M120.482 77.4218C120.647 77.5644 120.928 77.5511 121.071 77.3862L121.12 77.3327C121.187 77.2525 121.222 77.15 121.213 77.043C121.204 76.9361 121.155 76.838 121.075 76.7712L118.156 74.534C118 74.4003 117.768 74.4181 117.635 74.5741L117.599 74.6142C117.474 74.7613 117.492 74.9796 117.635 75.1044L120.482 77.4218Z" fill="#F2C799"/>
<path d="M119.551 77.6359C119.632 77.7072 119.734 77.7428 119.837 77.7428C119.939 77.7428 120.033 77.6982 120.095 77.6269L120.14 77.5779C120.269 77.4309 120.242 77.1947 120.077 77.0521L119.315 76.3836C119.24 76.3167 119.146 76.2811 119.048 76.2855C118.954 76.2855 118.865 76.3256 118.807 76.3925L118.718 76.495C118.607 76.6242 118.629 76.8292 118.772 76.954L119.551 77.6359Z" fill="#FFD2A1"/>
<path d="M119.114 78.2776C119.279 78.4202 119.52 78.4157 119.654 78.2642L119.698 78.2152C119.761 78.1439 119.792 78.0458 119.778 77.9478C119.765 77.8497 119.716 77.7517 119.636 77.6849L119.025 77.1634C118.869 77.0297 118.646 77.0342 118.522 77.1768L118.433 77.2793C118.379 77.3417 118.352 77.4264 118.366 77.5155C118.375 77.6002 118.419 77.6849 118.49 77.7428L119.114 78.2776Z" fill="#FFD2A1"/>
<path d="M118.668 78.7765C118.797 78.8879 118.989 78.8701 119.105 78.7408L119.14 78.6963C119.252 78.567 119.243 78.3709 119.114 78.2595L118.646 77.8584C118.525 77.7559 118.343 77.7738 118.24 77.8941L118.165 77.9832C118.066 78.0991 118.075 78.2684 118.187 78.362L118.668 78.7765Z" fill="#FFD2A1"/>
<path d="M120.175 77.3996L120.585 77.3907C120.652 77.3907 120.719 77.4174 120.763 77.4709L120.852 77.5779C120.852 77.5779 120.291 78.5895 121.329 79.2803L120.781 80.0245L121.476 80.7955C121.944 80.2562 122.39 79.7036 122.862 79.1688L122.399 78.8123L122.074 78.5494L122.123 78.3711C122.189 78.0503 122.127 77.7249 121.944 77.4664C121.895 77.3996 121.205 76.6108 121.173 76.5751C121.12 76.5306 121.053 76.5038 120.982 76.5083L120.322 76.5217L119.877 76.5306C119.738 76.535 119.627 76.6464 119.627 76.7891V76.8737C119.627 77.0163 119.685 77.1545 119.787 77.2525C119.894 77.3461 120.032 77.3996 120.175 77.3996Z" fill="#FFD2A1"/>
<path d="M125.317 81.1342C125.571 79.9131 125.883 76.4727 126.213 75.4655C126.458 74.7213 126.48 74.6188 127.006 74.035C127.243 73.7721 127.523 73.5581 127.84 73.4022C127.844 73.3977 127.849 73.3977 127.849 73.3977C128.014 73.313 128.187 73.2462 128.37 73.1972C128.651 73.1169 128.945 73.0813 129.239 73.0902C131.022 74.9441 130.763 77.0966 130.05 79.4497C130.019 79.5611 129.983 79.6725 129.948 79.7794C129.943 79.7928 129.939 79.8017 129.934 79.8151C129.912 79.8864 129.89 79.9577 129.863 80.029C129.555 80.9827 129.19 81.9676 128.878 82.9748C128.682 83.6121 128.366 83.8884 127.835 84.1246L125.286 81.1431C125.295 81.1342 125.308 81.1342 125.317 81.1342Z" fill="#005B6B"/>
<path d="M121.863 81.4281L123.437 79.2935L122.26 78.3799L120.629 80.5235L121.863 81.4281Z" fill="#EDEDED"/>
<path d="M121.017 81.0003C121.021 81.0137 121.057 81.0404 121.106 81.085C121.681 81.5574 124.791 83.7366 126.208 84.6725C126.574 84.9132 126.823 85.0691 126.895 85.0959C127.024 85.1404 127.14 85.185 127.256 85.2207L127.305 82.6091L127.331 81.2989C126.391 80.7285 123.713 79.3291 122.732 78.5894C121.984 79.5475 121.48 80.314 121.017 81.0003Z" fill="#28616B"/>
<path d="M121.806 80.9024C121.762 81.0138 121.82 81.1386 121.926 81.1787C122.038 81.2233 122.163 81.1653 122.203 81.0584C122.247 80.9469 122.189 80.8222 122.082 80.7821C121.975 80.7375 121.851 80.791 121.806 80.9024Z" fill="white"/>
<path d="M122.398 81.3614C122.353 81.4728 122.411 81.5976 122.518 81.6377C122.625 81.6778 122.754 81.6243 122.795 81.5173C122.839 81.4059 122.781 81.2812 122.674 81.241C122.563 81.1965 122.438 81.25 122.398 81.3614Z" fill="white"/>
<path opacity="0.2" d="M121.106 81.0895C121.681 81.5619 124.792 83.7411 126.209 84.677L127.305 82.6136L127.043 77.3772L125.559 83.2331L121.106 81.0895Z" fill="#1D1D1B"/>
<path d="M138.344 89.6417H125.42C125.589 87.6541 128.794 73.5269 128.794 73.5269L130.197 73.3041L134.422 72.6267C134.427 72.6223 138.371 87.8457 138.344 89.6417Z" fill="white"/>
<path d="M133.544 71.9938L133.196 68.4731C131.694 68.6514 129.68 68.8519 129.323 68.8252C129.323 68.8252 129.555 71.3877 129.559 72.4974C129.444 74.6142 131.881 74.7301 133.544 71.9938Z" fill="#F2C799"/>
<path d="M132.078 90.7201C132.047 92.1996 133.236 93.4163 134.716 93.4163H138.803C138.829 91.6916 138.714 83.8258 138.312 78.5137C138.295 78.2864 138.277 78.0591 138.259 77.8363C138.161 76.6018 138.094 75.452 137.992 74.3156L134.422 72.6177L134.235 72.6489C132.666 75.4743 132.216 84.2046 132.078 90.7201Z" fill="#28616B"/>
<path d="M127.104 74.5563L127.323 74.4226L128.793 73.5224L128.994 73.4912L128.392 91.3218C128.37 92.3869 127.456 93.2158 126.391 93.1356L125.152 93.0375C125.326 91.0499 127.082 75.5635 127.104 74.5563Z" fill="#28616B"/>
<path d="M130.442 74.0214L129.186 75.4609C128.994 74.5874 128.744 73.8655 128.842 73.3351L129.564 72.5508C129.493 73.1569 129.801 73.8209 130.442 74.0214Z" fill="#DADADA"/>
<path d="M130.442 74.0216L131.993 75.8131C133.049 74.7747 134.15 73.6205 134.427 72.6178L133.508 71.6106C133.508 72.5153 131.641 74.0706 130.442 74.0216Z" fill="#DADADA"/>
<path d="M132.385 83.251C133.16 80.4925 134.988 75.2917 134.988 75.2917C134.988 75.2917 133.771 74.6589 133.856 74.5653L135.193 74.6143L134.952 72.8763L133.726 71.8557C132.755 75.0466 132.3 79.7259 132.385 83.251Z" fill="#215159"/>
<path d="M128.669 83.1308C127.894 80.3722 127.466 75.1224 127.466 75.1224C127.466 75.1224 128.616 74.699 128.531 74.601L127.564 74.4851L128.308 73.215L129.324 72.8184C128.994 76.0048 128.754 79.6056 128.669 83.1308Z" fill="#215159"/>
<path d="M133.776 69.3109C134.048 68.6157 134.039 68.3127 134.053 67.555C133.901 64.1057 131.931 64.6137 130.652 64.6271C129.159 64.7118 127.76 65.7368 127.706 68.0319C127.787 68.2547 127.876 68.4419 127.876 68.4419L127.399 69.7298C127.319 69.9437 127.448 70.1755 127.671 70.22L128.001 70.3047C128.009 70.5365 127.992 71.5258 127.992 71.5258C128.018 72.1096 128.286 73.0187 129.061 72.9341C131.298 72.6979 132.141 71.6417 131.958 69.6719C132.506 69.6095 133.576 69.8234 133.776 69.3109Z" fill="#FFD2A1"/>
<path d="M133.416 70.8708C131.646 71.3699 132.368 68.7272 132.368 68.7272C132.368 68.7272 131.236 68.3662 130.893 68.3439C132.542 66.1379 132.293 64.3108 129.244 65.0327C128.821 64.5915 130.038 63.9141 131.562 64.186C133.264 64.4846 134.467 65.3046 134.712 67.0114C134.873 68.0854 135.015 70.1577 133.416 70.8708Z" fill="#312D2F"/>
<path d="M132.764 68.7583C132.769 69.2975 132.319 69.9259 131.967 69.9303C131.615 69.9348 131.579 69.4802 131.57 68.941C131.561 68.5845 131.539 68.0898 131.922 67.9739C132.261 67.8714 132.756 67.965 132.764 68.7583Z" fill="#FFD2A1"/>
<path opacity="0.2" d="M135.188 93.4163H138.803C138.829 91.6917 138.714 83.8259 138.312 78.5137L135.541 77.9299L136.24 82.7875L135.188 93.4163Z" fill="#1D1D1B"/>
<path d="M137.645 92.2888C137.64 92.2888 137.64 92.2844 137.636 92.2844C137.44 92.1685 137.199 92.2532 137.088 92.4626C136.66 93.2648 136.156 93.9912 135.604 94.633C135.461 94.8023 135.479 95.0519 135.639 95.2034L135.644 95.2079C135.804 95.3594 136.063 95.3505 136.214 95.1678C136.798 94.4948 137.328 93.7328 137.783 92.8994C137.903 92.6855 137.836 92.4047 137.645 92.2888Z" fill="#F2C799"/>
<path d="M137.711 90.8113L137.292 92.7542L139.422 93.2135L139.841 91.2706L137.711 90.8113Z" fill="#FFD2A1"/>
<path d="M136.165 96.3219C136.165 96.5225 136.005 96.6829 135.804 96.6829C135.604 96.6829 135.443 96.5225 135.443 96.3219C135.443 96.1214 135.604 95.9609 135.804 95.9609C136 95.9609 136.165 96.1258 136.165 96.3219Z" fill="#CF8051"/>
<path d="M145.538 107.593H130.314C129.962 107.593 129.677 107.307 129.677 106.955V97.3204C129.677 96.9683 129.962 96.6831 130.314 96.6831H145.538C145.89 96.6831 146.175 96.9683 146.175 97.3204V106.955C146.175 107.307 145.89 107.593 145.538 107.593Z" fill="#A45940"/>
<path d="M145.538 107.833H130.314C129.829 107.833 129.437 107.441 129.437 106.955V97.3203C129.437 96.8346 129.829 96.4424 130.314 96.4424H145.538C146.024 96.4424 146.416 96.8346 146.416 97.3203V106.955C146.416 107.441 146.019 107.833 145.538 107.833ZM130.314 96.9237C130.096 96.9237 129.918 97.1019 129.918 97.3203V106.955C129.918 107.174 130.096 107.352 130.314 107.352H145.538C145.756 107.352 145.935 107.174 145.935 106.955V97.3203C145.935 97.1019 145.756 96.9237 145.538 96.9237H130.314Z" fill="#CF8051"/>
<path d="M134.833 105.346V107.833H133.068V105.346C133.068 105.427 133.1 105.502 133.157 105.56L133.728 106.122C133.853 106.22 134.031 106.22 134.156 106.126L134.74 105.565C134.802 105.502 134.833 105.427 134.833 105.346Z" fill="#AD6B44"/>
<path d="M134.833 96.4424V105.342C134.833 105.422 134.802 105.502 134.74 105.556L134.156 106.117C134.027 106.216 133.853 106.216 133.728 106.113L133.157 105.552C133.1 105.498 133.068 105.418 133.068 105.338V96.4424H134.833Z" fill="#CF8051"/>
<path d="M134.833 104.749V105.342C134.833 105.422 134.802 105.502 134.74 105.556L134.156 106.117C134.027 106.215 133.853 106.215 133.728 106.113L133.157 105.551C133.1 105.498 133.068 105.418 133.068 105.337V104.74H134.833V104.749Z" fill="#CF8051"/>
<path d="M134.56 104.843H133.335C133.085 104.843 132.885 104.642 132.885 104.393V103.207C132.885 102.958 133.085 102.757 133.335 102.757H134.56C134.81 102.757 135.011 102.958 135.011 103.207V104.393C135.015 104.642 134.81 104.843 134.56 104.843ZM133.339 103.118C133.29 103.118 133.25 103.158 133.25 103.207V104.393C133.25 104.442 133.29 104.482 133.339 104.482H134.565C134.614 104.482 134.654 104.442 134.654 104.393V103.207C134.654 103.158 134.614 103.118 134.565 103.118H133.339Z" fill="#EDEDED"/>
<path d="M140.256 95.6758C140.145 95.7872 139.931 95.7426 139.762 95.6089C138.679 94.731 137.163 94.731 136.081 95.6089C135.911 95.7426 135.697 95.7872 135.586 95.6758C135.474 95.5644 135.537 95.3104 135.742 95.141C137.021 94.0982 138.817 94.0982 140.1 95.141C140.31 95.3059 140.368 95.5644 140.256 95.6758Z" fill="#A45940"/>
<path d="M137.27 93.0374H137.261C137.061 92.9928 136.865 93.122 136.82 93.3226L136.236 95.9207C136.192 96.1213 136.321 96.3174 136.522 96.3619H136.53C136.731 96.4065 136.927 96.2773 136.972 96.0767L137.555 93.4786C137.596 93.278 137.471 93.0775 137.27 93.0374Z" fill="#F2C799"/>
<path d="M137.775 94.2407H137.766C137.565 94.1962 137.369 94.3254 137.324 94.526L137.03 95.8807C136.986 96.0813 137.115 96.2774 137.316 96.3219H137.324C137.525 96.3665 137.721 96.2373 137.766 96.0367L138.06 94.6819C138.104 94.4858 137.975 94.2853 137.775 94.2407Z" fill="#F2C799"/>
<path d="M138.522 94.3076H138.513C138.313 94.2631 138.117 94.3923 138.072 94.5928L137.827 95.7293C137.783 95.9298 137.912 96.1259 138.112 96.1705H138.121C138.322 96.215 138.518 96.0858 138.562 95.8852L138.808 94.7488C138.852 94.5483 138.723 94.3522 138.522 94.3076Z" fill="#F2C799"/>
<path d="M139.218 94.4591H139.214C139.036 94.419 138.862 94.5349 138.822 94.7131L138.599 95.7203C138.559 95.8986 138.675 96.0724 138.853 96.1125H138.857C139.036 96.1526 139.209 96.0367 139.249 95.8585L139.468 94.8513C139.508 94.673 139.396 94.4948 139.218 94.4591Z" fill="#F2C799"/>
<path d="M139.605 94.2183L139.467 94.869C139.427 95.0472 139.253 95.1587 139.075 95.123H139.071C138.892 95.0829 138.781 94.9091 138.817 94.7308L138.79 94.8512C138.745 95.0517 138.549 95.1809 138.349 95.1364H138.34C138.139 95.0918 138.01 94.8957 138.054 94.6952L138.032 94.8066C137.988 95.0071 137.792 95.1364 137.591 95.0918H137.582C137.382 95.0472 137.252 94.8512 137.297 94.6506C137.252 94.8512 137.056 94.9804 136.856 94.9358H136.847C136.646 94.8913 136.517 94.6952 136.562 94.4946L136.753 93.6167L139.605 94.2183Z" fill="#FFD2A1"/>
<path d="M138.928 92.173L138.21 92.017C137.617 91.8878 137.038 92.2666 136.909 92.8548L136.722 93.7283L139.578 94.3433L139.765 93.4698C139.895 92.886 139.516 92.3022 138.928 92.173Z" fill="#FFD2A1"/>
<path d="M140.284 90.9653L137.293 90.4438L137.124 92.0125L140.056 92.5206L140.284 90.9653Z" fill="#EDEDED"/>
<path d="M137.074 83.0503C137.074 83.0503 135.496 78.2373 135.425 77.3237C135.358 76.4146 135.728 75.5277 136.329 74.8681C136.931 74.2086 137.733 73.9991 138.415 74.5562C138.936 74.9796 139.387 75.706 139.534 76.3789C140.051 78.7275 141.049 83.0414 141.036 83.1261C139.676 82.4175 137.074 83.0503 137.074 83.0503Z" fill="#28616B"/>
<path d="M137.074 83.0502C138.001 81.9985 140.14 82.1768 141.04 83.1305C141.036 85.0512 140.813 88.3045 140.314 92.0658L136.98 91.3929C137.172 88.8125 137.105 83.6519 137.074 83.0502Z" fill="#28616B"/>
<path d="M93.1501 89.851C93.1501 89.851 93.061 90.573 92.9005 91.6782C92.6777 93.2023 92.3301 95.444 91.9245 97.4984C91.8443 97.8995 91.7641 98.2961 91.6794 98.6794C91.5502 99.2632 91.421 99.8114 91.2828 100.306C91.2115 100.582 91.1313 100.841 91.0555 101.073C91.0288 101.148 91.0065 101.22 90.9842 101.291C90.8015 101.803 90.6188 102.182 90.4405 102.374C90.3425 102.476 90.2311 102.57 90.1063 102.65C89.7409 102.895 88.239 102.615 87.3834 102.16C87.0625 101.991 86.8352 101.799 86.7817 101.603C86.7773 101.585 86.7728 101.567 86.7684 101.549C86.755 101.5 86.7416 101.451 86.7372 101.402V101.385C86.6525 100.934 86.706 96.2461 86.7684 92.5249C86.7728 92.1283 86.7817 91.7406 86.7862 91.3752C86.8085 90.0649 86.8263 88.9776 86.8397 88.3893C86.8441 88.0862 86.8486 87.9169 86.8486 87.9169C86.8664 87.7386 93.1545 89.8065 93.1501 89.851Z" fill="#5E4A4C"/>
<path d="M92.2994 117.272C92.2816 117.303 92.2549 117.334 92.2192 117.348L91.7513 117.526C91.6176 117.579 91.475 117.611 91.3324 117.633L90.6193 117.726L90.5213 117.74L90.1692 117.78C90.1425 117.789 90.1113 117.789 90.0801 117.798L89.8617 117.838L88.1861 118.132L87.4507 118.261C86.5594 118.422 85.4319 118.279 84.8392 118.056C84.7724 118.034 84.7323 117.967 84.7367 117.896C84.7323 117.428 84.652 117.049 84.8838 116.835C85.1021 116.545 85.579 116.372 86.1494 116.122C86.2475 116.078 86.35 116.033 86.4525 115.984C86.9739 115.743 87.5131 115.596 87.7404 115.409C88.0568 115.151 88.3911 114.874 88.5827 114.513C88.5916 114.495 88.6005 114.482 88.6094 114.464C88.6629 114.357 88.7075 114.237 88.7298 114.108L91.2611 113.854C91.2611 113.876 91.2611 113.894 91.2655 113.916C91.2655 113.93 91.27 113.943 91.27 113.956C91.2923 114.143 91.3502 114.313 91.417 114.464C91.4304 114.5 91.4482 114.531 91.4616 114.562C91.5864 114.812 91.729 114.99 91.7557 115.053L91.7602 115.066C91.8627 115.289 92.3574 117.143 92.2994 117.272Z" fill="#362A2B"/>
<path d="M91.417 114.464C91.3858 114.473 91.3546 114.482 91.3234 114.491C91.2342 114.513 91.1407 114.527 91.0426 114.527H91.0382C91.0248 114.531 91.0025 114.531 90.9891 114.531L88.6093 114.513H88.5826C88.4757 114.509 88.3732 114.487 88.2796 114.442C88.0033 114.326 87.8027 114.059 87.7715 113.742L87.5621 111.184L86.7688 101.549L86.751 101.336L87.2768 101.318L89.6655 101.246L89.9329 101.237L90.9579 101.206C90.9668 101.233 90.9758 101.264 90.9847 101.291C91.007 101.371 91.0337 101.451 91.056 101.536C92.0097 104.758 92.3929 109.304 92.3261 113.021C92.4108 113.676 92.0097 114.268 91.417 114.464Z" fill="#5E4A4C"/>
<path d="M89.1349 91.2146C89.1349 91.2146 88.6447 91.482 87.8737 91.9098C87.5484 92.0881 87.174 92.2976 86.7685 92.5248C85.3602 93.3181 83.5509 94.3565 82 95.3146V88.9641C83.4662 87.9525 84.6784 87.1637 85.1329 86.8651C85.2533 86.7893 85.3201 86.7447 85.3201 86.7447C85.378 86.7002 86.0733 87.4801 86.8398 88.3892C87.9004 89.6459 89.1349 91.1745 89.1349 91.2146Z" fill="#5E4A4C"/>
<path d="M83.5509 80.167L83.4038 80.1536L82 80.1492V82.8988C83.3147 83.0771 84.3308 83.0459 84.772 82.676C85.9529 81.7936 85.3736 80.3141 83.5509 80.167Z" fill="#F0C997"/>
<path d="M87.3567 77.7159L87.5439 77.0251L88.199 74.6186C88.4352 73.7585 87.9272 72.8672 87.0626 72.631L87.0314 72.6221C86.5635 72.4928 86.0866 72.5864 85.7167 72.8315C85.4003 73.041 85.1552 73.3618 85.0438 73.7585L84.0723 77.3281C85.0661 77.8496 86.0732 78.3041 87.0804 78.7409L87.3567 77.7159Z" fill="#FBF7CF"/>
<path d="M84.0725 77.3237L83.1456 80.733C83.003 81.2499 83.1278 81.7758 83.4397 82.168C83.5378 82.2928 83.6536 82.4042 83.7873 82.4933C83.9344 82.5958 84.0993 82.676 84.282 82.725L84.3132 82.7339C84.5806 82.8053 84.8524 82.8097 85.102 82.7518C85.668 82.6225 86.1404 82.1947 86.3008 81.5931L87.0807 78.7364C86.0735 78.3042 85.0663 77.8451 84.0725 77.3237Z" fill="#F0C997"/>
<path d="M88.0918 72.1408C88.3547 72.0785 89.0678 71.6373 89.0678 71.6373L89.3084 70.1176C90.7301 70.3137 91.4832 67.9963 91.5278 68.0007C91.5723 68.0097 91.5723 68.7004 92.9895 68.9322L92.5394 71.967C92.5394 71.967 93.3728 72.6712 93.6001 72.8093L89.8432 78.1304L88.0918 72.1408Z" fill="#F0C997"/>
<path d="M96.9246 76.1295C96.9246 76.1562 96.9201 76.183 96.9157 76.2097L94.732 85.3411L93.1811 91.8164L92.9003 91.6783L86.5855 88.5899H86.581L83.9873 87.3198C84.4196 84.8464 84.4731 84.6459 84.5889 83.4916C84.5978 83.3891 84.6068 83.2822 84.6201 83.1619C84.6201 83.1351 84.6246 83.1128 84.629 83.0861C84.638 82.9925 84.6469 82.89 84.6558 82.7831C84.6602 82.743 84.6647 82.6984 84.6692 82.6538C84.6914 82.4043 84.7182 82.119 84.7494 81.7848C84.785 81.4105 84.8162 81.0361 84.843 80.6662C84.8608 80.5013 84.8697 80.332 84.8831 80.1671C84.9187 79.7125 84.9455 79.2624 84.9677 78.8168C84.9722 78.7989 84.9722 78.7811 84.9722 78.7633C84.99 78.438 85.0034 78.1126 85.0123 77.7962C85.0212 77.6625 85.0257 77.5288 85.0301 77.3951V77.3238C85.0569 76.33 85.0524 75.3719 85.0123 74.4494C85.0123 74.3558 85.0078 74.2622 85.0034 74.1686C85.1059 73.4957 85.4446 73.0055 86.0284 72.6712C86.0328 72.6712 86.0328 72.6712 86.0373 72.6668C86.2512 72.5509 86.4919 72.4528 86.7682 72.3726C87.6461 72.1275 88.6934 71.8111 88.8226 71.7755C88.8315 71.771 88.836 71.771 88.836 71.771C88.8182 73.5001 91.7996 73.9681 92.838 72.2166C92.838 72.2166 92.8469 72.2211 92.8602 72.23C93.0964 72.3682 94.9905 73.4689 95.757 73.9681C96.1759 74.2444 96.4834 74.543 96.6795 74.8772C96.8978 75.2515 96.9825 75.666 96.9246 76.1295Z" fill="#FBF7CF"/>
<path d="M93.4936 68.6914C93.8769 68.0274 93.9125 67.7199 94.0462 66.9534C94.425 63.4416 92.3527 63.6466 91.0559 63.4684C89.5318 63.3213 87.9542 64.1458 87.5486 66.4632C87.5932 66.7038 87.66 66.9044 87.66 66.9044L87.1876 67.8001C87.0762 68.0007 86.635 68.3839 87.1787 68.6736L87.4996 68.8118C87.4729 69.0479 87.4194 70.0016 87.4194 70.0016C87.5085 70.7994 87.7804 71.3297 88.8143 71.4634C91.1005 71.762 91.4882 70.8083 91.6041 68.785C92.1656 68.7939 93.2129 69.1772 93.4936 68.6914Z" fill="#FFD2A1"/>
<path d="M92.8873 70.2156C91.0201 70.4518 92.1609 67.8848 92.1609 67.8848C92.1609 67.8848 91.0691 67.4659 90.7215 67.3901C90.8641 66.1958 91.5994 64.4934 88.2258 64.7251C86.7596 62.6395 89.5271 62.7108 91.4613 63.0985C93.1948 63.4461 94.5229 64.5424 94.5051 66.3116C94.4962 67.4213 94.358 68.8786 92.8873 70.2156Z" fill="#362A2B"/>
<path d="M92.553 67.9739C92.4728 68.522 91.9202 69.088 91.5637 69.0345C91.2071 68.9811 91.2428 68.5176 91.3141 67.9694C91.3631 67.6084 91.4121 67.1049 91.8221 67.0469C92.1787 66.9979 92.6689 67.1717 92.553 67.9739Z" fill="#FFD2A1"/>
<path d="M87.446 68.8162C87.8783 68.8741 88.275 69.1326 88.5245 69.4891C88.7741 69.8456 88.8855 70.2913 88.8588 70.728C88.8409 70.982 88.7696 71.2539 88.5735 71.4232C88.3507 71.6149 88.0343 71.6282 87.7402 71.6282C87.4549 71.6327 87.1207 71.6059 86.9781 71.3608C86.8667 71.1692 86.9291 70.9241 86.9959 70.7102C87.0583 70.5096 87.1608 70.2734 87.3703 70.2512C87.5574 70.2289 87.7624 70.4027 87.9229 70.3046C88.0432 70.2333 88.0477 70.0506 87.9719 69.9347C87.8961 69.8189 87.7669 69.7476 87.6466 69.6807C87.5263 69.6139 87.397 69.5337 87.3391 69.4089C87.2455 69.2172 87.3346 68.9944 87.446 68.8162Z" fill="#362A2B"/>
<path opacity="0.2" d="M87.3835 102.16L87.8871 106.202L87.5617 111.184L86.7685 101.549C86.7551 101.5 86.7417 101.451 86.7373 101.402V101.384C86.6526 100.934 86.7061 96.246 86.7685 92.5248C85.3602 93.3181 83.5509 94.3565 82 95.3146V94.7798L86.2203 92.1371L85.0839 90.0381C85.3023 90.4258 85.9485 90.9116 86.7863 91.375C87.125 91.5578 87.4904 91.7405 87.8737 91.9098C88.6759 92.2619 89.5449 92.5694 90.3382 92.7477L87.3879 92.4981L87.2052 100.743L87.2765 101.318L87.3835 102.16Z" fill="#1D1D1B"/>
<path opacity="0.2" d="M91.4167 114.464C91.43 114.5 91.4478 114.531 91.4612 114.562C91.586 114.812 91.7286 114.99 91.7553 115.052L91.7598 115.066C91.8623 115.289 92.357 117.143 92.299 117.272C92.2812 117.303 92.2545 117.334 92.2188 117.348L91.7509 117.526C91.6172 117.579 91.4746 117.611 91.332 117.633L90.6189 117.726L90.5209 117.74L90.1688 117.78C90.1421 117.789 90.1109 117.789 90.0797 117.798L89.8613 117.838C90.2045 116.982 90.8106 116.225 90.3382 115.614C90.6056 115.342 90.8418 114.981 91.0379 114.527H91.0423C91.1225 114.339 91.1983 114.139 91.2651 113.916C91.3632 113.622 91.4479 113.297 91.5192 112.945C91.7331 108.952 91.5593 105.279 90.4407 102.374C90.2892 101.982 90.1243 101.603 89.9326 101.237C89.9282 101.228 89.9237 101.215 89.9193 101.206C91.3052 97.0972 91.996 93.3047 90.5164 90.5149L92.9007 91.678C92.6778 93.2022 92.3302 95.4438 91.9247 97.4983C91.8445 97.8993 91.7643 98.296 91.6796 98.6792C91.5503 99.263 91.4211 99.8112 91.283 100.306C91.2117 100.582 91.1314 100.841 91.0557 101.072C91.0289 101.148 91.0067 101.219 90.9844 101.291C91.0067 101.371 91.0334 101.451 91.0557 101.536C92.0094 104.758 92.3926 109.304 92.3258 113.02C92.4105 113.675 92.0094 114.268 91.4167 114.464Z" fill="#1D1D1B"/>
<path d="M91.5191 77.0608C90.5031 77.8229 89.4513 78.6161 88.3818 79.4539C88.2971 79.5208 88.2124 79.5876 88.1233 79.6545C87.4191 80.1893 87.2765 81.1875 87.798 81.9006C87.8024 81.9095 87.8113 81.9184 87.8158 81.9229L87.8336 81.9496C88.199 82.4354 88.7918 82.6537 89.3533 82.5735H89.3577C90.2446 82.4086 92.0584 81.348 93.5513 80.3274C93.119 79.142 92.4416 77.9967 91.5191 77.0608Z" fill="#FAD8AC"/>
<path opacity="0.1" d="M85.0656 82.4264L85.0567 80.8755L85.0522 80.1491L85.0344 77.805L85.03 77.395V77.3237L85.0121 74.4492L84.6957 77.6401L84.4372 80.216L84.4194 80.3942L84.21 82.5066L85.0701 82.6091C85.0656 82.5467 85.0656 82.4888 85.0656 82.4264Z" fill="#1D1D1B"/>
<path d="M96.1677 75.6168L96.1499 75.5901C95.6062 74.8771 94.5901 74.7344 93.877 75.2781C93.1283 75.853 92.3351 76.4457 91.5195 77.0563C92.442 77.9922 93.1194 79.1375 93.5517 80.3274C94.4564 79.7079 95.2452 79.1018 95.6374 78.7186C96.8584 77.5198 96.7069 76.3299 96.1677 75.6168Z" fill="#FBF7CF"/>
<path d="M89.7945 82.4486C89.3042 83.0414 87.0626 83.2464 84.6204 83.1617C83.747 83.1305 82.8512 83.0636 82 82.9611V80.4878L84.8834 80.1669L87.4191 79.8861L87.9316 79.8237C88.5466 79.7881 89.1973 81.0404 89.5449 81.8247C89.7009 82.1857 89.7945 82.4486 89.7945 82.4486Z" fill="#FAD8AC"/>
<path opacity="0.1" d="M96.5461 76.5349C95.579 77.5599 94.4649 78.5716 93.2126 79.5208C92.406 80.1447 91.537 80.7374 90.6189 81.2945C90.2758 81.504 89.9148 81.6822 89.5449 81.8248C89.0859 82.0075 88.6046 82.1457 88.1143 82.2348C87.9316 82.2705 87.7489 82.2972 87.5617 82.3195L85.5786 82.5468L85.1196 82.6003L85.0705 82.6092L84.6695 82.6537L84.2327 82.7028L84.1926 82.7072L82 82.9612C82.8512 83.0637 83.747 83.1306 84.6204 83.1618C84.6071 83.2777 84.5982 83.3802 84.5892 83.4782C84.567 83.4827 84.558 83.4871 84.5892 83.4916C84.4734 84.6458 84.4199 84.8464 83.9876 87.3197L86.5813 88.5898H86.5858L86.5679 88.5586C85.7702 87.0122 85.2845 85.3277 85.124 83.603C87.4904 84.0798 89.3443 83.8347 92.1787 82.0254C93.9301 83.7768 93.3329 87.9971 93.1814 91.8163L94.7323 85.341L96.916 76.2096C96.9204 76.1829 96.9249 76.1561 96.9249 76.1294C96.8001 76.2631 96.6753 76.4012 96.5461 76.5349Z" fill="#1D1D1B"/>
<path d="M105.404 102.247L104.428 96.9308C104.335 96.4094 103.943 95.9815 103.493 95.8345H94.9494C94.4949 95.9815 94.1072 96.4094 94.0136 96.9308L93.0376 102.247C92.8593 103.214 93.3317 104.039 94.1027 104.039H104.344C105.11 104.039 105.583 103.214 105.404 102.247Z" fill="#362A2B"/>
<path d="M97.4943 94.8985C97.4943 94.8674 97.521 94.8406 97.5522 94.8406H100.886C100.917 94.8406 100.944 94.8674 100.944 94.8985L100.975 95.8344H101.728L101.683 94.8985C101.666 94.4529 101.296 94.1008 100.863 94.1008H97.579C97.1467 94.1008 96.7768 94.4574 96.7545 94.8985L96.71 95.8344H97.4631L97.4943 94.8985Z" fill="#362A2B"/>
<path d="M99.4014 80.896L99.7178 85.2723L100.257 84.3364L100.787 84.6261L101.478 84.996L101.986 85.2723L102.098 83.9398L102.343 80.9896C102.08 81.0698 101.808 81.1233 101.536 81.1456C101.282 81.1723 101.037 81.1723 100.783 81.15C100.524 81.1366 100.266 81.0965 100.012 81.0475C99.8025 81.003 99.6019 80.9495 99.4014 80.896Z" fill="#FFC990"/>
<path d="M100.859 75.1561H100.886C101.67 75.1338 102.33 75.7488 102.352 76.5376L102.307 81.6582C101.354 82.0102 100.311 81.9568 99.3705 81.7339L99.2324 77.8969C99.1031 76.3638 100.075 75.1784 100.859 75.1561Z" fill="#EDEDED"/>
<path d="M97.579 93.6952C97.5166 93.8869 97.5701 94.181 97.6191 94.3726C97.7617 94.9252 97.9311 95.2416 98.1628 95.665C98.4436 96.1775 99.5176 95.2862 99.531 95.1703C99.5444 95.05 99.4998 94.9208 99.4017 94.8673C99.1745 94.747 99.3483 95.1258 99.1433 94.9653C99.072 94.9119 99.0452 94.8138 99.0274 94.7202C98.9784 94.4796 98.9828 94.1765 99.1789 94.0339C99.3126 93.9359 99.0096 93.9181 99.1655 93.8958C99.5666 93.8423 100.101 93.3476 100.191 92.9198C100.28 92.492 99.9232 92.1577 99.5755 91.9394C99.4196 91.8413 99.2235 91.7923 99.0541 91.8591C98.9249 91.9126 97.6548 93.4546 97.579 93.6952Z" fill="#FFC990"/>
<path d="M98.8447 92.171L100.084 92.6613L100.191 92.7058L102.57 86.2795C102.339 85.9185 102.468 84.1315 101.987 84.1003C101.666 84.078 100.837 83.2669 100.538 83.3471C100.017 83.4897 99.794 84.5905 99.7628 84.9247C99.6335 86.0879 98.8447 92.171 98.8447 92.171Z" fill="#FFC990"/>
<path opacity="0.1" d="M99.6693 90.5666L99.0811 93.5881L101.853 86.2126C101.947 85.816 101.982 85.2723 101.982 85.2723L100.783 77.3887V85.4461L99.6693 90.5666Z" fill="#131313"/>
<path d="M95.5729 118.607C95.4526 119.075 97.3244 119.039 97.5249 119.039L101.121 118.959C102.173 118.736 101.473 116.958 101.429 116.869C101.335 116.668 101.202 116.503 101.005 116.441L101.001 116.437C100.832 116.379 100.359 116.348 99.3699 116.766C99.3699 116.766 99.3699 116.766 99.3654 116.766C99.3565 116.771 99.3387 116.775 99.312 116.789C98.2959 117.212 97.565 117.439 96.6425 117.809C96.1345 118.01 95.7378 118.259 95.5729 118.607Z" fill="#16191E"/>
<path d="M97.1455 117.609C97.9299 118.175 99.0172 118.005 100.154 117.319C100.729 116.976 101.415 116.887 101.424 116.896C101.424 116.887 101.424 116.873 101.428 116.865C101.566 115.167 101.736 113.709 101.914 112.448C102.208 110.367 102.516 108.807 102.689 107.51C102.73 107.225 102.761 106.953 102.787 106.695C102.81 106.508 102.819 106.334 102.828 106.16C102.89 104.908 102.73 103.874 102.155 102.72C102.979 100.603 103.679 96.7745 104.173 94.1986C104.178 94.2789 104.178 94.3635 104.182 94.4438C104.205 94.9295 104.218 95.4019 104.24 95.8698C104.312 97.7639 104.378 99.4663 104.539 101.516C104.575 101.993 104.615 102.492 104.668 103.018C104.837 103.704 105.065 104.805 105.305 106.098C105.341 106.294 105.381 106.49 105.417 106.69C105.475 106.975 105.528 107.265 105.582 107.564C105.604 107.671 105.622 107.773 105.644 107.885C106.188 110.879 106.767 114.28 107.035 115.862H107.039L108.037 116.401L108.88 116.856C108.88 116.722 108.88 116.593 108.884 116.463V116.401C108.893 114.864 108.96 113.509 109.04 112.305C109.174 110.26 109.347 108.642 109.361 107.256C109.361 107.06 109.361 106.877 109.356 106.69C109.321 105.166 109.036 103.914 108.202 102.639C108.198 102.63 108.193 102.626 108.189 102.613C108.193 102.59 108.193 102.577 108.198 102.555C108.608 100.487 108.71 98.3655 108.982 93.9624C109.062 93.0934 108.051 86.7384 108.046 86.6894L107.908 86.6849L106.504 86.6136L103.777 86.471L102.926 86.4309L101.259 86.3418H101.246C101.232 86.3864 101.214 86.4354 101.201 86.4799C101.192 86.5111 101.174 86.5423 101.165 86.5735C99.659 90.834 98.937 95.0365 98.8301 98.6685C98.79 99.9832 98.6117 101.088 98.7499 102.359L98.9682 105.786L99.0262 106.686L99.0574 107.185L99.0707 107.439L99.6011 115.875C99.6322 116.183 99.454 116.477 99.1643 116.597C98.4869 116.869 97.7872 117.35 97.1455 117.609Z" fill="#FFC990"/>
<path d="M103.029 118.607C102.909 119.075 104.78 119.039 104.981 119.039L108.577 118.959C109.629 118.736 108.929 116.958 108.885 116.869C108.791 116.668 108.658 116.503 108.461 116.441L108.457 116.437C108.288 116.379 107.815 116.348 106.826 116.766C106.826 116.766 106.826 116.766 106.821 116.766C106.813 116.771 106.795 116.775 106.768 116.789C105.752 117.212 105.021 117.439 104.099 117.809C103.591 118.01 103.194 118.259 103.029 118.607Z" fill="#16191E"/>
<path d="M107.039 115.889L106.888 114.28H108.653C108.559 115.078 108.956 115.933 108.88 116.869C108.875 116.878 108.875 116.891 108.875 116.9C108.866 116.891 108.18 116.976 107.605 117.324C106.473 118.005 105.381 118.175 104.602 117.613C105.239 117.355 105.751 117.15 106.603 116.611C106.865 116.441 107.07 116.201 107.039 115.889Z" fill="#FFC990"/>
<path opacity="0.1" d="M109.358 106.699H105.418C105.494 107.087 105.569 107.488 105.645 107.894C107.361 108.121 108.399 109.026 109.041 112.314C109.197 109.988 109.402 108.214 109.358 106.699Z" fill="#131313"/>
<path opacity="0.1" d="M99.0098 106.699L99.0543 107.452C100.405 107.644 101.599 109.239 101.911 112.453C102.272 109.921 102.646 108.148 102.784 106.704H99.0098V106.699Z" fill="#131313"/>
<path d="M111.688 92.5277C111.764 92.3316 111.666 92.1132 111.47 92.0375C111.389 92.0063 111.3 92.0107 111.22 92.0464C111.14 92.082 111.082 92.1489 111.051 92.2291C110.979 92.8174 110.873 93.2719 110.565 93.7488C110.414 93.9716 110.266 94.3415 110.766 94.2301C110.766 94.2301 111.06 94.1231 111.22 93.6864L111.688 92.5277Z" fill="#EDBB86"/>
<path d="M97.1465 106.891C97.6456 106.998 98.2963 107.109 99.0405 107.198C100.115 107.337 101.385 107.443 102.69 107.51C103.657 107.564 104.647 107.586 105.583 107.573C107.04 107.564 108.377 107.47 109.362 107.265C109.794 107.172 110.16 107.06 110.431 106.922C110.489 100.986 110.035 96.3556 109.504 93.0355C109.326 91.8679 109.13 90.8518 108.938 89.9828C108.938 89.9739 108.938 89.9694 108.934 89.9561C108.658 88.686 108.404 87.7635 108.23 87.1752C108.23 87.1663 108.23 87.1618 108.225 87.1485C108.034 86.5156 107.918 86.1903 107.918 86.1725C108.502 84.4211 109.139 82.7944 109.353 81.2213C109.357 81.1633 109.366 81.1143 109.375 81.0564C109.451 80.4993 109.522 79.9467 109.602 79.3852C109.776 78.1908 110.231 77.6962 110.632 76.4038C110.088 75.6194 106.581 74.434 106.38 74.3538C106.376 74.3538 104.66 74.122 102.904 74.3939C101.977 74.7281 100.992 74.9465 100.574 75.2139C100.248 77.9368 100.734 82.4379 101.398 86.0031C101.358 86.1101 101.309 86.226 101.26 86.3552C101.238 86.3998 101.22 86.4488 101.197 86.4933C101.189 86.5245 101.171 86.5557 101.162 86.5869C100.422 88.3339 98.8088 92.0952 97.3158 105.42C97.2534 105.897 97.1955 106.387 97.1465 106.891Z" fill="#28616B"/>
<path d="M109.224 75.4902C110.169 75.8869 110.361 76.0206 110.628 76.3994C110.227 77.6918 110.102 78.2533 109.924 79.4476C109.835 80.0671 109.585 80.1206 109.505 80.7356C109.438 81.2169 109.331 81.511 109.202 82.0057C107.767 79.8532 108.048 77.3887 109.224 75.4902Z" fill="#EDEDED"/>
<path d="M103.974 80.9583C103.974 82.2284 104.932 83.2579 106.108 83.2579C107.289 83.2579 108.091 82.6652 108.167 81.1856C108.243 79.6526 106.652 78.6632 106.349 77.3084C106.077 76.0963 103.974 79.6882 103.974 80.9583Z" fill="#28616B"/>
<path opacity="0.07" d="M105.814 82.7453C107.058 82.7453 107.909 82.1259 107.989 80.575C107.998 80.4146 107.985 80.2675 107.963 80.116C108.105 80.4457 108.194 80.7978 108.172 81.1811C108.096 82.6651 107.294 83.2534 106.113 83.2534C105.302 83.2534 104.593 82.7676 104.232 82.0456C104.638 82.4779 105.199 82.7453 105.814 82.7453Z" fill="#1D1D1B"/>
<path d="M104.081 80.651C104.081 81.9211 103.123 82.9505 101.946 82.9505C100.765 82.9505 99.9631 82.3578 99.8874 80.8783C99.8116 79.3452 101.403 78.3559 101.706 77.0011C101.982 75.7889 104.081 79.3853 104.081 80.651Z" fill="#28616B"/>
<path opacity="0.07" d="M102.245 82.4379C101.001 82.4379 100.15 81.8185 100.07 80.2676C100.061 80.1072 100.074 79.9601 100.097 79.8086C99.954 80.1384 99.8649 80.4904 99.8872 80.8737C99.963 82.3577 100.765 82.946 101.946 82.946C102.757 82.946 103.466 82.4602 103.827 81.7383C103.421 82.1705 102.86 82.4379 102.245 82.4379Z" fill="#1D1D1B"/>
<path d="M111.189 91.8858L112.673 91.8591L113.132 83.7215C112.931 83.1199 112.584 82.7722 111.799 82.8168H111.772C110.988 82.8614 110.386 83.5343 110.431 84.3187L111.189 91.8858Z" fill="#FFC990"/>
<path d="M111.822 95.1122C111.871 95.4063 111.635 95.491 111.635 95.491C111.421 95.5266 111.336 95.3974 111.305 95.2058L111.024 93.8822C110.998 93.7084 111.109 93.539 111.278 93.5034H111.283C111.479 93.4633 111.666 93.5925 111.702 93.7975L111.822 95.1122Z" fill="#EDBB86"/>
<path d="M112.335 95.1391C112.353 95.4332 112.108 95.4956 112.108 95.4956C111.912 95.5268 111.823 95.3663 111.814 95.1702L111.689 93.8244C111.68 93.6506 111.814 93.4946 111.987 93.4768H111.992C112.192 93.4589 112.362 93.6105 112.371 93.8155L112.335 95.1391Z" fill="#EDBB86"/>
<path d="M112.816 94.9473C112.807 95.2281 112.571 95.2682 112.571 95.2682C112.366 95.2949 112.308 95.1211 112.317 94.9384L112.308 93.6505C112.317 93.4811 112.455 93.3474 112.62 93.3474H112.624C112.816 93.3474 112.967 93.5034 112.958 93.6995L112.816 94.9473Z" fill="#EDBB86"/>
<path d="M113.306 94.7335C113.279 94.9964 113.056 95.0142 113.056 95.0142C112.864 95.041 112.82 94.8583 112.842 94.6889L112.918 93.4812C112.936 93.3252 113.074 93.2093 113.23 93.2183H113.234C113.413 93.2316 113.542 93.3876 113.524 93.5703L113.306 94.7335Z" fill="#EDBB86"/>
<path d="M111.06 94.0695L111.029 93.86C110.699 92.6256 111.211 91.6897 111.207 91.6674L111.202 91.6451L111.145 91.3421C111.376 90.9856 111.51 90.785 111.746 90.4285L112.406 90.2859L112.432 90.2814C112.464 90.277 112.49 90.2948 112.495 90.326L112.7 91.3777C112.7 91.3822 112.704 91.3911 112.709 91.3956C112.713 91.4089 112.731 91.4223 112.744 91.4223C113.337 91.9927 113.498 93.3297 113.498 93.3297L113.52 93.45C113.547 93.606 113.426 93.7486 113.27 93.7709H113.266C113.114 93.7976 112.963 93.6907 112.941 93.5302L112.958 93.6372C112.99 93.8155 112.869 93.9893 112.691 94.0205H112.687C112.513 94.0517 112.348 93.9313 112.321 93.7486L112.334 93.8467C112.361 94.0294 112.245 94.1987 112.072 94.2299H112.067C111.893 94.2611 111.728 94.1408 111.702 93.9581C111.728 94.1408 111.612 94.3101 111.434 94.3413H111.43C111.252 94.377 111.087 94.2522 111.06 94.0695Z" fill="#FFC990"/>
<path opacity="0.15" d="M106.202 86.3775C106.305 86.4533 106.403 86.538 106.501 86.6226C107.022 87.0906 107.468 87.7279 107.864 88.4855C108.105 88.9534 108.332 89.4748 108.542 90.0319C108.542 90.0363 108.542 90.0408 108.546 90.0453C108.725 90.5399 108.903 91.0613 109.059 91.6095C109.21 92.1265 109.353 92.6657 109.487 93.2138L109.5 93.0267C109.322 91.8591 109.126 90.843 108.934 89.974C108.934 89.965 108.934 89.9606 108.93 89.9472C108.653 88.6771 108.399 87.7546 108.225 87.1663C108.225 87.1574 108.225 87.153 108.221 87.1396C108.029 86.5068 107.913 86.1815 107.913 86.1636C108.497 84.4122 109.135 82.7856 109.348 81.2124C109.353 81.1545 109.362 81.1055 109.371 81.0475L108.618 77.665C108.261 81.2347 107.936 84.1404 106.202 86.3775Z" fill="#131313"/>
<path d="M109.486 82.0727L110.863 85.6111L111.091 85.424L113.132 83.7216L112.258 81.0789C111.634 81.578 110.872 81.8543 110.11 81.9924C109.901 82.0281 109.691 82.0548 109.486 82.0727Z" fill="#FFC990"/>
<path d="M108.992 80.7981L109.349 81.7162L109.487 82.0771C109.692 82.0549 109.901 82.0326 110.111 81.9925C110.877 81.8543 111.635 81.578 112.259 81.0789L110.846 76.7917C110.316 75.5795 109.438 75.7934 109.019 75.9494C108.475 77.3621 108.431 78.9665 108.992 80.7981Z" fill="#EDEDED"/>
<path d="M101.523 69.1533L102.985 68.1461L103.622 65.0444C100.988 64.8795 99.3838 67.4732 101.523 69.1533Z" fill="#362A2B"/>
<path d="M103.033 74.3718L103.318 72.9145C104.718 70.8868 105.204 70.8066 106.67 70.8199V74.4564L104.228 75.9182L103.033 74.3718Z" fill="#EDBB86"/>
<path d="M107.695 71.3235C108.029 70.5971 108.23 69.7459 108.292 68.9393C108.341 65.2537 105.752 65.3117 104.388 65.2493C100.828 65.2537 101.193 69.1443 101.193 69.1443L100.698 70.3609C100.578 70.6194 100.819 70.811 101.015 70.9135C101.153 70.9848 101.233 71.1274 101.22 71.2834C101.189 71.7201 101.318 72.4376 101.318 72.4376C101.451 73.1418 102.004 73.4894 102.757 73.5072C102.757 73.5072 104.624 73.4181 105.284 71.1274C105.872 71.0873 107.45 71.8583 107.695 71.3235Z" fill="#FFC990"/>
<path d="M107.455 73.7434C103.002 74.7372 106.389 69.7593 105.962 69.7281C103.158 69.5231 104.473 66.5951 101.567 66.8313C101.559 66.0693 102.089 64.7546 105.164 65.0398C107.209 65.2314 108.609 66.35 108.854 68.1772C109.099 69.9554 110.32 72.8209 107.455 73.7434Z" fill="#362A2B"/>
<path d="M106.372 69.9867C106.345 70.5616 105.824 71.2033 105.449 71.1855C105.071 71.1676 105.137 70.6997 105.16 70.1248C105.173 69.7416 105.106 69.1979 105.525 69.0954C105.891 69.0107 106.412 69.1444 106.372 69.9867Z" fill="#FFC990"/>
<path d="M103.809 67.8518C103.702 67.3438 103.332 66.9516 102.922 66.7332C102.512 66.5149 102.053 66.448 101.608 66.3812C101.536 66.3723 101.461 66.3589 101.389 66.3767C101.318 66.3945 101.247 66.448 101.225 66.5282C101.193 66.6352 101.251 66.7466 101.314 66.8313C101.799 67.4953 102.205 67.8518 102.985 68.1415C103.328 68.2707 103.622 68.81 103.64 69.2021C103.791 68.7743 103.907 68.3019 103.809 67.8518Z" fill="#362A2B"/>
<path d="M105.275 77.157L107.597 74.7862L106.675 74.0286L104.232 75.9181L105.275 77.157Z" fill="#EDEDED"/>
<path d="M103.086 76.9521L102.173 74.6347L103.118 73.9573L104.232 75.9181L103.086 76.9521Z" fill="#EDEDED"/>
</g>
<defs>
<linearGradient id="paint0_linear_44_22059" x1="29.4947" y1="135" x2="29.4947" y2="30" gradientUnits="userSpaceOnUse">
<stop offset="0.0104" stop-color="#004954"/>
<stop offset="1" stop-color="#004954"/>
</linearGradient>
</defs>
</svg>
