<svg width="139" height="139" viewBox="0 0 139 139" fill="none" xmlns="http://www.w3.org/2000/svg">
<circle cx="69.5" cy="69.5" r="68.5" fill="white" stroke="#047267" stroke-width="2"/>
<mask id="mask0_44_17122" style="mask-type:alpha" maskUnits="userSpaceOnUse" x="2" y="2" width="135" height="135">
<circle cx="69.5" cy="69.5" r="67.5" fill="#ECECEC"/>
</mask>
<g mask="url(#mask0_44_17122)">
<path d="M120.195 54.312L119.475 100.028L116.341 124.638L109.422 124.566L107.085 124.54L95.9784 124.421L95.0425 109.415L93.7109 57.0007L120.195 54.312Z" fill="#D5D6DA"/>
<path d="M148.571 124.905H143.32L128.266 124.763L128.482 104.042L128.998 57.4626L146.759 61.7123L147.943 104.042L148.571 124.905Z" fill="#D5D6DA"/>
<path d="M92.355 87.813V124.311L82.9347 124.19L64.0821 123.951L62.7324 81.6868L92.355 87.813Z" fill="#D5D6DA"/>
<path d="M72.4652 124.058L64.8037 123.965L57.3294 123.873L53.9326 123.832L54.1228 100.28L54.5954 41.96L70.8272 48.3609L71.9081 100.28L72.4652 124.058Z" fill="#D5D6DA"/>
<path d="M88.526 57.4626L88.5245 57.6061L88.052 124.255L87.2519 124.244L82.9342 124.185L80.1731 124.147L75.6426 124.087L75.9626 94.9611L76.3264 61.3334L88.526 57.4626Z" fill="#D5D6DA"/>
<path d="M134.281 65.5664L132.447 65.3067L132.346 61.7092L134.281 61.5779V65.5664Z" fill="white"/>
<path d="M114.007 88.3791L112.171 88.0696L112.071 83.8078L114.007 83.6523V88.3791Z" fill="white"/>
<path d="M61.0174 55.9172L59.1817 55.6077L59.082 51.346L61.0174 51.189V55.9172Z" fill="white"/>
<path d="M86.0008 66.8532L84.1666 66.5437L84.0654 62.282L86.0008 62.1265V66.8532Z" fill="white"/>
<path d="M98.6414 76.6855L96.8057 76.376L96.7061 72.1142L98.6414 71.9587V76.6855Z" fill="white"/>
<path d="M69.2839 146.986C129.288 146.986 177.931 141.13 177.931 133.908C177.931 126.685 129.288 120.829 69.2839 120.829C9.27973 120.829 -39.3633 126.685 -39.3633 133.908C-39.3633 141.13 9.27973 146.986 69.2839 146.986Z" fill="#EAEAEA"/>
<path d="M40.25 26.5632C40.25 26.5632 38.1078 21.1994 32.6851 21.8712C27.2639 22.543 27.9085 27.9204 25.327 27.4162C22.7455 26.912 19.1298 27.4162 18.3554 30.7767C17.5809 34.1372 14.0951 32.2894 13.9668 35.1456C13.8385 38.0019 17.9689 40.0188 22.7455 37.4977C27.522 34.9766 29.8454 39.4557 36.5588 38.645C43.2723 37.8344 44.1026 36.8259 48.076 37.3301C52.0495 37.8344 51.9544 34.2927 50.1473 31.9406C48.3402 29.5871 41.0244 29.8105 40.25 26.5632Z" fill="#EAEAEA"/>
<path d="M73.1999 13.903C73.1999 13.903 70.9882 8.36708 65.3934 9.06002C59.7971 9.75295 60.4644 15.3025 57.7998 14.7831C55.1353 14.2623 51.4049 14.7831 50.6048 18.2508C49.8047 21.7185 46.2087 19.8118 46.0743 22.7602C45.9415 25.7085 50.2047 27.7889 55.1338 25.1877C60.0628 22.5866 62.4617 27.2092 69.3895 26.3713C76.3173 25.5349 77.1763 24.4933 81.2766 25.0141C85.3768 25.5349 85.2802 21.8801 83.4142 19.4525C81.5498 17.025 74 17.256 73.1999 13.903Z" fill="#EAEAEA"/>
<path d="M97.7094 31.6022C97.7094 31.6022 96.0579 28.4258 91.8806 28.8244C87.7019 29.2229 88.2001 32.4053 86.2104 32.1079C84.2206 31.809 81.4353 32.1079 80.839 34.0976C80.2427 36.0874 77.5555 34.9929 77.4574 36.6837C77.3577 38.3745 80.5416 39.5686 84.2221 38.0771C87.9027 36.5856 89.6932 39.2365 94.8668 38.7564C100.04 38.2764 100.68 37.6801 103.742 37.9775C106.804 38.2764 106.731 36.1795 105.338 34.786C103.944 33.3926 98.3073 33.5255 97.7094 31.6022Z" fill="#EAEAEA"/>
<path d="M5.08878 79.7966L4.76873 79.9506C4.74457 79.9023 2.30648 74.9929 -3.41363 69.0765C-8.6914 63.6176 -17.9245 56.1584 -31.9326 51.6279L-31.8224 51.2927C-17.7358 55.8489 -8.45287 63.3519 -3.14491 68.8455C2.60841 74.7981 5.06462 79.7468 5.08878 79.7966Z" fill="#D5D6DA"/>
<path d="M12.6237 103.825C12.6237 103.825 -11.8026 54.6806 -25.0046 61.7519C-38.2066 68.8231 -1.27726 91.0876 5.37581 105.617L12.6237 103.825Z" fill="#D5D6DA"/>
<path d="M3.6408 120.772C-1.91927 120.666 3.91858 126.257 -2.73298 126.435C-11.0421 125.71 -14.451 121.867 -15.636 119.989C-16.252 119.013 -16.9751 118.109 -17.8145 117.318C-20.3613 114.916 -21.0663 115.586 -28.9829 116.98C-35.6994 118.159 -36.4875 112.294 -39.3377 108.049C-39.389 107.972 -39.4419 107.895 -39.4947 107.818C-40.5952 106.246 -42.0068 104.925 -44.155 104.314C-46.4331 103.666 -48.761 102.676 -50.799 101.439C-50.9681 101.338 -51.1357 101.233 -51.3018 101.125C-55.3416 98.5333 -58.065 94.9659 -56.5976 91.2763C-56.5629 91.1888 -56.5267 91.1012 -56.4874 91.0152C-56.2127 90.4053 -55.8202 89.7908 -55.2993 89.1779C-49.8751 82.7996 -44.3754 85.0686 -38.0288 86.0499C-34.5204 86.5919 -29.5128 82.1655 -24.5959 80.0611C-24.5249 80.0309 -24.454 80.0007 -24.3845 79.972C-20.4805 78.3552 -16.646 78.2691 -13.6795 83.3718C-13.6795 83.3733 -13.678 83.3733 -13.678 83.3733C-13.6176 83.4774 -13.5572 83.5801 -13.4984 83.6797C-6.86794 94.9161 -3.58442 90.8718 5.75282 92.9521C7.48893 93.34 9.05293 93.7703 10.0855 94.6852C19.7142 103.222 13.2513 115.029 3.6408 120.772Z" fill="#D5D6DA"/>
<path d="M4.44714 109.803L4.78078 109.375C4.59056 109.229 -14.715 94.7392 -56.5718 91.0073L-56.6201 91.5463C-14.9218 95.2646 4.25692 109.658 4.44714 109.803Z" fill="white"/>
<path d="M-0.0790644 132.342L-5.18021 132.31C-8.23576 132.686 -10.8867 129.736 -10.8867 125.962V35.1287C-10.8867 31.3712 -8.25689 28.4273 -5.21342 28.7776H1.09545C3.76302 29.084 42.0163 36.729 42.0163 40.0215V120.729C42.0178 124.005 2.57341 132.016 -0.0790644 132.342Z" fill="#364154"/>
<path d="M43.6525 127.076L1.12839 132.309C-1.92716 132.684 -4.57812 129.735 -4.57812 125.96V35.1287C-4.57812 31.3712 -1.94829 28.4273 1.09518 28.7776L43.6193 33.6689C46.2868 33.9753 48.3249 36.7275 48.3249 40.02V120.728C48.3264 124.005 46.3065 126.75 43.6525 127.076Z" fill="#364154"/>
<path d="M45.7695 41.4905V114.508C45.7695 117.473 43.9851 119.957 41.6421 120.251L20.3076 122.94L4.08177 124.984C1.3825 125.323 -0.958984 122.656 -0.958984 119.241V37.0642C-0.958984 33.6629 1.36438 31.0014 4.05309 31.3169L33.0431 34.7333L41.6134 35.7432C43.6439 35.9833 45.2638 37.8673 45.6699 40.2934C45.7348 40.6798 45.7695 41.0799 45.7695 41.4905Z" fill="#EAEAEA"/>
<path d="M42.8823 58.5844V112.999C42.8823 115.209 41.362 117.058 39.3648 117.278L21.1854 119.283L7.35997 120.808C5.06076 121.062 3.06348 119.073 3.06348 116.528V55.2873C3.06348 52.7525 5.04264 50.7688 7.33431 51.0044L32.0369 53.5511L39.3406 54.303C41.0707 54.4811 42.4505 55.8866 42.7977 57.6937C42.8536 57.982 42.8823 58.2794 42.8823 58.5844Z" fill="#B8C1C9"/>
<path d="M15.8426 119.872L13.7939 120.098C14.3812 112.186 16.4691 104.9 19.5608 99.1789C22.0488 94.5759 25.3278 90.7308 29.3087 87.7522C36.1007 82.6692 42.6134 81.7861 42.8821 81.7559V83.7018C42.8202 83.7094 36.7227 84.4325 30.3157 89.2574C26.5642 92.0834 23.4694 95.7293 21.1203 100.097C18.1689 105.58 16.4087 112.243 15.8426 119.872Z" fill="#EAEAEA"/>
<path d="M26.6685 90.9861C26.6081 90.894 20.5574 81.8179 17.9034 79.5353C13.6824 75.9061 3.16915 76.7379 3.06348 76.7454V74.9248C3.52241 74.887 14.2878 74.0401 19.0825 78.163C21.9237 80.6072 27.92 89.6017 28.1737 89.9836L26.6685 90.9861Z" fill="#EAEAEA"/>
<path d="M32.4814 73.48L30.8496 74.2563L35.9239 84.9222L37.5556 84.1459L32.4814 73.48Z" fill="#EAEAEA"/>
<path d="M3.06348 100.275V98.4664L20.2676 97.7402L20.3446 99.5473L3.06348 100.275Z" fill="#EAEAEA"/>
<path d="M33.9008 117.882L32.0771 118.083L32.1345 86.5688H33.9416L33.9008 117.882Z" fill="#EAEAEA"/>
<path d="M32.9994 107.559L16.6191 108.196L16.6893 110.001L33.0695 109.365L32.9994 107.559Z" fill="#EAEAEA"/>
<path d="M10.0131 75.7417H8.20605V99.1158H10.0131V75.7417Z" fill="#EAEAEA"/>
<path d="M5.0049 70.8731C3.81831 70.8731 3.13292 70.8761 3.06348 70.8731V69.0359C3.2235 69.0419 19.2818 69.6246 27.9366 64.83C30.4744 63.4245 31.8965 61.1796 32.1637 58.1573C32.369 55.8429 31.8014 53.9589 31.7968 53.9393L33.5254 53.4109C33.5526 53.5015 34.2002 55.6558 33.9647 58.3173C33.6462 61.9224 31.8633 64.7213 28.8122 66.4121C24.9747 68.5377 19.4629 69.9281 12.4294 70.547C9.3648 70.8173 6.70629 70.8731 5.0049 70.8731Z" fill="#EAEAEA"/>
<path d="M18.892 69.0962L17.085 69.0555L17.4473 52.0461L19.3389 52.2409L18.892 69.0962Z" fill="#EAEAEA"/>
<path d="M20.2018 80.2572L18.4385 78.2841L42.8829 68.7551V71.545L20.2018 80.2572Z" fill="#EAEAEA"/>
<path d="M34.925 51.8349C31.8694 52.0175 30.3718 54.3228 30.162 57.3814C29.9522 60.4082 33.2175 64.8225 34.8314 66.8031C35.2812 67.3602 36.1282 67.3602 36.5826 66.8122C38.1466 64.9176 41.2474 60.7887 41.2474 57.8373C41.2474 54.7727 38.7218 51.6069 34.925 51.8349ZM35.313 60.917C33.5482 60.846 32.2348 59.5885 32.2348 57.8222C32.2348 56.0559 32.979 54.7908 35.5137 54.3575C37.6831 53.9876 38.7218 55.9623 38.8591 57.724C39.0237 59.8602 37.7314 61.0196 35.313 60.917Z" fill="#131F2D"/>
<path d="M34.092 72.6151L29.2656 65.0608L31.2735 63.7625L36.2765 71.7621L34.092 72.6151Z" fill="#EAEAEA"/>
<path d="M23.5225 85.4066C23.3836 85.4066 23.2478 85.3432 23.1587 85.2239L22.7994 84.7408C22.65 84.54 22.6922 84.2577 22.893 84.1083C23.0938 83.9588 23.3761 84.0011 23.5256 84.2018L23.8849 84.6849C24.0343 84.8857 23.992 85.168 23.7913 85.3175C23.7097 85.3779 23.6161 85.4066 23.5225 85.4066Z" fill="#047267"/>
<path d="M22.4615 83.98C22.3226 83.98 22.1868 83.9166 22.0977 83.7974L21.3972 82.8538C21.2477 82.653 21.29 82.3707 21.4908 82.2213C21.6916 82.0733 21.9739 82.1141 22.1233 82.3149L22.8238 83.2584C22.9733 83.4592 22.931 83.7415 22.7302 83.891C22.6502 83.9498 22.5551 83.98 22.4615 83.98ZM21.059 82.0915C20.9217 82.0915 20.7843 82.028 20.6952 81.9088L19.9947 80.9652C19.8453 80.7645 19.8875 80.4822 20.0883 80.3327C20.2891 80.1848 20.5714 80.2255 20.7209 80.4263L21.4214 81.3698C21.5708 81.5706 21.5285 81.8529 21.3278 82.0024C21.2477 82.0628 21.1526 82.0915 21.059 82.0915Z" fill="#047267"/>
<path d="M19.6578 80.2029C19.5204 80.2029 19.383 80.1395 19.2939 80.0202L18.9346 79.5371C18.8501 79.4239 18.8244 79.2775 18.8637 79.1416C18.9029 79.0057 19.0041 78.897 19.1354 78.8457L19.6985 78.6298C19.931 78.5407 20.1937 78.657 20.2828 78.8895C20.3718 79.122 20.2556 79.3831 20.0231 79.4737L20.0155 79.4767L20.0201 79.4828C20.1695 79.6836 20.1273 79.9659 19.9265 80.1153C19.845 80.1742 19.7514 80.2029 19.6578 80.2029Z" fill="#047267"/>
<path d="M21.0342 79.0509C20.853 79.0509 20.6809 78.9407 20.613 78.761C20.5239 78.5286 20.6401 78.2674 20.8726 78.1768L22.0471 77.7254C22.2796 77.6364 22.5423 77.7526 22.6314 77.9851C22.7205 78.2176 22.6042 78.4787 22.3717 78.5693L21.1972 79.0207C21.1444 79.0418 21.0885 79.0509 21.0342 79.0509ZM23.3847 78.1466C23.2035 78.1466 23.0314 78.0364 22.9635 77.8568C22.8744 77.6243 22.9907 77.3631 23.2232 77.2725L24.3977 76.8211C24.6302 76.7321 24.8929 76.8483 24.9819 77.0808C25.071 77.3133 24.9548 77.5745 24.7223 77.665L23.5477 78.1164C23.4934 78.1376 23.439 78.1466 23.3847 78.1466ZM25.7352 77.2423C25.5541 77.2423 25.382 77.1321 25.3141 76.9525C25.225 76.72 25.3412 76.4588 25.5737 76.3682L26.7482 75.9168C26.9807 75.8278 27.2419 75.944 27.3325 76.1765C27.4215 76.409 27.3053 76.6702 27.0728 76.7607L25.8983 77.2121C25.8439 77.2333 25.7896 77.2423 25.7352 77.2423ZM28.0858 76.3395C27.9046 76.3395 27.7325 76.2293 27.6646 76.0497C27.5755 75.8172 27.6918 75.5545 27.9243 75.4655L29.0988 75.0141C29.3313 74.925 29.5939 75.0412 29.683 75.2737C29.7721 75.5062 29.6558 75.7689 29.4233 75.858L28.2488 76.3094C28.1945 76.329 28.1401 76.3395 28.0858 76.3395ZM30.4363 75.4353C30.2552 75.4353 30.0831 75.3251 30.0151 75.1454C29.9261 74.9129 30.0423 74.6502 30.2748 74.5612L31.4493 74.1098C31.6818 74.0207 31.9445 74.137 32.0335 74.3694C32.1226 74.6019 32.0064 74.8646 31.7739 74.9537L30.5994 75.4051C30.545 75.4247 30.4907 75.4353 30.4363 75.4353ZM32.7869 74.531C32.6057 74.531 32.4336 74.4208 32.3657 74.2411C32.2766 74.0086 32.3928 73.7475 32.6253 73.6569L33.7999 73.2055C34.0323 73.1164 34.2935 73.2327 34.3841 73.4652C34.4732 73.6976 34.3569 73.9588 34.1244 74.0494L32.9499 74.5008C32.8956 74.5219 32.8412 74.531 32.7869 74.531Z" fill="#047267"/>
<path d="M35.1377 73.6269C34.9565 73.6269 34.7844 73.5167 34.7165 73.3371C34.6274 73.1046 34.7437 72.8434 34.9761 72.7528L35.0245 72.7347L34.9973 72.6909C34.8629 72.4796 34.9263 72.2003 35.1377 72.0674C35.349 71.9346 35.6283 71.9965 35.7612 72.2078L36.0842 72.7166C36.1567 72.8313 36.1748 72.9717 36.131 73.1C36.0888 73.2284 35.9906 73.331 35.8638 73.3793L35.3007 73.5952C35.2464 73.6179 35.192 73.6269 35.1377 73.6269Z" fill="#047267"/>
<path d="M34.6524 71.7562C34.503 71.7562 34.3565 71.6822 34.2705 71.5463L33.5443 70.4005C33.41 70.1891 33.4734 69.9099 33.6847 69.777C33.8961 69.6427 34.1754 69.7061 34.3082 69.9174L35.0344 71.0632C35.1687 71.2746 35.1053 71.5539 34.894 71.6867C34.8185 71.7335 34.7354 71.7562 34.6524 71.7562ZM33.2001 69.4645C33.0507 69.4645 32.9042 69.3905 32.8182 69.2547L32.092 68.1088C31.9577 67.8975 32.0211 67.6182 32.2324 67.4853C32.4438 67.351 32.7231 67.4144 32.8559 67.6257L33.5821 68.7716C33.7164 68.9829 33.653 69.2622 33.4417 69.3951C33.3662 69.4419 33.2816 69.4645 33.2001 69.4645Z" fill="#047267"/>
<path d="M31.7454 67.1747C31.5959 67.1747 31.4495 67.1007 31.3634 66.9648L31.0403 66.4561C30.906 66.2447 30.9694 65.9654 31.1792 65.8326C31.3906 65.6982 31.6699 65.7616 31.8027 65.9715L32.1258 66.4802C32.2602 66.6916 32.1967 66.9709 31.9869 67.1037C31.9129 67.152 31.8284 67.1747 31.7454 67.1747Z" fill="#047267"/>
<path d="M29.8545 64.7076C29.8545 64.2834 30.1987 63.9392 30.6229 63.9392C31.0471 63.9392 31.3913 64.2834 31.3913 64.7076C31.3913 65.1318 31.0471 65.476 30.6229 65.476C30.1987 65.476 29.8545 65.1318 29.8545 64.7076Z" fill="#131F2D"/>
<path d="M23.8105 86.1311C23.8105 85.7869 24.0898 85.5076 24.434 85.5076C24.7782 85.5076 25.0575 85.7869 25.0575 86.1311C25.0575 86.4753 24.7782 86.7545 24.434 86.7545C24.0898 86.7545 23.8105 86.4753 23.8105 86.1311Z" fill="#131F2D"/>
<path d="M109.126 73.4875C109.118 73.4875 109.111 73.4875 109.102 73.4875C107.995 73.4799 106.962 72.9833 106.269 72.1243C103.643 68.9026 99.861 63.9298 96.7692 58.5434C93.0252 52.0201 91.2725 46.6019 91.5608 42.4383C91.902 37.4579 93.3392 33.249 95.7184 30.2689C98.3407 26.9824 102.02 25.1738 106.651 24.8976C109.367 24.7345 111.977 25.115 114.407 26.0268C116.67 26.8752 118.726 28.163 120.521 29.8538C124.364 33.4755 126.66 38.717 126.66 43.877C126.66 47.9395 124.808 53.1237 121.153 59.2846C118.12 64.3993 114.482 69.1065 111.965 72.1545C111.263 73.0014 110.229 73.4875 109.126 73.4875ZM106.668 25.1451C102.109 25.4184 98.4902 27.1938 95.9132 30.4229C93.5657 33.3652 92.1466 37.5244 91.8099 42.4549C91.5246 46.5687 93.2668 51.9386 96.985 58.4181C100.069 63.7909 103.84 68.7517 106.463 71.9673C107.11 72.7689 108.074 73.2324 109.105 73.2384C109.112 73.2384 109.12 73.2384 109.127 73.2384C110.155 73.2384 111.12 72.7855 111.777 71.9944C114.289 68.954 117.916 64.2574 120.942 59.1563C124.573 53.0331 126.414 47.8927 126.414 43.8755C126.414 38.7819 124.148 33.6083 120.353 30.0334C118.584 28.3668 116.553 27.0956 114.322 26.2593C111.925 25.3595 109.349 24.9851 106.668 25.1451ZM108.774 53.6989C108.48 53.6989 108.179 53.6928 107.874 53.6792C105.137 53.569 102.651 52.5379 100.872 50.7792C99.0684 48.9948 98.0765 46.528 98.0765 43.8332C98.0765 37.4489 101.288 34.0537 108.49 32.8263C110.946 32.4081 113.095 32.8988 114.876 34.2861C117.246 36.134 118.846 39.5835 119.154 43.5147C119.397 46.6608 118.659 49.1472 116.961 50.906C115.19 52.7417 112.372 53.6989 108.774 53.6989ZM110.134 32.932C109.616 32.932 109.082 32.9788 108.531 33.0724C104.745 33.7185 102.104 34.97 100.46 36.9024C99.0231 38.5917 98.3241 40.8592 98.3241 43.8347C98.3241 46.4616 99.2918 48.8649 101.048 50.6041C102.781 52.3205 105.21 53.3245 107.885 53.4332C111.84 53.6007 114.917 52.6678 116.783 50.7369C118.43 49.0325 119.144 46.6095 118.907 43.5373C118.603 39.6741 117.039 36.2895 114.724 34.4854C113.397 33.4513 111.858 32.932 110.134 32.932Z" fill="#131F2D"/>
<path d="M109.275 25.0214C99.666 25.5951 94.9589 32.8384 94.3007 42.4474C93.6425 51.9583 103.91 65.8275 108.981 72.0458C110.395 73.797 113.057 73.797 114.486 72.0745C119.403 66.1204 129.153 53.1494 129.153 43.8755C129.153 34.253 121.21 24.3073 109.275 25.0214ZM110.493 53.5555C104.947 53.3321 100.813 49.3813 100.813 43.8333C100.813 38.2868 103.153 34.3073 111.123 32.9486C117.945 31.7862 121.209 37.9909 121.642 43.5253C122.163 50.2357 118.1 53.8786 110.493 53.5555Z" fill="#047267"/>
<path d="M37.4513 100.902C37.877 99.4483 38.3948 98.5833 38.3948 98.5833C38.3948 98.5833 41.6013 98.6014 41.7568 98.8837C42.1146 99.5328 42.5313 100.973 42.877 101.63C43.0264 101.915 43.4642 102.905 43.2016 103.093C42.9721 103.254 42.249 102.631 41.9395 102.292C41.6753 104.395 40.3423 107.345 40.5763 102.898C40.5732 102.898 40.5717 102.898 40.5687 102.898C40.5038 103.345 40.14 105.836 39.5738 105.513C39.0741 105.229 39.2613 103.435 39.361 102.699C39.3549 102.697 39.3474 102.696 39.3413 102.694C39.1753 103.435 38.7269 105.212 38.3405 104.789C37.8559 104.258 38.0113 102.288 38.0113 102.288C38.0113 102.288 37.7547 104.802 37.1206 104.258C36.6874 103.887 37.2142 101.88 37.3622 101.174C37.3848 101.068 37.415 100.979 37.4513 100.902Z" fill="#FF7955"/>
<path d="M62.8817 87.8106C65.596 88.3224 70.9614 89.3716 74.971 86.5697C77.2355 84.9876 79.0411 82.7774 79.115 82.7231L76.1501 78.5096L77.6326 80.6156L76.1546 78.5066C74.6102 79.6207 72.0559 83.0159 68.4765 82.1419C66.8521 81.7448 64.9605 81.4987 63.0024 78.6138L57.8379 80.4148C59.4623 83.6515 58.9883 87.2355 62.8817 87.8106Z" fill="#047267"/>
<path d="M72.0986 83.2801C72.0986 83.2801 73.7849 80.7876 75.4984 80.0192C77.2118 79.2523 78.2988 79.8879 78.2988 79.8879L80.1376 79.1587C80.1376 79.1587 80.4018 86.0835 75.6207 84.8622C75.2448 84.7686 72.0986 83.2801 72.0986 83.2801Z" fill="#FF7955"/>
<path d="M79.8648 75.5505L78.1075 85.5867C77.9928 86.2434 77.3542 86.6767 76.696 86.5439L71.9889 85.5973C71.3563 85.4705 70.9397 84.8666 71.0499 84.2341L72.7815 74.3428C72.8947 73.6997 73.5091 73.2694 74.1568 73.3781L78.8896 74.1782C79.5417 74.2915 79.978 74.9059 79.8648 75.5505Z" fill="#131F2D"/>
<path d="M79.1295 75.4191C79.122 75.1443 78.891 74.9284 78.6148 74.936C78.3385 74.9435 78.1196 75.173 78.1271 75.4478C78.1347 75.7225 78.3657 75.9384 78.6419 75.9308C78.9197 75.9218 79.1371 75.6938 79.1295 75.4191Z" fill="white"/>
<path d="M80.9489 79.3956C80.9489 79.3956 81.5678 78.0474 80.3239 77.4949C78.7387 76.7914 76.0848 77.4224 77.0826 77.8829C77.9673 78.2905 79.3637 78.5698 79.3637 78.5698C79.3637 78.5698 75.8025 77.907 75.9172 78.6875C76.0319 79.468 79.1011 79.9964 79.1011 79.9964C79.1011 79.9964 75.573 79.6764 75.9217 80.3783C76.2704 81.0818 79.0543 81.5785 79.0543 81.5785C79.0543 81.5785 75.6228 81.0803 76.047 81.888C76.4712 82.6957 78.2979 82.596 79.0814 82.7289C79.8227 82.8542 80.1442 82.4224 80.2152 81.7038C80.2152 81.7038 80.7043 81.0305 80.6318 80.5504C80.6047 80.3663 80.8009 80.2213 80.8387 80.096C80.9111 79.856 80.9489 79.3956 80.9489 79.3956Z" fill="#FF7955"/>
<path d="M44.6319 98.7855C44.65 99.5116 49.0748 99.8 54.5458 99.6309C60.0168 99.4618 64.3903 98.71 64.3707 97.9838C64.3511 97.2577 59.9489 96.832 54.4779 97.0011C49.0069 97.1701 44.6123 98.0593 44.6319 98.7855Z" fill="#131F2D"/>
<path d="M45.9708 78.2301C45.9708 78.2301 46.9385 74.4242 54.0777 74.3865C64.3721 74.3306 63.4195 83.7177 64.3721 97.9855C64.3721 97.9855 58.1311 95.3994 44.6318 98.7871C44.6318 98.7856 43.735 84.0438 45.9708 78.2301Z" fill="#047267"/>
<path d="M43.3359 77.6835L47.9993 80.2439C47.9993 80.2439 58.431 82.528 61.1409 82.0842C63.8507 81.6403 64.373 80.5428 64.373 80.5428C64.373 80.5428 61.4866 75.339 56.5802 74.5479C56.1197 74.4725 55.6412 74.4181 55.146 74.3864C54.3142 74.3336 53.4809 74.3441 52.6656 74.4347C46.4458 75.1292 43.3359 77.6835 43.3359 77.6835Z" fill="#047267"/>
<path d="M53.0954 73.514L53.6343 71.7884L53.7913 71.2857L54.7137 68.3313L54.8345 71.2706L54.907 73.0339L54.9296 73.5925C54.9447 73.9714 55.1787 74.0514 55.461 74.3805C55.5757 74.5134 56.3109 75.3225 55.4761 75.6894C54.4375 76.1453 52.496 75.4554 51.7578 74.5526C51.7654 74.5496 52.9218 74.0725 53.0954 73.514Z" fill="#FF7955"/>
<path d="M41.9585 100.037C42.3873 95.348 43.3731 88.6436 45.6255 83.3326C46.1478 82.1023 46.3652 81.6403 46.7728 80.9685C47.1004 80.4281 46.5132 79.24 45.5877 78.6738C44.7197 78.1424 43.3655 78.23 43.1527 78.4927C42.7888 78.9395 42.4009 79.7985 41.7955 81.1602C39.6955 85.8915 38.438 92.0026 37.9277 99.883L41.9585 100.037Z" fill="#FF7955"/>
<path d="M57.0871 67.2217C57.0871 67.2217 57.2758 67.9373 57.0871 68.834C56.8983 69.7307 55.9805 67.5266 55.9805 67.5266L57.0871 67.2217Z" fill="#131F2D"/>
<path d="M55.0101 72.5706C56.4574 72.3724 57.4383 70.8074 57.2011 69.075C56.9638 67.3427 55.5982 66.0991 54.1509 66.2973C52.7036 66.4956 51.7226 68.0606 51.9599 69.7929C52.1971 71.5252 53.5627 72.7688 55.0101 72.5706Z" fill="#FF7955"/>
<path d="M54.7123 69.302C54.7259 69.2929 54.7364 69.2794 54.7364 69.2612C54.7395 69.2326 54.7168 69.2069 54.6881 69.2039C54.6715 69.2024 54.2715 69.1314 54.0707 69.5526C54.0586 69.5798 54.0677 69.6115 54.0948 69.6236C54.122 69.6372 54.1477 69.6221 54.1673 69.5994C54.3545 69.3699 54.6655 69.308 54.6806 69.3096C54.6912 69.3111 54.7032 69.308 54.7123 69.302Z" fill="#080435"/>
<path d="M54.4796 69.9844C54.5129 70.1066 54.614 70.1867 54.7031 70.1625C54.7921 70.1383 54.8374 70.0191 54.8042 69.8968C54.771 69.7745 54.6699 69.6945 54.5808 69.7187C54.4917 69.7428 54.4464 69.8621 54.4796 69.9844Z" fill="#080435"/>
<path d="M56.6961 69.1432C56.7082 69.1417 56.7188 69.1311 56.7248 69.116C56.7339 69.0904 56.7248 69.0587 56.7037 69.0436C56.6916 69.0345 56.4153 68.8066 56.1572 69.1055C56.1406 69.1236 56.1406 69.1568 56.1557 69.1794C56.1723 69.2021 56.1949 69.2006 56.2145 69.187C56.4123 69.0572 56.6584 69.1281 56.669 69.1357C56.6795 69.1432 56.6886 69.1447 56.6961 69.1432Z" fill="#080435"/>
<path d="M56.2068 69.6883C56.1902 69.8136 56.2521 69.9254 56.3442 69.9374C56.4363 69.9495 56.5238 69.8559 56.5404 69.7306C56.557 69.6053 56.4951 69.4936 56.4031 69.4815C56.311 69.4694 56.2234 69.563 56.2068 69.6883Z" fill="#080435"/>
<path d="M50.1885 68.9533C50.1885 68.9533 51.0731 70.8479 52.3262 70.9868C52.3262 70.9868 51.3117 69.5436 53.4493 68.6635C53.4508 68.6635 51.4883 68.357 50.1885 68.9533Z" fill="#131F2D"/>
<path d="M51.9558 69.9995C52.2245 70.1686 52.5657 70.1128 52.7182 69.8758C52.8707 69.6372 52.7771 69.3081 52.5084 69.139C52.2396 68.97 51.8985 69.0258 51.746 69.2628C51.5935 69.4999 51.6871 69.829 51.9558 69.9995Z" fill="#FF7955"/>
<path d="M53.4503 68.6633C53.4503 68.6633 53.2797 70.253 53.6058 70.5534C53.9319 70.8538 56.0846 70.9837 57.0886 70.5987C57.1052 71.6192 56.3805 72.5205 55.366 72.6896C55.0309 72.7454 54.6837 72.7454 54.338 72.6866C53.6345 72.5643 52.9506 72.2759 52.6607 71.6283C52.5732 71.432 52.8298 70.2198 52.8298 70.2198C52.8298 70.2198 52.9264 69.5087 52.5098 69.1389C52.5083 69.1374 52.9898 68.7086 53.4503 68.6633Z" fill="#131F2D"/>
<path d="M53.4507 68.6632C53.4507 68.6632 53.274 67.5521 54.1512 67.4721C55.0298 67.3936 56.0307 67.2456 56.3749 67.4721C56.7191 67.6985 57.1312 68.5847 57.1312 68.5847C57.1312 68.5847 57.6128 66.9181 56.7297 66.2055C55.8465 65.4929 53.034 64.5539 51.2375 65.7964C49.441 67.0373 50.1883 68.9546 50.1883 68.9546C50.1883 68.9546 51.4715 68.5651 53.4507 68.6632Z" fill="#131F2D"/>
<path d="M52.2321 65.7967C52.2321 65.7967 50.9081 64.7113 51.207 63.9096C51.5059 63.108 52.9069 63.3616 53.4489 63.4869C53.9908 63.6122 54.0814 64.5724 53.6466 65.1913C53.2134 65.8103 52.2321 65.7967 52.2321 65.7967Z" fill="#131F2D"/>
<path d="M54.2705 133.769C54.906 133.734 55.4948 134.062 55.8073 134.611C55.9537 134.87 56.1666 135.105 56.4776 135.233C57.4332 135.629 60.2019 135.985 59.1678 136.886C58.5745 137.403 55.7771 137.069 54.986 137.069C54.1965 137.069 53.4552 137.41 52.868 136.886C52.5162 136.572 52.5479 135.578 52.6491 134.737C52.7215 134.13 53.2741 133.68 53.884 133.758C53.9761 133.77 54.0697 133.777 54.1618 133.774C54.1995 133.772 54.2357 133.77 54.2705 133.769Z" fill="#131F2D"/>
<path d="M44.5129 133.437C44.5129 133.437 44.5476 134.838 45.5032 135.233C46.4588 135.629 49.2275 135.985 48.1934 136.886C47.6001 137.403 44.8027 137.069 44.0117 137.069C43.2221 137.069 42.4809 137.41 41.8936 136.886C41.2475 136.31 41.8936 133.437 41.8936 133.437C41.8936 133.437 42.5745 133.789 43.1889 133.773C44.0721 133.751 44.5129 133.437 44.5129 133.437Z" fill="#131F2D"/>
<path d="M61.409 98.1832C61.8408 98.2285 62.1835 98.5637 62.2348 98.9909C62.339 99.8439 62.3556 101.646 61.8408 105.386C61.0845 110.879 58.2221 130.925 57.7466 133.597C57.576 134.552 57.3813 135.141 55.9863 135.342L54.1325 135.306C52.6228 135.523 52.0416 133.915 52.031 132.887L53.2448 102.007L48.4199 98.3538C48.4199 98.3538 52.031 97.8964 56.1132 97.8994C58.4199 97.9024 60.4308 98.0806 61.409 98.1832Z" fill="#657285"/>
<path d="M56.8693 99.2083L46.2352 133.108C45.7899 134.527 44.5022 135.499 43.0363 135.523L42.3977 135.534C40.888 135.559 39.7346 134.175 40.0094 132.668L45.8261 100.816C45.9107 100.437 46.1265 98.7644 46.4949 98.6588C48.4907 98.0881 57.0655 97.8073 56.8693 99.2083Z" fill="#657285"/>
<path d="M52.1173 114.361L51.9482 114.305L54.2354 107.406C54.7638 105.813 55.8507 104.483 57.294 103.662L57.3815 103.817C55.9745 104.617 54.9177 105.911 54.403 107.463L52.1173 114.361Z" fill="#020202"/>
<path d="M49.4874 75.2469C49.4874 75.2469 48.3778 74.2294 49.7123 73.8701C50.2392 73.7282 51.0257 72.4359 51.7594 72.5476C52.4931 72.6593 52.9264 76.7596 55.8702 78.0277C55.8702 78.0277 56.5949 78.6542 55.4158 78.627C54.2368 78.5983 49.4874 75.2469 49.4874 75.2469Z" fill="#657285"/>
<path d="M55.8716 78.0276C55.8716 78.0276 57.345 76.5889 57.0883 75.2468C56.8317 73.9048 57.5805 72.7559 57.9458 73.3628C58.3112 73.9697 58.7324 73.5923 58.8169 74.3531C58.9014 75.114 57.7632 78.8489 56.7306 78.8489C55.6964 78.8504 55.8716 78.0276 55.8716 78.0276Z" fill="#657285"/>
<path d="M55.5386 78.3118C55.5386 78.3118 54.586 78.7375 54.9392 79.7429C55.2925 80.7499 54.7988 81.156 54.7988 81.156C54.7988 81.156 55.9537 81.2118 56.0926 80.1339C56.2315 79.0545 55.5386 78.3118 55.5386 78.3118Z" fill="#657285"/>
<path d="M56.0784 78.3118C56.0784 78.3118 57.2876 78.7209 57.3405 79.5014C57.3918 80.2819 56.6989 80.4676 56.4558 80.0026C56.2128 79.5376 55.707 78.6273 55.707 78.6273L56.0784 78.3118Z" fill="#657285"/>
<path d="M52.6602 71.627C52.6602 71.627 52.6692 72.72 53.4497 73.3329C54.2302 73.9473 53.7139 74.4817 54.4008 75.3528C55.0877 76.2239 54.2695 76.2435 55.4877 76.8776C56.7045 77.5116 57.6224 76.9364 57.3839 75.9672C57.1438 74.9965 58.2021 75.2547 57.7024 74.0273C57.2027 72.8 56.8404 73.5518 57.2616 72.2459C57.6828 70.9386 57.088 70.5989 57.088 70.5989C57.088 70.5989 56.4147 70.6442 55.8712 70.7408C55.3277 70.8374 54.8401 70.6683 54.4597 70.7891C54.0807 70.9084 52.6602 71.627 52.6602 71.627Z" fill="#131F2D"/>
<path d="M56.5576 71.1709C56.5576 71.1709 55.7333 71.3928 54.832 71.3053C54.832 71.3053 54.9649 72.1341 55.8767 71.968C56.4066 71.8729 56.5576 71.1709 56.5576 71.1709Z" fill="white"/>
<path d="M37.9287 98.1909C37.9287 98.1909 40.708 98.4868 42.1482 98.1909C42.1482 98.1909 42.3354 98.9246 42.035 99.2613C42.035 99.2613 38.7047 99.5119 37.9302 99.2613C37.9287 99.2598 37.3551 98.7087 37.9287 98.1909Z" fill="#131F2D"/>
<path d="M39.7337 99.8679H39.6824C39.1359 99.8679 38.6875 99.421 38.6875 98.873V98.6858C38.6875 98.1393 39.1344 97.6909 39.6824 97.6909H39.7337C40.2802 97.6909 40.7286 98.1378 40.7286 98.6858V98.873C40.7286 99.421 40.2817 99.8679 39.7337 99.8679Z" fill="#131F2D"/>
<path d="M43.3356 77.6836C43.3356 77.6836 40.9791 79.0664 38.6874 88.1531C36.3957 97.2397 38.1183 97.4043 38.1183 97.4043C38.1183 97.4043 41.21 97.4632 42.2049 97.1114C43.1998 96.7597 43.7312 88.6166 45.7134 85.3059C47.6971 81.9952 48.4066 76.9242 43.3356 77.6836Z" fill="#047267"/>
<path d="M56.1104 84.1903C56.1104 83.9986 56.2674 83.8416 56.4621 83.8416C56.6553 83.8416 56.8139 83.997 56.8139 84.1903C56.8139 84.382 56.6569 84.539 56.4621 84.539C56.2674 84.5375 56.1104 84.382 56.1104 84.1903Z" fill="#131F2D"/>
<path d="M56.1104 88.4337C56.1104 88.242 56.2674 88.085 56.4621 88.085C56.6553 88.085 56.8139 88.2405 56.8139 88.4337C56.8139 88.6254 56.6569 88.7824 56.4621 88.7824C56.2674 88.7824 56.1104 88.6269 56.1104 88.4337Z" fill="#131F2D"/>
<path d="M56.1104 93.4642C56.1104 93.2725 56.2674 93.1155 56.4621 93.1155C56.6553 93.1155 56.8139 93.271 56.8139 93.4642C56.8139 93.6559 56.6569 93.8129 56.4621 93.8129C56.2674 93.8129 56.1104 93.6574 56.1104 93.4642Z" fill="#131F2D"/>
<path d="M44.5398 88.5742L44.3662 88.532C45.0395 85.6908 46.1989 83.0413 46.211 83.0142L46.3741 83.0866C46.3635 83.1123 45.2101 85.7482 44.5398 88.5742Z" fill="#131F2D"/>
<path d="M63.7071 88.0911C63.5108 84.9298 61.9287 80.8689 61.9121 80.8281L62.0782 80.7632C62.0948 80.8039 63.6875 84.8906 63.8852 88.079L63.7071 88.0911Z" fill="#131F2D"/>
<path d="M119.14 108.842C119.14 108.842 150.938 54.0175 168.459 63.391C185.98 72.766 137.387 95.3052 128.737 111.564L119.14 108.842Z" fill="#EAEAEA"/>
<path d="M124.494 110.414C130.264 99.0762 140.382 88.8362 147.853 82.2435C155.954 75.0953 162.772 70.5784 162.84 70.5331L162.561 70.1089C162.493 70.1542 155.645 74.6922 147.517 81.8631C140.012 88.486 129.846 98.7743 124.04 110.184L124.494 110.414Z" fill="white"/>
<path d="M182.301 106.123C174.725 107.852 176.116 119.331 167.438 117.296C160.1 115.571 159.476 114.902 156.966 117.038C156.105 117.77 155.367 118.632 154.745 119.576C153.999 120.706 152.555 122.376 150.337 122.791C136.785 125.324 117.995 105.451 132.038 94.2269C133.053 93.4163 134.538 93.0917 136.184 92.8154C145.11 91.3209 147.943 95.3939 154.87 84.778C161.8 74.1575 171.53 89.1651 177.521 88.5657C183.513 87.9664 188.777 86.1095 193.521 92.4123C198.267 98.7212 189.878 104.401 182.301 106.123Z" fill="#D5D6DA"/>
<g opacity="0.5">
<path d="M136.528 108.788L136.238 108.366C136.424 108.238 155.249 95.56 194.618 94.2043L194.636 94.7146C155.415 96.0658 136.712 108.661 136.528 108.788Z" fill="white"/>
</g>
<path d="M128.238 137.008C128.238 137.008 120.733 137.509 119.959 135.891C117.5 130.754 115.063 116.776 123.716 112.241C131.204 108.315 133.236 118.251 133.236 118.251L128.238 137.008Z" fill="#131F2D"/>
<path d="M131.867 117.926C131.867 117.926 130.505 113.279 127.481 114.732C124.456 116.184 124.609 136.925 128.238 137.01C131.867 137.093 133.38 124.46 131.867 117.926Z" fill="#364154"/>
<path d="M130.851 119.679C130.851 119.679 130.024 116.077 128.185 117.201C126.346 118.328 126.438 134.407 128.644 134.473C130.851 134.54 131.77 124.745 130.851 119.679Z" fill="#B8C1C9"/>
<path d="M128.226 134.282L128.129 134.105C128.959 133.654 129.642 131.491 129.953 128.317C130.247 125.322 130.168 122.019 129.747 119.697L129.945 119.661C130.775 124.237 130.239 133.187 128.226 134.282Z" fill="#131F2D"/>
<path d="M82.5047 118.874C82.5047 118.874 82.1998 117.981 81.5612 117.168C81.5612 117.168 78.6143 112.203 74.6304 115.049C70.6479 117.895 72.0579 133.095 72.9154 134.454C73.7729 135.813 78.8755 135.321 78.8755 135.321C82.5048 135.393 84.0174 124.505 82.5047 118.874Z" fill="#131F2D"/>
<path d="M80.2183 96.8876C80.2183 96.8876 67.8451 102.013 68.9064 113.767C68.9064 113.767 67.7576 113.944 67.3152 116.241C66.8729 118.539 69.1706 129.321 70.8509 129.587C72.5296 129.853 120.872 131.266 122.108 130.559C123.346 129.853 124.583 128.172 124.495 124.108C124.406 120.043 125.523 111.575 129.091 111.934C132.14 112.241 132.872 122.315 132.14 128.661C131.778 131.809 136.249 127.38 140.137 127.025C144.024 126.67 146.575 127.257 146.752 125.049C146.929 122.839 146.361 113.406 149.726 113.258C152.904 113.119 153.138 119.631 153.138 119.631C153.491 119.188 153.923 114.164 152.951 111.933C151.978 109.702 153.393 100.6 151.095 99.2728C148.798 97.9474 150.476 84.2487 137.309 81.5977C124.14 78.9468 97.3635 79.9477 92.1491 82.8492C86.9348 85.7523 80.2183 96.8876 80.2183 96.8876Z" fill="#047267"/>
<path d="M102.296 112.034H83.7569C82.9447 112.034 82.1808 111.717 81.6056 111.143L81.2297 110.767C80.6938 110.23 79.9797 109.935 79.2204 109.935H77.5205V109.735H79.2204C80.0326 109.735 80.7965 110.052 81.3717 110.625L81.7476 111.001C82.285 111.537 82.9976 111.833 83.7569 111.833H102.296C102.771 111.833 103.244 111.712 103.662 111.483L106.171 110.108C106.618 109.863 107.123 109.733 107.634 109.733H110.119V109.934H107.634C107.158 109.934 106.686 110.055 106.267 110.284L103.758 111.659C103.312 111.904 102.806 112.034 102.296 112.034Z" fill="#131F2D"/>
<path d="M128.496 82.5626C129.334 82.6395 129.915 83.4291 129.748 84.2534C129.455 85.6966 129.058 88.0834 129.003 90.6121C128.914 94.6776 131.035 97.1519 124.319 97.5942C117.602 98.0366 80.9389 98.1951 81.2046 96.9587C81.4703 95.7208 90.7365 83.9258 93.3875 83.1C95.7426 82.3693 121.704 81.9376 128.496 82.5626Z" fill="#131F2D"/>
<path d="M75.1215 124.226C75.1215 125.397 74.261 126.641 72.9265 126.641C71.5919 126.641 70.7314 125.397 70.7314 124.226C70.7314 123.054 71.8124 121.957 73.1469 121.957C74.483 121.957 75.1215 123.054 75.1215 124.226Z" fill="#131F2D"/>
<path d="M117.499 124.226C117.499 125.397 116.639 126.641 115.304 126.641C113.97 126.641 113.109 125.397 113.109 124.226C113.109 123.054 114.19 121.957 115.525 121.957C116.859 121.957 117.499 123.054 117.499 124.226Z" fill="#131F2D"/>
<path d="M67.3156 116.243C67.3156 116.243 67.0801 118.098 70.7334 118.584C74.3868 119.07 77.5677 118.187 78.4523 121.191C79.3355 124.196 77.5692 127.025 83.401 127.82C89.2343 128.616 104.145 129.499 104.997 127.114C105.848 124.727 104.08 120.751 107.793 120.044C111.505 119.338 119.989 120.221 122.021 119.072C124.053 117.923 124.142 116.508 122.904 115.536C121.666 114.564 75.5342 114.653 72.927 114.653C70.3213 114.652 67.3156 114.386 67.3156 116.243Z" fill="#131F2D"/>
<path d="M83.7191 118.088L101.577 117.952C102.179 117.947 102.628 118.504 102.496 119.091L102.089 120.905C101.992 121.332 101.615 121.634 101.177 121.634H84.1675C83.7433 121.634 83.3719 121.347 83.2632 120.936L82.8224 119.259C82.6669 118.67 83.1092 118.092 83.7191 118.088Z" fill="white"/>
<path d="M147.603 96.5932C147.603 96.5932 147.65 89.8178 143.82 87.0491C139.99 84.2804 134.453 83.0425 133.391 83.8682C132.331 84.6925 132.153 95.5334 133.097 96.5947C134.039 97.6544 146.613 97.6545 147.603 96.5932Z" fill="#131F2D"/>
<path d="M135.807 99.4946C135.807 99.4946 134.083 97.8596 134.968 95.1196C135.851 92.3796 142.657 94.2365 143.363 95.6057C144.07 96.975 141.286 99.318 139.431 99.715C137.575 100.112 137.972 103.471 136.558 103.294C135.143 103.118 134.022 102.146 134.714 101.527C135.41 100.909 136.692 100.024 135.807 99.4946Z" fill="#364154"/>
<path d="M126.278 89.2892C126.278 89.2892 127.403 85.0697 126.778 84.3405C126.153 83.6113 120.684 83.1418 120.684 83.871C120.684 84.6002 122.835 85.0153 123.399 86.3967C123.966 87.7795 125.96 90.6388 126.278 89.2892Z" fill="#364154"/>
<path d="M117.749 106.299L117.563 106.22C118.025 105.126 119.191 103.636 121.028 101.794C122.393 100.426 123.64 99.3634 123.652 99.3528L123.782 99.5053C123.732 99.549 118.827 103.738 117.749 106.299Z" fill="#131F2D"/>
<path d="M73.6755 105.453C73.6694 105.453 73.6649 105.452 73.6588 105.45C73.6347 105.441 73.6226 105.414 73.6302 105.39C74.7654 102.25 80.084 98.5239 80.1368 98.4862C80.1579 98.4711 80.1866 98.4771 80.2017 98.4982C80.2168 98.5194 80.2108 98.5481 80.1896 98.5632C80.1761 98.5722 78.837 99.5067 77.3771 100.814C76.032 102.019 74.3035 103.796 73.7177 105.42C73.7132 105.441 73.6951 105.453 73.6755 105.453Z" fill="#131F2D"/>
<path d="M77.2434 110.329C79.4566 108.539 80.3015 105.914 79.1306 104.467C77.9597 103.019 75.2164 103.297 73.0033 105.087C70.7902 106.877 69.9453 109.502 71.1162 110.949C72.287 112.397 75.0303 112.119 77.2434 110.329Z" fill="#E3EEEC"/>
<path d="M74.1601 111.655C73.1652 111.655 72.3711 111.282 71.9258 110.607C71.4306 109.858 71.4185 108.797 71.888 107.697C72.8135 105.533 75.3255 103.774 77.4904 103.774C77.8361 103.774 78.1607 103.82 78.4551 103.907C78.4792 103.915 78.4943 103.94 78.4868 103.966C78.4792 103.99 78.4536 104.005 78.4279 103.998C78.1426 103.912 77.827 103.868 77.4904 103.868C75.3603 103.868 72.8859 105.603 71.9756 107.733C71.5182 108.805 71.5287 109.833 72.0043 110.556C72.433 111.205 73.1984 111.561 74.1616 111.561C74.5767 111.561 75.013 111.496 75.4584 111.366C75.4825 111.359 75.5097 111.374 75.5158 111.398C75.5233 111.422 75.5082 111.45 75.4841 111.456C75.0296 111.587 74.5843 111.655 74.1601 111.655Z" fill="#131F2D"/>
<path d="M116.277 110.327C118.49 108.537 119.335 105.912 118.164 104.465C116.993 103.017 114.25 103.295 112.037 105.085C109.823 106.875 108.978 109.5 110.149 110.947C111.32 112.395 114.064 112.117 116.277 110.327Z" fill="#E3EEEC"/>
<path d="M113.195 111.655C112.2 111.655 111.406 111.282 110.961 110.607C110.465 109.859 110.452 108.797 110.923 107.697C111.848 105.533 114.36 103.775 116.525 103.775C116.871 103.775 117.195 103.82 117.49 103.907C117.514 103.915 117.529 103.941 117.522 103.966C117.514 103.991 117.488 104.006 117.463 103.998C117.177 103.912 116.862 103.868 116.525 103.868C114.395 103.868 111.921 105.603 111.01 107.733C110.553 108.805 110.563 109.833 111.039 110.556C111.468 111.205 112.233 111.561 113.195 111.561C113.61 111.561 114.046 111.497 114.492 111.367C114.516 111.359 114.543 111.374 114.549 111.398C114.557 111.423 114.541 111.45 114.517 111.456C114.063 111.587 113.619 111.655 113.195 111.655Z" fill="#131F2D"/>
<path d="M93.0207 109.674C93.0207 109.988 92.4969 110.244 91.8492 110.244C91.2016 110.244 90.6777 109.988 90.6777 109.674C90.6777 109.36 91.2016 109.105 91.8492 109.105C92.4969 109.105 93.0207 109.359 93.0207 109.674Z" fill="#E3EEEC"/>
<path d="M83.5961 143.74C83.5961 143.74 80.604 140.663 81.6336 138.912C82.6632 137.159 84.3993 142.676 84.3993 142.676C84.3993 142.676 83.498 136.154 85.364 136.041C87.2299 135.927 85.364 142.676 85.364 142.676C85.364 142.676 86.0554 141.103 86.7317 141.004C87.4065 140.908 87.2148 142.339 86.0086 143.74H83.5961Z" fill="#EAEAEA"/>
<path d="M83.8103 143.817C83.8012 143.808 82.9453 142.923 82.2448 141.806C81.2892 140.281 81.0612 139.071 81.5685 138.209C81.7572 137.887 81.9851 137.739 82.2433 137.768C82.7671 137.827 83.3559 138.627 84.0458 140.211C84.2526 140.685 84.4353 141.159 84.5787 141.553C84.4142 139.842 84.2224 136.436 85.1584 135.295C85.3607 135.049 85.6053 134.916 85.8891 134.898C86.1639 134.881 86.3918 134.98 86.5624 135.192C87.4048 136.233 86.6469 139.934 86.2303 141.666C86.5413 141.159 86.9806 140.595 87.4305 140.531C87.6433 140.5 87.8124 140.579 87.9075 140.754C88.1823 141.255 87.8094 142.537 86.7088 143.814L86.5428 143.671C87.6252 142.415 87.9196 141.231 87.7158 140.86C87.6645 140.766 87.5844 140.731 87.4637 140.749C86.8855 140.833 86.2091 142.099 85.9978 142.581L85.791 142.507C85.7955 142.492 86.2046 141.002 86.4794 139.373C86.8387 137.241 86.8085 135.845 86.3933 135.331C86.268 135.176 86.108 135.106 85.9042 135.118C85.6823 135.132 85.4951 135.236 85.3305 135.435C84.1485 136.879 84.9033 142.464 84.9108 142.52L84.6965 142.569C84.3055 141.329 83.0992 138.088 82.2191 137.988C82.0515 137.969 81.9021 138.079 81.7587 138.322C80.6461 140.215 83.9356 143.631 83.9688 143.666L83.8103 143.817Z" fill="#364154"/>
<path d="M32.3077 141.432C32.3077 141.432 30.2364 139.301 30.949 138.088C31.6616 136.874 32.8648 140.693 32.8648 140.693C32.8648 140.693 32.2413 136.176 33.5335 136.098C34.8258 136.019 33.5335 140.693 33.5335 140.693C33.5335 140.693 34.0121 139.603 34.4801 139.537C34.9481 139.469 34.8137 140.461 33.9789 141.432H32.3077Z" fill="#EAEAEA"/>
<path d="M32.4558 141.485C32.4497 141.478 31.8564 140.866 31.3718 140.091C30.7106 139.036 30.5521 138.196 30.9039 137.6C31.0352 137.377 31.1922 137.274 31.3718 137.295C31.7342 137.336 32.1433 137.89 32.6203 138.986C32.7638 139.315 32.8906 139.643 32.9887 139.914C32.874 138.729 32.7426 136.373 33.3903 135.582C33.5291 135.411 33.6997 135.319 33.896 135.307C34.0877 135.296 34.2447 135.364 34.3625 135.511C34.9452 136.231 34.4214 138.794 34.133 139.993C34.3474 139.643 34.6523 139.252 34.9633 139.206C35.1098 139.184 35.2275 139.24 35.2939 139.36C35.4842 139.708 35.226 140.595 34.4636 141.48L34.3489 141.38C35.0977 140.511 35.3015 139.691 35.1611 139.433C35.1264 139.368 35.0705 139.344 34.986 139.356C34.5844 139.413 34.1179 140.29 33.9715 140.624L33.8281 140.573C33.8386 140.532 34.9497 136.474 34.2447 135.604C34.1572 135.497 34.047 135.447 33.9051 135.456C33.7511 135.465 33.6212 135.538 33.508 135.675C32.6898 136.675 33.2121 140.542 33.2182 140.582L33.0702 140.615C32.8 139.756 31.9651 137.513 31.3552 137.443C31.239 137.43 31.1348 137.505 31.0367 137.674C30.2668 138.985 32.5433 141.352 32.5675 141.374L32.4558 141.485Z" fill="#364154"/>
<path d="M20.7702 133.977C20.7702 133.977 17.6422 130.76 18.7186 128.927C19.795 127.094 21.6111 132.864 21.6111 132.864C21.6111 132.864 20.6691 126.042 22.6211 125.924C24.573 125.807 22.6211 132.864 22.6211 132.864C22.6211 132.864 23.3442 131.219 24.0507 131.116C24.7572 131.015 24.5549 132.511 23.2944 133.977H20.7702Z" fill="#EAEAEA"/>
<path d="M20.9939 134.057C20.9848 134.048 20.0896 133.123 19.3574 131.953C18.358 130.358 18.1195 129.092 18.6494 128.19C18.8471 127.854 19.0857 127.7 19.3559 127.73C19.9039 127.792 20.5198 128.628 21.2415 130.284C21.4573 130.781 21.6491 131.276 21.7985 131.687C21.6264 129.898 21.4256 126.337 22.4054 125.142C22.6167 124.886 22.8734 124.745 23.1693 124.727C23.4576 124.711 23.6947 124.813 23.8743 125.035C24.7559 126.124 23.9634 129.995 23.5271 131.806C23.8516 131.276 24.3121 130.686 24.7816 130.62C25.0035 130.588 25.1802 130.671 25.2798 130.852C25.5666 131.376 25.1771 132.716 24.0268 134.052L23.8532 133.903C24.9854 132.588 25.2919 131.35 25.079 130.962C25.0262 130.864 24.9416 130.828 24.8148 130.846C24.2094 130.934 23.5029 132.258 23.2825 132.76L23.0666 132.683C23.0712 132.668 23.4999 131.11 23.7867 129.406C24.1626 127.177 24.1309 125.716 23.6977 125.18C23.5663 125.017 23.3988 124.945 23.1859 124.958C22.9534 124.972 22.7571 125.081 22.5866 125.289C21.3501 126.797 22.1397 132.641 22.1488 132.7L21.9253 132.75C21.5162 131.453 20.2556 128.064 19.3348 127.959C19.1596 127.94 19.0026 128.053 18.8532 128.308C17.6907 130.287 21.1297 133.862 21.1645 133.899L20.9939 134.057Z" fill="#364154"/>
<path d="M138.192 139.342C138.192 139.342 135.929 137.016 136.708 135.69C137.487 134.365 138.8 138.538 138.8 138.538C138.8 138.538 138.12 133.604 139.53 133.518C140.94 133.432 139.53 138.538 139.53 138.538C139.53 138.538 140.052 137.348 140.564 137.274C141.074 137.2 140.929 138.284 140.016 139.344H138.192V139.342Z" fill="#EAEAEA"/>
<path d="M138.354 139.4C138.246 139.289 135.754 136.697 136.658 135.157C136.802 134.914 136.974 134.803 137.168 134.824C137.564 134.869 138.011 135.473 138.532 136.672C138.687 137.031 138.826 137.389 138.935 137.686C138.809 136.392 138.666 133.817 139.374 132.953C139.527 132.768 139.712 132.666 139.927 132.653C140.136 132.641 140.307 132.715 140.437 132.875C141.074 133.661 140.5 136.462 140.186 137.771C140.422 137.387 140.754 136.961 141.094 136.912C141.254 136.889 141.382 136.948 141.454 137.081C141.663 137.46 141.38 138.429 140.547 139.395L140.422 139.286C141.24 138.335 141.462 137.44 141.308 137.159C141.269 137.088 141.208 137.061 141.116 137.075C140.678 137.138 140.168 138.095 140.008 138.459L139.851 138.403C139.854 138.393 140.164 137.265 140.372 136.033C140.644 134.421 140.621 133.364 140.307 132.977C140.212 132.86 140.091 132.807 139.937 132.816C139.77 132.826 139.628 132.905 139.504 133.056C138.61 134.147 139.181 138.373 139.187 138.415L139.025 138.451C138.729 137.514 137.818 135.062 137.152 134.987C137.027 134.972 136.912 135.055 136.803 135.239C135.962 136.67 138.449 139.255 138.474 139.282L138.354 139.4Z" fill="#364154"/>
</g>
</svg>
