<svg width="210" height="160" viewBox="0 0 210 160" fill="none" xmlns="http://www.w3.org/2000/svg">
<g opacity="0.2">
<path opacity="0.0909" d="M32.6825 61.6457L77.5387 35.7464C77.6102 35.7024 79.8051 34.4536 79.8876 34.4261C82.6547 32.9133 86.0874 32.2201 89.4376 32.2862C92.1442 32.3412 95.2028 33.2214 97.1447 34.3436L205.429 96.6714C208.168 98.2502 209.72 100.737 209.703 103.487C209.692 106.491 207.805 109.307 204.51 111.205L157.822 138.161C156.848 138.722 155.495 139.338 154.362 139.701C152.497 140.301 150.473 140.653 148.426 140.669C145.472 140.697 142.766 140.07 140.653 138.849L31.7638 76.1797C29.0242 74.6008 27.4729 72.1143 27.4894 69.3638C27.5059 66.3602 29.3873 63.5491 32.6825 61.6457Z" fill="black"/>
<path opacity="0.1818" d="M33.0072 61.8328L78.0725 35.8124C78.2155 35.7299 80.2784 34.5637 80.4435 34.5142C83.282 33.0454 86.7753 32.5118 90.0539 32.6493C92.4909 32.7483 95.9016 33.876 97.651 34.8827L205.336 96.8695C207.96 98.3878 209.428 100.748 209.401 103.355C209.373 106.194 207.575 108.867 204.417 110.688L158.009 137.479C157.135 137.985 155.6 138.706 154.588 139.041C152.745 139.652 150.742 140.042 148.707 140.086C145.78 140.141 143.068 139.542 140.972 138.331L32.094 75.6516C29.47 74.1333 28.0012 71.7733 28.0287 69.1658C28.0562 66.3272 29.8551 63.6536 33.0072 61.8328Z" fill="black"/>
<path opacity="0.2727" d="M33.3375 62.0197L78.6118 35.8784C78.8264 35.7518 80.7573 34.6736 81.0103 34.5966C83.9149 33.1718 87.4686 32.7977 90.6813 33.0013C92.8432 33.1388 96.6115 34.5141 98.1683 35.4108L205.253 97.0509C207.767 98.5032 209.148 100.742 209.11 103.207C209.071 105.88 207.355 108.405 204.335 110.149L158.208 136.78C157.426 137.231 155.721 138.062 154.824 138.37C153.009 138.992 151.023 139.426 148.999 139.487C146.094 139.575 143.377 138.997 141.303 137.798L32.4188 75.1234C29.9048 73.6711 28.5185 71.4322 28.5625 68.9677C28.601 66.2886 30.3229 63.7636 33.3375 62.0197Z" fill="black"/>
<path opacity="0.3636" d="M33.662 62.2067L79.1509 35.9443C79.4369 35.7793 81.2358 34.7891 81.5714 34.6846C84.5475 33.3038 88.1507 33.6338 91.3029 33.3643C93.1897 33.1993 97.3211 35.1632 98.6799 35.9443L205.165 97.2379C207.569 98.6242 208.867 100.748 208.812 103.069C208.757 105.578 207.124 107.96 204.247 109.621L158.4 136.092C157.718 136.488 155.837 137.429 155.05 137.704C153.257 138.337 151.293 138.81 149.279 138.892C146.397 139.008 143.679 138.458 141.622 137.27L32.7488 74.5898C30.3448 73.2035 29.0466 71.0855 29.0961 68.7641C29.1511 66.2556 30.7849 63.8681 33.662 62.2067Z" fill="black"/>
<path opacity="0.4545" d="M33.9923 62.3994L79.6901 36.016C80.0477 35.8069 81.7146 34.9048 82.1381 34.7782C85.1858 33.4415 88.833 33.3865 91.9302 33.7275C93.542 33.9036 98.0309 35.8124 99.1972 36.4836L205.077 97.4251C207.366 98.7454 208.582 100.748 208.516 102.926C208.45 105.27 206.898 107.509 204.159 109.093L158.593 135.399C158.01 135.735 155.952 136.791 155.281 137.033C153.51 137.677 151.568 138.194 149.571 138.293C146.716 138.436 143.987 137.908 141.957 136.736L33.0736 74.0618C30.7851 72.7415 29.5694 70.7391 29.6354 68.5607C29.7014 66.2172 31.2527 63.9782 33.9923 62.3994Z" fill="black"/>
<path opacity="0.5455" d="M34.3161 62.5864L80.2285 36.0819C80.6631 35.8344 82.1979 35.0202 82.6985 34.8662C85.8177 33.5734 89.5034 34.4976 92.5511 34.0905C93.8933 33.909 98.7343 36.4615 99.708 37.0226L204.994 97.6231C207.173 98.8828 208.306 100.759 208.223 102.794C208.141 104.967 206.677 107.069 204.075 108.57L158.79 134.717C158.301 134.998 156.073 136.169 155.517 136.379C153.768 137.039 151.842 137.589 149.862 137.71C147.029 137.88 144.3 137.38 142.287 136.219L33.3974 73.5336C31.219 72.2739 30.0858 70.398 30.1683 68.3626C30.2508 66.1841 31.7141 64.0827 34.3161 62.5864Z" fill="black"/>
<path opacity="0.6364" d="M34.6412 62.7733L80.7627 36.1424C81.2688 35.8508 82.6716 35.1246 83.2547 34.9431C86.4453 33.6944 90.1696 33.9584 93.1677 34.437C94.2349 34.6075 99.439 37.0941 100.215 37.5396L204.901 97.7935C206.964 98.9873 208.015 100.748 207.921 102.634C207.828 104.642 206.447 106.601 203.982 108.02L158.983 134.013C158.593 134.238 156.189 135.526 155.749 135.696C154.016 136.367 152.118 136.962 150.148 137.099C147.343 137.303 144.609 136.824 142.612 135.674L33.728 72.9999C31.6651 71.8062 30.6144 70.0458 30.7079 68.1589C30.8014 66.151 32.1822 64.1926 34.6412 62.7733Z" fill="black"/>
<path opacity="0.7273" d="M34.9714 62.9605L81.3074 36.2086C81.8851 35.8785 83.1558 35.2404 83.827 35.0313C87.0836 33.8266 90.9894 33.7165 93.8005 34.8003C94.6147 34.8003 100.154 37.7434 100.737 38.0789L204.819 97.9917C206.772 99.1195 207.74 100.759 207.635 102.508C207.525 104.351 206.227 106.166 203.906 107.509L159.181 133.331C158.89 133.502 156.315 134.91 155.98 135.042C154.269 135.724 152.393 136.357 150.435 136.522C147.651 136.753 144.911 136.302 142.937 135.157L34.0527 72.472C32.0998 71.3443 31.1316 69.7049 31.2362 67.9556C31.3462 66.1127 32.6445 64.3028 34.9714 62.9605Z" fill="black"/>
<path opacity="0.8182" d="M35.2964 63.1475L81.8415 36.2745C82.4906 35.9004 83.6293 35.3503 84.383 35.1193C87.7112 33.9585 91.683 33.942 94.4225 35.1578C94.9617 35.1578 100.859 38.3869 101.249 38.6125L204.731 98.1787C206.574 99.2404 207.454 100.759 207.339 102.365C207.218 104.043 206.002 105.715 203.818 106.975L159.374 132.632C159.182 132.742 156.431 134.277 156.211 134.365C154.522 135.064 152.668 135.735 150.727 135.916C147.971 136.175 145.225 135.746 143.273 134.618L34.3832 71.9438C32.5403 70.8821 31.6602 69.3638 31.7757 67.7575C31.8967 66.0796 33.1125 64.4073 35.2964 63.1475Z" fill="black"/>
<path opacity="0.9091" d="M35.6206 63.3346L82.3747 36.3406C83.0953 35.9225 84.102 35.4659 84.9437 35.2073C88.3434 34.0906 92.3812 34.1621 95.0438 35.5209C95.3133 35.5209 101.563 39.0361 101.761 39.1461L204.643 98.3658C206.37 99.3615 207.173 100.764 207.041 102.222C206.904 103.735 205.776 105.264 203.73 106.441L159.567 131.939C159.468 131.994 156.552 133.65 156.442 133.7C154.77 134.409 152.943 135.119 151.012 135.322C148.278 135.608 145.528 135.207 143.597 134.09L34.7074 71.4158C32.98 70.4201 32.1769 69.0173 32.3089 67.5595C32.4464 66.0467 33.5797 64.5173 35.6206 63.3346Z" fill="black"/>
<path d="M143.922 133.557L35.0323 70.8822C31.7646 68.9953 32.1717 65.7001 35.9455 63.5217L82.9141 36.4066C86.6879 34.2282 92.3981 33.9916 95.6658 35.8785L204.555 98.5529C207.823 100.44 207.416 103.735 203.642 105.913L156.673 133.028C152.9 135.207 147.189 135.443 143.922 133.557Z" fill="black"/>
</g>
<path d="M159.049 125.921L202.959 100.572C207.91 97.711 207.288 92.716 201.573 89.4153L98.3219 29.7996C92.6007 26.4989 83.9529 26.1413 78.9964 28.9964L35.0864 54.3511C30.1354 57.2117 30.757 62.2067 36.4727 65.5074L139.723 125.123C145.445 128.424 154.098 128.781 159.049 125.921Z" fill="url(#paint0_linear_46_15335)"/>
<path d="M159.049 125.173L202.959 99.8236C205.171 98.5473 206.271 96.8419 206.304 95.0541C206.304 94.8945 206.299 91.4508 206.287 91.2968C206.106 89.2284 204.511 90.3671 201.573 88.6673L98.3223 29.0515C92.6012 25.7509 83.9534 25.3933 78.9969 28.2484L35.0869 53.5976C32.8754 54.8738 31.7752 52.6294 31.7422 54.4172C31.7422 54.5713 31.7422 58.6806 31.7587 58.8346C31.9347 60.9086 33.5301 63.0595 36.4732 64.7539L139.724 124.37C145.445 127.67 154.098 128.033 159.049 125.173Z" fill="#047267"/>
<path d="M159.049 121.41L202.959 96.0607C207.91 93.2001 207.288 88.2051 201.573 84.9044L98.3219 25.2887C92.6007 21.988 83.9529 21.6305 78.9964 24.4855L35.0864 49.8348C30.1354 52.6953 30.757 57.6904 36.4727 60.991L139.723 120.607C145.445 123.907 154.098 124.271 159.049 121.41Z" fill="url(#paint1_linear_46_15335)"/>
<path d="M200.412 85.6416L97.0344 25.9543C92.0228 23.0607 84.4368 22.7472 80.0964 25.2502L36.4174 50.4728C32.077 52.9814 32.6216 57.3603 37.6332 60.2539L141.01 119.941C146.022 122.835 153.608 123.148 157.948 120.645L201.627 95.4281C205.973 92.9141 205.429 88.5352 200.412 85.6416Z" fill="url(#paint2_linear_46_15335)"/>
<path d="M198.41 86.4997L95.5445 27.115C91.3471 24.6945 84.9988 24.4304 81.3626 26.5264L38.6188 51.2044C34.9825 53.3004 35.4391 56.9696 39.6365 59.3901L142.502 118.78C146.699 121.201 153.048 121.465 156.684 119.369L199.428 94.6908C203.064 92.5894 202.607 88.9257 198.41 86.4997Z" fill="#263238"/>
<path d="M81.7364 27.3131C85.1636 25.3327 90.6977 25.3272 94.1029 27.2911L198.102 87.3359C201.507 89.2999 201.49 92.496 198.063 94.4764L156.31 118.582C152.882 120.563 147.348 120.568 143.943 118.604L39.9443 58.5595C36.5391 56.5956 36.5556 53.3995 39.9828 51.4191L81.7364 27.3131Z" fill="#535353"/>
<path d="M150.092 119.226C147.914 119.226 145.879 118.747 144.366 117.873L40.367 57.8279C39.0027 57.0413 38.249 56.0401 38.249 55.0114C38.249 53.9717 39.0137 52.9594 40.4055 52.1563L82.1645 28.0503C83.6994 27.1646 85.7623 26.675 87.9572 26.675C90.1357 26.675 92.1711 27.1536 93.6784 28.0283L197.677 88.0732C199.042 88.8598 199.795 89.861 199.795 90.8897C199.795 91.9295 199.031 92.9417 197.639 93.7448L155.885 117.851C154.345 118.736 152.287 119.226 150.092 119.226Z" fill="url(#paint3_linear_46_15335)"/>
<path d="M63.983 80.608L59.197 77.8464C58.5974 77.4999 58.1133 76.5757 58.1133 75.778C58.1133 74.9804 58.5974 74.6173 59.197 74.9583L63.983 77.7199C64.5826 78.0665 65.0667 78.9907 65.0667 79.7883C65.0667 80.586 64.5826 80.9546 63.983 80.608Z" fill="url(#paint4_linear_46_15335)"/>
<path d="M63.983 80.608L59.197 77.8464C58.5974 77.4999 58.1133 76.5757 58.1133 75.778C58.1133 74.9804 58.5974 74.6173 59.197 74.9583L63.983 77.7199C64.5826 78.0665 65.0667 78.9907 65.0667 79.7883C65.0667 80.586 64.5826 80.9546 63.983 80.608Z" fill="#263238"/>
<path d="M64.4121 80.4539C64.3296 80.4539 64.2306 80.4209 64.1261 80.3604L59.3401 77.5988C58.8285 77.3073 58.3994 76.4711 58.3994 75.7779C58.3994 75.4699 58.4984 75.1123 58.768 75.1123C58.8505 75.1123 58.9495 75.1453 59.054 75.2058L63.84 77.9674C64.3516 78.259 64.7807 79.0951 64.7807 79.7883C64.7807 80.0963 64.6872 80.4539 64.4121 80.4539Z" fill="#07D1BD"/>
<path d="M106.232 101.353L36.4725 60.8976C33.5294 59.1977 31.9341 57.0523 31.7581 54.9784C31.7526 54.9068 31.7471 54.0707 31.7471 53.1465C31.7471 53.163 31.7471 57.4539 31.7581 57.6134C31.9341 59.6873 33.5294 61.8383 36.4725 63.5326L106.232 101.353Z" fill="#0AAF9F"/>
<path d="M185.02 109.874L177.159 114.413C177.159 112.977 178.034 111.31 179.107 110.688L183.067 108.4C184.146 107.778 185.02 108.438 185.02 109.874Z" fill="black"/>
<path d="M176.631 105.77L188.177 99.345L182.308 97.8157L153.229 98.0412L127.94 91.5499L119.138 88.1557L90.1143 86.5164L116.069 101.501L127.665 103.058L137.506 102.574L147.04 104.169L176.631 105.77Z" fill="#263238"/>
<path d="M185.866 81.2463L183.066 79.6289L175.26 83.8263L153.91 71.5533L161.535 67.1964L158.779 65.6066L151.149 69.9635L127.719 56.4912L135.41 52.1123L132.648 50.517L79.832 80.6081L82.5936 82.2035L124.947 58.07L148.382 71.5423L133.358 80.1295L134.722 82.517L151.143 73.1321L172.411 85.3611L160.352 91.8414L143.832 81.9889L142.424 84.3489L159.131 94.317L159.301 115.881L162.041 114.303L161.887 94.9221L189.453 95.1586L192.33 96.8145L195.081 95.2246L178.066 85.4436L185.866 81.2463ZM184.59 92.3641L165.496 92.199L175.216 86.9729L184.59 92.3641Z" fill="#263238"/>
<path d="M139.834 115.023L130.823 109.45L137.628 105.721L138.568 86.5107L124.986 77.8135L113.973 84.7999C112.928 85.46 111.607 85.4875 110.54 84.8604L70.5908 61.5906L75.6794 56.9147L112.146 78.149L123.237 71.1131C124.32 70.4254 125.701 70.4309 126.785 71.1186L143.745 81.9833C144.741 82.6214 145.318 83.7437 145.263 84.9264L144.163 107.344C144.119 108.18 143.767 108.966 143.167 109.549L139.834 115.023Z" fill="#263238"/>
<path d="M109.324 37.0555L56.5078 67.1467L59.2694 68.742L112.086 38.6509L109.324 37.0555Z" fill="#263238"/>
<path d="M85.958 13.3352V52.1566L97.5592 45.4889V6.6676L85.958 13.3352Z" fill="#08DFCB"/>
<path d="M85.9648 13.3354V52.1567L74.5264 45.4891V6.6759L85.9648 13.3354Z" fill="#088C80"/>
<path d="M78.0221 10.274L76.7725 9.54541V45.4115L78.0221 46.1401V10.274Z" fill="white"/>
<path d="M80.6696 11.5981L79.4199 10.8695V46.7356L80.6696 47.4642V11.5981Z" fill="white"/>
<path d="M83.3171 13.584L82.0674 12.8553V48.7214L83.3171 49.4501V13.584Z" fill="white"/>
<path d="M93.9023 10.1068L95.152 9.37817V45.2483L93.9023 45.977V10.1068Z" fill="white"/>
<path d="M91.2539 12.0928L92.5036 11.3641V47.2343L91.2539 47.9629V12.0928Z" fill="white"/>
<path d="M88.6064 13.4167L89.8561 12.6881V48.5583L88.6064 49.2869V13.4167Z" fill="white"/>
<path d="M74.5264 6.67579L85.9648 13.3353L97.5578 6.66765L86.1072 0L74.5264 6.67579Z" fill="#08BAA9"/>
<path d="M69.3203 59.3739V61.6941L82.7248 53.9885V51.6682L69.3203 59.3739Z" fill="url(#paint5_linear_46_15335)"/>
<path d="M69.3286 59.3738V61.694L56.1113 53.9884V51.6763L69.3286 59.3738Z" fill="url(#paint6_linear_46_15335)"/>
<path d="M56.1113 51.6764L69.3286 59.3739L82.7249 51.6683L69.4955 43.9626L56.1113 51.6764Z" fill="#263238"/>
<path d="M69.3379 21.965V58.3155L80.935 51.6478V15.2974L69.3379 21.965Z" fill="#059789"/>
<path d="M69.3417 21.965V58.3155L57.9033 51.6479V15.3055L69.3417 21.965Z" fill="#08BAA9"/>
<path d="M68.3476 22.6205L58.916 17.1293V18.4481L68.3476 23.9394V22.6205Z" fill="white"/>
<path d="M68.3476 25.2683L58.916 19.7771V21.096L68.3476 26.5872V25.2683Z" fill="white"/>
<path d="M68.3476 27.9163L58.916 22.425V23.7439L68.3476 29.2352V27.9163Z" fill="white"/>
<path d="M68.3476 30.5642L58.916 25.073V26.3919L68.3476 31.8831V30.5642Z" fill="white"/>
<path d="M68.3476 33.2122L58.916 27.7209V29.0398L68.3476 34.5311V33.2122Z" fill="white"/>
<path d="M68.3476 35.86L58.916 30.3688V31.6876L68.3476 37.1789V35.86Z" fill="white"/>
<path d="M68.3476 38.508L58.916 33.0167V34.3356L68.3476 39.8268V38.508Z" fill="white"/>
<path d="M68.3476 41.156L58.916 35.6648V36.9837L68.3476 42.4749V41.156Z" fill="white"/>
<path d="M68.3476 43.8039L58.916 38.3126V39.6315L68.3476 45.1227V43.8039Z" fill="white"/>
<path d="M68.3476 46.4518L58.916 40.9606V42.2794L68.3476 47.7707V46.4518Z" fill="white"/>
<path d="M68.3476 49.0996L58.916 43.6084V44.9273L68.3476 50.4185V49.0996Z" fill="white"/>
<path d="M68.3476 51.7477L58.916 46.2565V47.5753L68.3476 53.0666V51.7477Z" fill="white"/>
<path d="M68.3476 54.3957L58.916 48.9044V50.2233L68.3476 55.7145V54.3957Z" fill="white"/>
<path d="M70.5098 22.6205L79.9373 17.1293V18.4481L70.5098 23.9394V22.6205Z" fill="white"/>
<path d="M70.5098 25.2683L79.9373 19.7771V21.096L70.5098 26.5872V25.2683Z" fill="white"/>
<path d="M70.5098 27.9163L79.9373 22.425V23.7439L70.5098 29.2352V27.9163Z" fill="white"/>
<path d="M70.5098 30.5642L79.9373 25.073V26.3919L70.5098 31.8831V30.5642Z" fill="white"/>
<path d="M70.5098 33.2122L79.9373 27.7209V29.0398L70.5098 34.5311V33.2122Z" fill="white"/>
<path d="M70.5098 35.86L79.9373 30.3688V31.6876L70.5098 37.1789V35.86Z" fill="white"/>
<path d="M70.5098 38.508L79.9373 33.0167V34.3356L70.5098 39.8268V38.508Z" fill="white"/>
<path d="M70.5098 41.156L79.9373 35.6648V36.9837L70.5098 42.4749V41.156Z" fill="white"/>
<path d="M70.5098 43.8039L79.9373 38.3126V39.6315L70.5098 45.1227V43.8039Z" fill="white"/>
<path d="M70.5098 46.4518L79.9373 40.9606V42.2794L70.5098 47.7707V46.4518Z" fill="white"/>
<path d="M70.5098 49.0996L79.9373 43.6084V44.9273L70.5098 50.4185V49.0996Z" fill="white"/>
<path d="M70.5098 51.7477L79.9373 46.2565V47.5753L70.5098 53.0666V51.7477Z" fill="white"/>
<path d="M70.5098 54.3957L79.9373 48.9044V50.2233L70.5098 55.7145V54.3957Z" fill="white"/>
<path d="M57.9033 15.3055L69.3417 21.9651L80.9348 15.2974L69.4842 8.62976L57.9033 15.3055Z" fill="#047267"/>
<path d="M77.5725 15.2688L69.476 10.5551L61.2656 15.277L69.3743 19.9948L77.5725 15.2688Z" fill="#08BAA9"/>
<path d="M69.4801 11.9472V10.5551H69.476L61.2656 15.277L62.4705 15.9771L69.4801 11.9472Z" fill="url(#paint7_linear_46_15335)"/>
<path d="M69.4756 11.9472L76.3712 15.9608L77.572 15.2688L69.4756 10.5551V11.9472Z" fill="url(#paint8_linear_46_15335)"/>
<path d="M102.764 22.6039V61.4293L114.365 54.7576V15.9363L102.764 22.6039Z" fill="#059789"/>
<path d="M102.772 22.604V61.4294L91.334 54.7617V15.9445L102.772 22.604Z" fill="#08BAA9"/>
<path d="M100.517 22.5957V23.8821L101.632 24.5659V23.2755L100.517 22.5957ZM98.4858 22.7097L99.6011 23.3936V22.1073L98.4858 21.4234V22.7097ZM92.3799 19.1927L93.4952 19.8766V18.5862L92.3799 17.9023V19.1927ZM94.4152 20.3651L95.5305 21.0489V19.7585L94.4152 19.0747V20.3651ZM96.4505 21.5374L97.5658 22.2213V20.9309L96.4505 20.247V21.5374Z" fill="white"/>
<path d="M100.517 25.2438V26.5301L101.632 27.214V25.9236L100.517 25.2438ZM98.4858 25.3578L99.6011 26.0417V24.7553L98.4858 24.0715V25.3578ZM92.3799 21.8408L93.4952 22.5247V21.2343L92.3799 20.5504V21.8408ZM94.4152 23.0131L95.5305 23.697V22.4066L94.4152 21.7227V23.0131ZM96.4505 24.1855L97.5658 24.8693V23.5789L96.4505 22.8951V24.1855Z" fill="white"/>
<path d="M100.517 27.8916V29.178L101.632 29.8618V28.5714L100.517 27.8916ZM98.4858 28.0056L99.6011 28.6895V27.4032L98.4858 26.7193V28.0056ZM92.3799 24.4886L93.4952 25.1725V23.8821L92.3799 23.1982V24.4886ZM94.4152 25.661L95.5305 26.3448V25.0544L94.4152 24.3706V25.661ZM96.4505 26.8333L97.5658 27.5172V26.2268L96.4505 25.5429V26.8333Z" fill="white"/>
<path d="M100.517 30.5397V31.826L101.632 32.5099V31.2195L100.517 30.5397ZM98.4858 30.6537L99.6011 31.3376V30.0512L98.4858 29.3674V30.6537ZM92.3799 27.1367L93.4952 27.8206V26.5302L92.3799 25.8463V27.1367ZM94.4152 28.309L95.5305 28.9929V27.7025L94.4152 27.0186V28.309ZM96.4505 29.4814L97.5658 30.1652V28.8748L96.4505 28.191V29.4814Z" fill="white"/>
<path d="M100.517 33.8495V35.1358L101.632 35.8197V34.5293L100.517 33.8495ZM98.4858 33.9635L99.6011 34.6474V33.3611L98.4858 32.6772V33.9635ZM92.3799 30.4465L93.4952 31.1304V29.84L92.3799 29.1561V30.4465ZM94.4152 31.6188L95.5305 32.3027V31.0123L94.4152 30.3285V31.6188ZM96.4505 32.7912L97.5658 33.475V32.1847L96.4505 31.5008V32.7912Z" fill="white"/>
<path d="M100.517 36.4975V37.7838L101.632 38.4677V37.1773L100.517 36.4975ZM98.4858 36.6115L99.6011 37.2953V36.009L98.4858 35.3251V36.6115ZM92.3799 33.0945L93.4952 33.7783V32.4879L92.3799 31.8041V33.0945ZM94.4152 34.2668L95.5305 34.9507V33.6603L94.4152 32.9764V34.2668ZM96.4505 35.4391L97.5658 36.123V34.8326L96.4505 34.1487V35.4391Z" fill="white"/>
<path d="M100.517 39.1454V40.4317L101.632 41.1156V39.8252L100.517 39.1454ZM98.4858 39.2594L99.6011 39.9433V38.657L98.4858 37.9731V39.2594ZM92.3799 35.7424L93.4952 36.4263V35.1359L92.3799 34.452V35.7424ZM94.4152 36.9147L95.5305 37.5986V36.3082L94.4152 35.6244V36.9147ZM96.4505 38.0871L97.5658 38.7709V37.4806L96.4505 36.7967V38.0871Z" fill="white"/>
<path d="M100.517 41.7934V43.0797L101.632 43.7636V42.4732L100.517 41.7934ZM98.4858 41.9074L99.6011 42.5912V41.3049L98.4858 40.621V41.9074ZM92.3799 38.3904L93.4952 39.0742V37.7838L92.3799 37.1V38.3904ZM94.4152 39.5627L95.5305 40.2466V38.9562L94.4152 38.2723V39.5627ZM96.4505 40.735L97.5658 41.4189V40.1285L96.4505 39.4446V40.735Z" fill="white"/>
<path d="M100.517 44.4412V45.7275L101.632 46.4114V45.121L100.517 44.4412ZM98.4858 44.5552L99.6011 45.239V43.9527L98.4858 43.2689V44.5552ZM92.3799 41.0382L93.4952 41.722V40.4317L92.3799 39.7478V41.0382ZM94.4152 42.2105L95.5305 42.8944V41.604L94.4152 40.9201V42.2105ZM96.4505 43.3829L97.5658 44.0667V42.7763L96.4505 42.0925V43.3829Z" fill="white"/>
<path d="M100.517 47.0892V48.3755L101.632 49.0593V47.7689L100.517 47.0892ZM98.4858 47.2031L99.6011 47.887V46.6007L98.4858 45.9168V47.2031ZM92.3799 43.6861L93.4952 44.37V43.0796L92.3799 42.3958V43.6861ZM94.4152 44.8585L95.5305 45.5423V44.2519L94.4152 43.5681V44.8585ZM96.4505 46.0308L97.5658 46.7147V45.4243L96.4505 44.7404V46.0308Z" fill="white"/>
<path d="M100.517 49.7371V51.0234L101.632 51.7073V50.4169L100.517 49.7371ZM98.4858 49.8511L99.6011 50.5349V49.2486L98.4858 48.5648V49.8511ZM92.3799 46.3341L93.4952 47.0179V45.7276L92.3799 45.0437V46.3341ZM94.4152 47.5064L95.5305 48.1903V46.8999L94.4152 46.216V47.5064ZM96.4505 48.6787L97.5658 49.3626V48.0722L96.4505 47.3884V48.6787Z" fill="white"/>
<path d="M100.517 52.6491V53.9354L101.632 54.6193V53.3289L100.517 52.6491ZM98.4858 52.7671L99.6011 53.451V52.1606L98.4858 51.4768V52.7671ZM92.3799 49.2461L93.4952 49.9299V48.6395L92.3799 47.9557V49.2461ZM94.4152 50.4184L95.5305 51.1023V49.8119L94.4152 49.128V50.4184ZM96.4505 51.5907L97.5658 52.2746V50.9842L96.4505 50.3004V51.5907Z" fill="url(#paint9_linear_46_15335)"/>
<path d="M100.517 55.3805V56.6668L101.632 57.3507V56.0603L100.517 55.3805ZM98.4858 55.4985L99.6011 56.1824V54.892L98.4858 54.2082V55.4985ZM92.3799 51.9815L93.4952 52.6654V51.375L92.3799 50.6912V51.9815ZM94.4152 53.1539L95.5305 53.8377V52.5474L94.4152 51.8635V53.1539ZM96.4505 54.3262L97.5658 55.0101V53.7197L96.4505 53.0358V54.3262Z" fill="url(#paint10_linear_46_15335)"/>
<path d="M113.262 17.9065L112.147 18.5904V19.8807L113.262 19.1969V17.9065ZM111.227 19.0788L110.112 19.7627V21.0531L111.227 20.3692V19.0788ZM109.192 20.2512L108.076 20.935V22.2254L109.192 21.5415V20.2512ZM104.01 23.2797V24.5701L105.125 23.8862V22.5958L104.01 23.2797ZM107.16 21.4235L106.045 22.1074V23.3977L107.16 22.7139V21.4235Z" fill="white"/>
<path d="M113.262 20.6379L112.147 21.3218V22.6122L113.262 21.9283V20.6379ZM111.227 21.8103L110.112 22.4941V23.7845L111.227 23.1007V21.8103ZM109.192 22.9826L108.076 23.6665V24.9568L109.192 24.273V22.9826ZM104.01 26.0111V27.3015L105.125 26.6177V25.3313L104.01 26.0111ZM107.16 24.1549L106.045 24.8388V26.1292L107.16 25.4453V24.1549Z" fill="white"/>
<path d="M113.262 23.3693L112.147 24.0531V25.3435L113.262 24.6596V23.3693ZM111.227 24.5416L110.112 25.2255V26.5158L111.227 25.832V24.5416ZM109.192 25.7139L108.076 26.3978V27.6882L109.192 27.0043V25.7139ZM104.01 28.7425V30.0328L105.125 29.349V28.0627L104.01 28.7425ZM107.16 26.8863L106.045 27.5701V28.8605L107.16 28.1766V26.8863Z" fill="white"/>
<path d="M113.262 26.1007L112.147 26.7846V28.075L113.262 27.3911V26.1007ZM111.227 27.273L110.112 27.9569V29.2473L111.227 28.5634V27.273ZM109.192 28.4454L108.076 29.1292V30.4196L109.192 29.7358V28.4454ZM104.01 31.478V32.7684L105.125 32.0845V30.7982L104.01 31.478ZM107.16 29.6177L106.045 30.3016V31.592L107.16 30.9081V29.6177Z" fill="white"/>
<path d="M113.262 28.8361L112.147 29.5199V30.8103L113.262 30.1264V28.8361ZM111.227 30.0084L110.112 30.6923V31.9826L111.227 31.2988V30.0084ZM109.192 31.1807L108.076 31.8646V33.155L109.192 32.4711V31.1807ZM104.01 34.2093V35.4996L105.125 34.8158V33.5295L104.01 34.2093ZM107.16 32.3531L106.045 33.0369V34.3273L107.16 33.6434V32.3531Z" fill="white"/>
<path d="M113.262 31.5674L112.147 32.2512V33.5416L113.262 32.8578V31.5674ZM111.227 32.7397L110.112 33.4236V34.714L111.227 34.0301V32.7397ZM109.192 33.9121L108.076 34.5959V35.8863L109.192 35.2024V33.9121ZM104.01 36.9406V38.231L105.125 37.5471V36.2608L104.01 36.9406ZM107.16 35.0844L106.045 35.7682V37.0586L107.16 36.3748V35.0844Z" fill="white"/>
<path d="M113.262 34.2988L112.147 34.9827V36.2731L113.262 35.5892V34.2988ZM111.227 35.4712L110.112 36.155V37.4454L111.227 36.7615V35.4712ZM109.192 36.6435L108.076 37.3274V38.6177L109.192 37.9339V36.6435ZM104.01 39.672V40.9624L105.125 40.2785V38.9922L104.01 39.672ZM107.16 37.8158L106.045 38.4997V39.7901L107.16 39.1062V37.8158Z" fill="white"/>
<path d="M113.262 37.0303L112.147 37.7141V39.0045L113.262 38.3207V37.0303ZM111.227 38.2026L110.112 38.8865V40.1768L111.227 39.493V38.2026ZM109.192 39.3749L108.076 40.0588V41.3492L109.192 40.6653V39.3749ZM104.01 42.4035V43.6938L105.125 43.01V41.7237L104.01 42.4035ZM107.16 40.5473L106.045 41.2311V42.5215L107.16 41.8377V40.5473Z" fill="white"/>
<path d="M113.262 39.7616L112.147 40.4455V41.7358L113.262 41.052V39.7616ZM111.227 40.9339L110.112 41.6178V42.9082L111.227 42.2243V40.9339ZM109.192 42.1103L108.076 42.7942V44.0846L109.192 43.4007V42.1103ZM104.01 45.1389V46.4292L105.125 45.7454V44.4591L104.01 45.1389ZM107.16 43.2827L106.045 43.9665V45.2569L107.16 44.573V43.2827Z" fill="white"/>
<path d="M113.262 42.4971L112.147 43.1809V44.4713L113.262 43.7875V42.4971ZM111.227 43.6694L110.112 44.3533V45.6436L111.227 44.9598V43.6694ZM109.192 44.8417L108.076 45.5256V46.816L109.192 46.1321V44.8417ZM104.01 47.8703V49.1606L105.125 48.4768V47.1905L104.01 47.8703ZM107.16 46.0141L106.045 46.6979V47.9883L107.16 47.3045V46.0141Z" fill="white"/>
<path d="M113.262 45.2284L112.147 45.9123V47.2026L113.262 46.5188V45.2284ZM111.227 46.4007L110.112 47.0846V48.375L111.227 47.6911V46.4007ZM109.192 47.5731L108.076 48.2569V49.5473L109.192 48.8634V47.5731ZM104.01 50.6016V51.892L105.125 51.2081V49.9218L104.01 50.6016ZM107.16 48.7454L106.045 49.4293V50.7196L107.16 50.0358V48.7454Z" fill="white"/>
<path d="M113.262 47.9597L112.147 48.6436V49.934L113.262 49.2501V47.9597ZM111.227 49.1321L110.112 49.8159V51.1063L111.227 50.4224V49.1321ZM109.192 50.3044L108.076 50.9882V52.2786L109.192 51.5948V50.3044ZM104.01 53.3329V54.6233L105.125 53.9394V52.6531L104.01 53.3329ZM107.16 51.4767L106.045 52.1606V53.451L107.16 52.7671V51.4767Z" fill="white"/>
<path d="M113.262 50.6913L112.147 51.3751V52.6655L113.262 51.9817V50.6913ZM111.227 51.8636L110.112 52.5475V53.8379L111.227 53.154V51.8636ZM109.192 53.0359L108.076 53.7198V55.0102L109.192 54.3263V53.0359ZM104.01 56.0685V57.3589L105.125 56.6751V55.3888L104.01 56.0685ZM107.16 54.2083L106.045 54.8921V56.1825L107.16 55.4987V54.2083Z" fill="white"/>
<path d="M91.334 15.9443L102.772 22.6038L114.365 15.9362L102.915 9.26855L91.334 15.9443Z" fill="#047267"/>
<path d="M97.3096 56.447V64.58L102.764 61.4294V53.2922L97.3096 56.447Z" fill="#059789"/>
<path d="M97.3134 56.447V64.5801L85.875 57.9124V49.7834L97.3134 56.447Z" fill="#08DFCB"/>
<path d="M97.3096 57.4767V58.4048L102.764 55.2501V54.326L97.3096 57.4767Z" fill="#047267"/>
<path d="M97.3134 57.4769V58.405L85.875 51.7373V50.8174L97.3134 57.4769Z" fill="#047267"/>
<path d="M85.875 49.7833L97.3134 56.4469L102.764 53.2922L91.3133 46.6245L85.875 49.7833Z" fill="#08BAA9"/>
<path d="M95.0629 58.5351V63.1796L96.1783 63.8635V59.2189L95.0629 58.5351ZM86.9258 58.4862L88.0411 59.1701V54.5255L86.9258 53.8417V58.4862ZM88.957 59.6586L90.0724 60.3424V55.6979L88.957 55.014V59.6586ZM90.9923 60.8309L92.1077 61.5148V56.8702L90.9923 56.1863V60.8309ZM93.0276 62.0032L94.143 62.6871V58.0425L93.0276 57.3587V62.0032Z" fill="white"/>
<path d="M98.5518 59.2191V63.8637L99.6671 63.1798V58.5353L98.5518 59.2191ZM101.662 57.3629L100.546 58.0468V62.6913L101.662 62.0075V57.3629Z" fill="white"/>
<path d="M102.799 19.4983V21.0614L111.844 15.8632V14.296L102.799 19.4983Z" fill="#08BAA9"/>
<path d="M102.801 19.4983V21.0614L93.8828 15.8632V14.3042L102.801 19.4983Z" fill="#08BAA9"/>
<path d="M102.799 19.4982V19.885L111.844 14.6868V14.296L102.799 19.4982Z" fill="#059789"/>
<path d="M102.801 19.4983V19.885L93.8828 14.6868V14.3042L102.801 19.4983Z" fill="#059789"/>
<path d="M93.8828 14.3042L102.801 19.4983L111.842 14.2961L102.915 9.0979L93.8828 14.3042Z" fill="#047267"/>
<path d="M91.9514 157.822L0 104.934L16.7784 89.1183L101.039 137.655C102.915 138.733 105.226 138.749 107.112 137.688L121.712 129.695L125.316 113.312C125.651 112.515 126.245 111.854 126.999 111.431L130.993 109.197L140.306 114.952L138.023 116.393C137.127 116.96 136.637 117.983 136.758 119.033L137.677 135.014C137.963 137.528 136.731 139.976 134.536 141.247L105.479 157.805C101.298 160.22 96.1432 160.226 91.9514 157.822Z" fill="#047267"/>
<path d="M98.7004 158.521C96.5275 158.521 94.382 157.948 92.5007 156.865L1.83105 104.719L16.9372 90.4771L100.488 138.606C101.589 139.239 102.837 139.569 104.103 139.569C105.34 139.569 106.567 139.25 107.651 138.645L122.581 130.465L126.333 113.736C126.575 113.164 127.004 112.685 127.543 112.383L131.889 109.737L139.156 114.22L137.439 115.447C136.196 116.233 135.503 117.68 135.668 119.143L136.587 135.124C136.823 137.209 135.806 139.228 133.99 140.279L104.933 156.837C103.041 157.943 100.884 158.521 98.7004 158.521Z" fill="#5A448A"/>
<path d="M98.7014 158.521C96.5285 158.521 94.383 157.948 92.5016 156.865L1.83203 104.719L16.9381 90.4771L100.489 138.606C101.59 139.239 102.838 139.569 104.104 139.569C105.341 139.569 106.568 139.25 107.652 138.645L122.582 130.465L126.334 113.736C126.576 113.164 127.005 112.685 127.544 112.383L131.89 109.737L139.157 114.22L137.44 115.447C136.197 116.233 135.504 117.68 135.669 119.143L136.588 135.124C136.824 137.209 135.807 139.228 133.991 140.279L104.934 156.837C103.042 157.943 100.885 158.521 98.7014 158.521Z" fill="url(#paint11_linear_46_15335)"/>
<path d="M98.7014 158.521C96.5285 158.521 94.383 157.948 92.5016 156.865L1.83203 104.719L16.9381 90.4771L100.489 138.606C101.59 139.239 102.838 139.569 104.104 139.569C105.341 139.569 106.568 139.25 107.652 138.645L122.582 130.465L126.334 113.736C126.576 113.164 127.005 112.685 127.544 112.383L131.89 109.737L139.157 114.22L137.44 115.447C136.197 116.233 135.504 117.68 135.669 119.143L136.588 135.124C136.824 137.209 135.807 139.228 133.991 140.279L104.934 156.837C103.042 157.943 100.885 158.521 98.7014 158.521Z" fill="#263238"/>
<path d="M100.022 148.927C99.659 148.927 99.3014 148.894 98.9494 148.833L99.0429 148.288C99.637 148.393 100.264 148.404 100.875 148.31L100.957 148.855C100.644 148.899 100.33 148.927 100.022 148.927ZM102.866 148.25L102.619 147.76C102.707 147.716 102.789 147.672 102.877 147.623L104.291 146.831L104.561 147.309L103.147 148.101C103.053 148.151 102.96 148.2 102.866 148.25ZM97.0515 148.184C96.991 148.151 96.936 148.118 96.8754 148.085L95.3736 147.221L95.6487 146.743L97.1505 147.606C97.2055 147.639 97.2605 147.667 97.31 147.694L97.0515 148.184ZM106.238 146.374L105.969 145.895L107.652 144.955L107.922 145.433L106.238 146.374ZM93.7013 146.264L92.0289 145.307L92.304 144.828L93.9763 145.785L93.7013 146.264ZM109.605 144.493L109.335 144.014L111.019 143.073L111.288 143.552L109.605 144.493ZM90.3621 144.35L88.6898 143.392L88.9648 142.914L90.6372 143.871L90.3621 144.35ZM112.966 142.617L112.697 142.138L114.38 141.197L114.65 141.676L112.966 142.617ZM87.0229 142.435L85.3506 141.478L85.6256 140.999L87.298 141.957L87.0229 142.435ZM116.327 140.741L116.058 140.262L117.741 139.322L118.011 139.8L116.327 140.741ZM83.6837 140.521L82.0114 139.564L82.2864 139.085L83.9588 140.042L83.6837 140.521ZM119.689 138.865L119.419 138.386L121.102 137.446L121.372 137.924L119.689 138.865ZM80.339 138.601L78.6667 137.644L78.9418 137.165L80.6141 138.122L80.339 138.601ZM123.05 136.984L122.78 136.505L124.464 135.564L124.733 136.043L123.05 136.984ZM76.9999 136.687L75.3275 135.729L75.6026 135.251L77.2749 136.208L76.9999 136.687ZM126.411 135.108L126.141 134.629L127.5 133.87C127.599 133.815 127.698 133.754 127.792 133.688L128.105 134.14C127.995 134.217 127.885 134.288 127.77 134.349L126.411 135.108ZM73.6607 134.772L71.9883 133.815L72.2634 133.336L73.9357 134.294L73.6607 134.772ZM70.3215 132.858L68.6491 131.901L68.9242 131.422L70.5965 132.379L70.3215 132.858ZM129.437 132.588L128.947 132.341C129.195 131.846 129.321 131.29 129.321 130.74V130.602H129.871V130.74C129.871 131.383 129.723 132.022 129.437 132.588ZM66.9768 130.938L65.3045 129.981L65.5795 129.502L67.2519 130.459L66.9768 130.938ZM63.6376 129.023L61.9653 128.066L62.2403 127.588L63.9127 128.545L63.6376 129.023ZM129.871 128.682H129.321V126.757H129.871V128.682ZM60.2984 127.109L58.6261 126.152L58.9011 125.673L60.5735 126.63L60.2984 127.109ZM56.9592 125.195L55.2869 124.237L55.562 123.759L57.2343 124.716L56.9592 125.195ZM129.871 124.832H129.321V122.906H129.871V124.832ZM53.6201 123.28L51.9477 122.323L52.2228 121.844L53.8951 122.802L53.6201 123.28ZM50.2754 121.36L48.603 120.403L48.8781 119.925L50.5504 120.882L50.2754 121.36ZM129.871 120.981H129.321V119.055H129.871V120.981ZM46.9362 119.446L45.2638 118.489L45.5389 118.01L47.2112 118.967L46.9362 119.446ZM43.597 117.532L41.9247 116.574L42.1997 116.096L43.8721 117.053L43.597 117.532ZM130.102 117.251L129.585 117.059C129.827 116.415 130.229 115.832 130.746 115.381L131.109 115.793C130.658 116.189 130.311 116.695 130.102 117.251ZM40.2578 115.617L38.5855 114.66L38.8605 114.181L40.5329 115.139L40.2578 115.617ZM132.682 114.765L132.391 114.297L134.025 113.279L134.316 113.747L132.682 114.765ZM36.9186 113.697L35.2463 112.74L35.5213 112.262L37.1937 113.219L36.9186 113.697ZM33.5739 111.783L31.9071 110.826L32.1822 110.347L33.8545 111.304L33.5739 111.783ZM30.2348 109.869L28.5624 108.911L28.8375 108.433L30.5098 109.39L30.2348 109.869ZM26.8956 107.954L25.2232 106.997L25.4983 106.518L27.1706 107.476L26.8956 107.954ZM23.5564 106.034L21.884 105.077L22.1591 104.598L23.8314 105.556L23.5564 106.034ZM20.2117 104.12L18.5394 103.163L18.8144 102.684L20.4868 103.641L20.2117 104.12ZM16.8725 102.205L15.2002 101.248L15.4752 100.77L17.1476 101.727L16.8725 102.205ZM13.5333 100.291L11.861 99.3339L12.136 98.8553L13.8084 99.8125L13.5333 100.291ZM10.1941 98.3712L8.5218 97.414L8.79686 96.9354L10.4692 97.8926L10.1941 98.3712ZM6.84946 96.4568L5.18262 95.4996L5.45767 95.021L7.13002 95.9782L6.84946 96.4568Z" fill="white"/>
<path d="M49.9247 96.8855C50.1104 96.6279 51.2624 95.5097 51.4087 95.623C51.7268 95.8658 51.619 97.054 51.3476 97.5411C51.1002 97.9854 50.002 99.2196 49.9474 99.0784C49.8555 98.8121 49.7069 97.1945 49.9247 96.8855Z" fill="#DCDCDC"/>
<path d="M6.41853 102.153C5.75 102.567 6.04986 105.609 6.49108 106.891L10.3877 104.507L13.1262 110.158C17.7557 110.399 25.0506 92.4421 25.7191 92.0274L6.41853 102.153Z" fill="#262523"/>
<path d="M37.4091 117.93C36.724 118.354 36.7422 122.387 37.2204 123.499L40.7579 121.193L44.0528 126.903C46.9273 126.054 55.0655 107.626 55.7506 107.203L37.4091 117.93Z" fill="#262523"/>
<path d="M16.3721 105.145C15.9867 104.333 15.4596 103.559 14.8606 102.912C14.3486 102.364 13.7805 101.911 13.1825 101.584C12.1237 101.018 11.1815 100.987 10.513 101.402L8.49083 102.655C9.15936 102.24 10.1016 102.271 11.1604 102.837C11.7581 103.155 12.3265 103.618 12.8385 104.166C13.4459 104.812 13.9646 105.586 14.3499 106.399C14.7887 107.31 15.0525 108.277 15.0793 109.184C15.114 110.36 14.7186 111.203 14.0585 111.618L16.0806 110.365C16.741 109.959 17.1279 109.115 17.1014 107.931C17.0746 107.024 16.8108 106.057 16.3721 105.145Z" fill="#232221"/>
<path d="M11.1613 102.837C9.0604 101.705 7.40921 102.712 7.47067 105.08C7.53238 107.457 9.28864 110.296 11.3895 111.428C13.4904 112.559 15.1416 111.552 15.0799 109.176C15.0184 106.807 13.2622 103.968 11.1613 102.837Z" fill="#353433"/>
<path opacity="0.5" d="M11.1976 104.054C9.69445 103.242 8.50557 103.966 8.54721 105.662C8.58911 107.367 9.85109 109.406 11.3543 110.219C12.8574 111.032 14.0463 110.307 14.0044 108.603C13.9625 106.898 12.7005 104.859 11.1976 104.054Z" fill="#232221"/>
<path d="M9.97358 103.922L10.0825 103.911L10.7649 103.966C10.7649 103.966 10.9165 103.979 10.8084 104.015C10.3253 104.164 10.0119 104.652 10.0172 105.4C10.0294 106.669 10.9406 108.214 12.0689 108.853C12.7525 109.236 13.348 109.193 13.7152 108.821C13.7886 108.743 13.67 108.999 13.67 108.999L13.4634 109.4C13.0895 110.117 12.2626 110.293 11.2885 109.75C9.95526 108.999 8.87606 107.174 8.8569 105.67C8.85014 104.586 9.1835 103.92 9.97358 103.922Z" fill="#BABABA"/>
<path d="M11.2411 104.12C12.6514 104.919 13.8097 106.86 13.8231 108.457C13.8366 110.053 12.7045 110.708 11.2858 109.91C9.87552 109.111 8.71727 107.17 8.70379 105.574C8.69871 103.977 9.83079 103.322 11.2411 104.12ZM11.2461 104.288C9.9128 103.538 8.84691 104.157 8.85766 105.661C8.86842 107.166 9.95627 108.999 11.2893 109.742C12.6225 110.492 13.6884 109.872 13.6777 108.368C13.6669 106.864 12.5793 105.039 11.2461 104.288Z" fill="#DDDDDD"/>
<path d="M11.8161 104.221C13.0216 104.917 13.9956 106.594 13.9859 107.973C13.9843 109.343 13.0004 109.893 11.7948 109.197C10.5892 108.501 9.61526 106.824 9.62501 105.445C9.62662 104.075 10.6105 103.525 11.8161 104.221Z" fill="#9D9D9D"/>
<path d="M11.6117 105C12.5008 105.512 13.2098 106.752 13.2059 107.76C13.2021 108.769 12.4829 109.177 11.5937 108.665C10.7046 108.153 9.99564 106.914 9.9995 105.905C10.0031 104.888 10.7309 104.488 11.6117 105Z" fill="#DDDDDD"/>
<path d="M10.0026 105.703C10.0053 104.653 10.6471 104.188 11.4967 104.499C11.5988 104.538 11.7094 104.586 11.8205 104.65C12.3849 104.977 12.8898 105.568 13.2203 106.23C13.4703 106.727 13.6205 107.261 13.6183 107.757C13.6098 108.891 12.7995 109.344 11.8076 108.768L11.611 108.656C12.5001 109.168 13.2195 108.768 13.2232 107.751C13.2271 107.314 13.0954 106.839 12.8721 106.392C12.5774 105.804 12.1333 105.279 11.6289 104.991C11.5348 104.935 11.4326 104.888 11.3476 104.857C10.5997 104.576 10.0238 104.997 10.0251 105.896C10.0009 105.93 10.0026 105.703 10.0026 105.703Z" fill="#BABABA"/>
<path d="M33.3017 116.001L20.179 108.765L15.6368 108.924C15.6368 108.924 15.6205 111.219 15.4768 111.761L37.2464 123.507L37.1562 120.45L33.3017 116.001Z" fill="url(#paint12_linear_46_15335)"/>
<path d="M46.5352 121.392C46.1498 120.58 45.6227 119.806 45.0237 119.159C44.5117 118.611 43.9436 118.157 43.3456 117.83C42.2868 117.265 41.3446 117.234 40.676 117.649L38.6539 118.902C39.3224 118.487 40.2647 118.518 41.3235 119.084C41.9212 119.402 42.4895 119.864 43.0016 120.412C43.609 121.058 44.1277 121.833 44.513 122.645C44.9517 123.557 45.2156 124.524 45.2424 125.431C45.277 126.607 44.8817 127.45 44.2216 127.865L46.2437 126.612C46.9041 126.206 47.291 125.362 47.2645 124.178C47.2377 123.271 46.9739 122.304 46.5352 121.392Z" fill="#232221"/>
<path d="M41.3244 119.084C39.2235 117.952 37.5723 118.959 37.6338 121.327C37.6955 123.704 39.4517 126.543 41.5526 127.675C43.6535 128.806 45.3047 127.799 45.243 125.423C45.1815 123.054 43.4253 120.215 41.3244 119.084Z" fill="#353433"/>
<path opacity="0.5" d="M41.3519 120.302C39.8487 119.489 38.6599 120.213 38.7015 121.909C38.7434 123.614 40.0054 125.653 41.5086 126.466C43.0117 127.279 44.2006 126.555 44.1587 124.85C44.1255 123.153 42.8635 121.114 41.3519 120.302Z" fill="#232221"/>
<path d="M40.1376 120.169L40.2466 120.158L40.929 120.213C40.929 120.213 41.0806 120.225 40.9724 120.262C40.4894 120.411 40.176 120.899 40.1812 121.647C40.1935 122.916 41.1047 124.461 42.2329 125.1C42.9166 125.483 43.5121 125.44 43.8793 125.068C43.9526 124.99 43.8341 125.246 43.8341 125.246L43.6274 125.647C43.2536 126.364 42.4267 126.54 41.4526 125.997C40.1193 125.246 39.0401 123.421 39.021 121.917C39.0142 120.833 39.3392 120.168 40.1376 120.169Z" fill="#BABABA"/>
<path d="M41.4051 120.367C42.8155 121.166 43.9737 123.107 43.9872 124.703C44.0007 126.3 42.8686 126.955 41.4501 126.165C40.0398 125.366 38.8816 123.425 38.8681 121.829C38.8628 120.224 39.9948 119.568 41.4051 120.367ZM41.4101 120.535C40.0769 119.784 39.011 120.404 39.0217 121.908C39.0325 123.412 40.1203 125.246 41.4533 125.988C42.7866 126.739 43.8525 126.119 43.8417 124.615C43.8226 123.111 42.735 121.286 41.4101 120.535Z" fill="#DDDDDD"/>
<path d="M41.9705 120.476C43.1761 121.172 44.1501 122.849 44.1403 124.228C44.1387 125.598 43.1548 126.148 41.9492 125.452C40.7437 124.757 39.7697 123.079 39.7795 121.701C39.7892 120.322 40.7731 119.772 41.9705 120.476Z" fill="#9D9D9D"/>
<path d="M41.7748 121.247C42.6639 121.759 43.3729 122.998 43.369 124.007C43.3651 125.016 42.646 125.424 41.7568 124.912C40.8677 124.4 40.1587 123.16 40.1626 122.152C40.1662 121.135 40.8856 120.735 41.7748 121.247Z" fill="#DDDDDD"/>
<path d="M40.1657 121.95C40.1684 120.899 40.8102 120.435 41.6598 120.746C41.7618 120.785 41.8725 120.832 41.9836 120.896C42.548 121.224 43.0529 121.814 43.3834 122.477C43.6334 122.974 43.7836 123.507 43.7814 124.003C43.7813 125.138 42.9626 125.591 41.9707 125.015L41.7741 124.903C42.6632 125.415 43.3826 125.015 43.3862 123.998C43.3902 123.561 43.2585 123.086 43.0352 122.639C42.7405 122.051 42.2964 121.526 41.792 121.238C41.6979 121.182 41.5957 121.135 41.5107 121.104C40.7628 120.823 40.1869 121.243 40.1882 122.143C40.164 122.177 40.1657 121.95 40.1657 121.95Z" fill="#BABABA"/>
<path d="M65.9226 113.55C65.911 113.442 65.874 113.325 65.7959 113.243C65.6744 113.112 65.5375 113.032 65.5366 112.999C65.4248 112.061 65.2274 111.352 65.0829 111.012C64.5874 109.883 63.6717 108.473 62.5348 107.255C62.0573 106.739 61.5391 106.267 60.9725 105.863L51.6705 99.0866C51.5399 98.9307 45.1327 92.85 43.0916 91.7504L32.4504 86.0131C30.0163 84.6982 24.3576 84.8987 24.0313 84.9504C23.73 84.9929 21.6341 83.7436 18.165 83.5266C16.7839 83.4329 9.75827 87.1532 4.94355 90.8924C3.44821 92.0543 3.69685 96.7787 3.69685 96.7787C3.69685 96.7787 2.22071 97.1668 2.0755 97.3728C1.76929 97.8189 2.17304 102.673 2.43118 103.161C3.45383 105.064 6.48218 106.866 6.48218 106.866C6.57112 104.468 7.38327 100.091 11.4233 102.283C11.466 102.307 11.5171 102.33 11.5599 102.354C13.6889 103.586 15.4373 106.442 15.6279 108.916L37.1498 120.526C37.1947 118.062 38.9467 117.053 41.133 118.232C41.1758 118.256 41.2269 118.28 41.2699 118.312C43.3987 119.535 45.8831 122.84 46.0747 128.197C49.8652 129.623 54.4423 128.37 58.3317 126.314C62.3785 124.177 65.3437 121.56 65.9983 119.532C66.0679 119.328 66.0782 119.11 66.0718 118.891C66.0591 117.892 65.9689 113.978 65.9226 113.55ZM41.995 94.4638C42.9229 93.722 43.5279 93.1495 43.8055 92.8724C45.6999 94.4133 49.4748 97.8739 50.2867 98.9005L41.995 94.4638Z" fill="#C7C7C7"/>
<path d="M20.9883 104.9C20.9754 104.463 21.0719 104.032 21.2705 103.639L22.4301 101.353L24.5995 95.4055C22.3383 94.2535 20.2683 93.3145 19.5587 93.1925C17.7763 92.8837 13.511 93.0264 11.2346 93.0683C6.67938 93.0682 5.17352 95.2978 7.24486 97.4219C7.24486 97.4219 10.1377 100.329 14.8328 103.644C16.8586 105.08 18.6524 107.196 19.8924 109.345L21.4864 112.096L36.2185 120.041L34.6921 116.732L23.9951 111.098L21.3001 106.067C21.1044 105.703 21.0004 105.311 20.9883 104.9Z" fill="#047267"/>
<path opacity="0.6" d="M65.9877 115.179C66.0271 116.514 66.0705 118.269 66.0807 118.899C66.0871 119.118 66.0684 119.337 66.0072 119.54C65.3526 121.568 62.3874 124.185 58.3406 126.322C54.4512 128.378 49.8657 129.631 46.0836 128.205C45.8932 123.176 43.7062 119.98 41.6735 118.594C49.7951 124.389 56.549 122.568 65.9877 115.179ZM3.8255 93.724C3.61867 95.2597 3.70574 96.7867 3.70574 96.7867C3.70574 96.7867 2.2296 97.1749 2.0844 97.3809C1.77819 97.8269 2.18194 102.681 2.44007 103.169C3.46273 105.072 6.49107 106.874 6.49107 106.874C6.58001 104.476 7.39217 100.099 11.4322 102.291C11.4749 102.315 11.526 102.338 11.5687 102.362C13.6978 103.594 15.4462 106.45 15.6368 108.924L37.1587 120.534C37.193 118.567 38.3229 117.55 39.8853 117.806C38.3853 117.103 13.9613 106.259 3.8255 93.724Z" fill="url(#paint13_linear_46_15335)"/>
<path d="M50.7324 98.6268C48.3548 96.3773 46.2657 94.5059 44.0536 92.739C44.019 92.7064 43.9687 92.7079 43.9277 92.7427C43.8948 92.7689 43.8543 92.8205 43.8054 92.8724C45.6999 94.4133 49.4747 97.8739 50.2866 98.9005L41.995 94.4638C40.1312 95.9559 36.959 98.1086 32.5145 99.8702C32.4565 99.8972 32.4333 99.9651 32.46 100.015L37.0362 107.847C37.3197 108.343 37.9125 108.494 38.4539 108.326C40.4197 107.731 45.2154 105.908 49.7865 101.605C50.4901 100.954 51.5107 99.3686 50.7324 98.6268Z" fill="#101616"/>
<path opacity="0.4" d="M34.9831 108.362L34.775 108.427C34.7838 108.443 35.2409 109.976 35.137 110.727C35.0402 111.436 34.445 117.185 34.3325 118.214L22.9488 112.095L22.7821 106.444C22.7511 105.394 22.9642 104.354 23.4067 103.4L23.9679 102.198L23.7721 102.112L23.2034 103.347C22.7606 104.293 22.5476 105.333 22.5786 106.383L22.7431 112.244L34.3743 118.49L34.5111 118.57L34.5316 118.41C34.538 118.342 35.2366 111.539 35.3484 110.771C35.4587 109.953 35.0019 108.428 34.9831 108.362Z" fill="#C7C7C7"/>
<path d="M65.9355 113.701C65.934 113.651 65.9322 113.592 65.9226 113.55C65.911 113.441 65.8739 113.325 65.7959 113.243C65.6743 113.112 65.5375 113.032 65.5365 112.999C65.536 112.982 65.5355 112.965 65.5266 112.948C59.1788 122.835 46.7304 123.076 46.7312 123.101C46.7314 123.109 47.3553 123.461 48.9355 123.465C56.4332 123.495 64.8095 116.844 65.9355 113.701Z" fill="url(#paint14_linear_46_15335)"/>
<g opacity="0.5">
<path d="M45.2057 99.0586C44.1163 99.4521 43.0902 100.567 42.9174 101.547C42.7362 102.527 43.4817 103.009 44.5629 102.624C45.6523 102.231 46.6783 101.116 46.8511 100.136C47.0321 99.1476 46.2951 98.6651 45.2057 99.0586ZM45.1894 99.3617C45.2559 99.3345 45.3144 99.3244 45.3811 99.3056L44.9053 100.841L43.6689 100.524C44.0492 100.026 44.6073 99.5721 45.1894 99.3617ZM46.6037 100.295C46.4521 101.14 45.5643 102.099 44.633 102.437C43.7017 102.776 43.0674 102.357 43.219 101.513C43.2619 101.259 43.3802 100.995 43.541 100.747L45.0651 101.13L45.6404 99.2643C46.3107 99.1941 46.7343 99.5934 46.6037 100.295Z" fill="#D3D3D3"/>
<path d="M50.382 100.167C50.3876 99.7883 50.8043 99.6668 50.6519 99.3435C50.616 99.2689 49.9904 98.8587 49.9324 98.8856C44.9416 100.647 39.7226 104.07 36.6218 107.221C37.3869 108.938 38.1153 107.706 38.8622 107.953C38.8956 107.944 45.8015 105.294 50.382 100.167Z" fill="#D3D3D3"/>
<path d="M48.4543 99.4755C48.103 100.957 44.827 102.726 42.3387 102.707C42.3387 102.707 43.2823 101.359 45.0609 100.399C47.1369 99.2622 48.4543 99.4755 48.4543 99.4755Z" fill="#EAEAEA"/>
</g>
<path opacity="0.7" d="M43.9361 92.7508C43.4388 93.2698 39.5841 97.073 32.5144 99.8702C32.4563 99.8971 32.4331 99.965 32.4598 100.015L37.036 107.847C37.3196 108.343 37.9123 108.494 38.4537 108.326C40.4196 107.731 45.2152 105.908 49.7863 101.605C50.4897 100.945 51.5103 99.3602 50.732 98.6184C48.3544 96.3689 46.2653 94.4975 44.0532 92.7305C44.0191 92.7147 43.9687 92.7162 43.9361 92.7508Z" fill="#334547"/>
<path d="M35.0962 108.484L13.3036 96.8146C13.7125 96.1469 14.7582 95.4101 15.9006 94.8217C17.7055 93.8944 19.8411 93.9238 21.634 94.8711C24.4689 96.3843 28.3036 98.4563 29.9604 99.3488C30.4132 99.5959 30.7935 99.9545 31.0672 100.4C32.2519 102.382 34.834 107.576 35.0962 108.484Z" fill="#252F30"/>
<path d="M35.0325 108.595L23.693 102.551L13.2402 96.9341C13.172 96.9025 13.1528 96.819 13.1846 96.7592C13.5627 96.185 14.0892 95.7996 14.6167 95.4479C15.1529 95.1043 15.7063 94.777 16.2874 94.5329C17.4746 94.0357 18.8159 93.9204 20.06 94.2115C20.6858 94.3443 21.2899 94.5955 21.8452 94.8984L23.5104 95.7906L25.9783 97.113L29.3171 98.8971C29.5989 99.0484 29.8718 99.1833 30.1541 99.3514C30.4364 99.5196 30.6866 99.7391 30.8958 99.9935C31.1134 100.248 31.2565 100.538 31.4155 100.802L31.877 101.629C32.4812 102.737 33.0607 103.863 33.6234 104.989C33.909 105.552 34.1864 106.124 34.4554 106.696C34.7246 107.276 35.0015 107.831 35.2133 108.456C35.2404 108.522 35.2007 108.599 35.134 108.618C35.1088 108.618 35.0752 108.619 35.0325 108.595ZM34.8443 108.197C34.6624 107.732 34.4468 107.259 34.24 106.803C33.971 106.231 33.7022 105.668 33.4167 105.105C32.8624 103.978 32.2829 102.852 31.6871 101.743L31.2256 100.917C31.0663 100.644 30.9235 100.362 30.7319 100.133C30.5399 99.8947 30.3073 99.6999 30.0504 99.5394C29.7854 99.3875 29.5036 99.2361 29.2217 99.0848L25.8909 97.2836L23.4311 95.9526L21.7657 95.0521C21.2188 94.7488 20.6404 94.5138 20.0316 94.3888C18.8216 94.1136 17.5225 94.236 16.3855 94.7233C15.8046 94.9758 15.2759 95.2856 14.7568 95.6371C14.2544 95.9881 13.7452 96.3897 13.4237 96.8866L13.3763 96.7031L23.853 102.277L34.8443 108.197Z" fill="#151B1C"/>
<path d="M7.87656 101.421C5.6457 99.5872 4.09974 98.1788 3.73195 97.677L3.67847 96.149C3.67847 96.149 2.10755 97.3131 2.0757 97.3729C4.24827 99.225 7.87656 101.421 7.87656 101.421Z" fill="#C7C7C7"/>
<path d="M63.6141 108.517C63.3239 108.08 63.125 107.893 62.526 107.246C62.0486 106.731 61.5304 106.259 60.9638 105.855L51.6618 99.0783C51.5311 98.9225 45.124 92.8418 43.0829 91.7422L32.4503 86.013C30.0162 84.6981 24.3575 84.8987 24.0312 84.9503C23.7299 84.9928 21.634 83.7436 18.1649 83.5265C16.8261 83.44 10.1059 86.9748 5.3055 90.6295C5.14103 90.752 5.1571 91.0121 5.33667 91.116C7.32371 92.3769 8.58039 93.0963 10.9244 93.0691C13.1003 93.0385 17.6923 92.8611 19.5679 93.1923C21.2743 93.4866 30.8856 98.4978 31.9615 99.9285C32.9152 101.203 36.1383 106.756 38.0611 110.111C39.2396 112.169 40.888 113.919 42.9084 115.171C43.8845 115.781 44.8757 116.331 45.7209 116.777C46.7454 117.318 47.8958 117.57 49.0547 117.536C57.149 117.28 62.1693 111.963 63.6285 109.575C63.8204 109.242 63.8253 108.838 63.6141 108.517ZM49.7867 101.613C45.224 105.916 40.4202 107.747 38.4541 108.335C37.9043 108.502 37.3197 108.343 37.0364 107.855L32.4602 100.023C32.4249 99.9652 32.4565 99.8971 32.5148 99.8785C39.5761 97.0816 43.4305 93.2699 43.9365 92.7591C43.9691 92.7246 44.0195 92.7231 44.0625 92.7554C46.2662 94.5226 48.3637 96.3937 50.7413 98.6432C51.5107 99.3685 50.4901 100.953 49.7867 101.613Z" fill="#ECECEC"/>
<path d="M29.0026 85.3752C26.3486 86.0082 21.7964 88.958 18.5717 92.1796C18.441 92.3096 18.2751 92.3817 18.0903 92.3872L10.8589 92.5501C10.7749 92.5525 10.7134 92.4619 10.7531 92.3851C11.3712 91.1146 20.1507 85.8801 23.6699 85.23C23.7533 85.2107 23.8373 85.2083 23.9297 85.2055C24.5343 85.1877 27.1208 85.1198 29.0026 85.3752Z" fill="#252F30"/>
<path d="M29.0212 85.467C29.0212 85.467 28.8713 85.5135 28.5794 85.5893C28.2961 85.6733 27.8886 85.8198 27.3824 86.0364C26.8766 86.2699 26.2631 86.5569 25.5936 86.9381C24.9157 87.3195 24.1728 87.7784 23.3818 88.3144C22.5908 88.8504 21.7602 89.4716 20.9149 90.1605C20.4879 90.5009 20.0619 90.8749 19.6362 91.2572C19.4233 91.4484 19.2104 91.6396 18.998 91.8476L18.6792 92.1511C18.5814 92.2549 18.4419 92.3682 18.2836 92.4149C18.1169 92.4619 17.965 92.4411 17.8225 92.4538L17.369 92.4671C17.0667 92.476 16.7558 92.4768 16.4535 92.4857C15.8405 92.5038 15.2189 92.5138 14.5891 92.5323C13.9593 92.5509 13.3295 92.5695 12.6911 92.5799L11.7338 92.6082L11.2551 92.6223L11.02 92.6292L10.9025 92.6327L10.8353 92.6347C10.8017 92.6357 10.7676 92.6199 10.7419 92.6038C10.6819 92.5636 10.6463 92.4974 10.6527 92.43C10.6522 92.4132 10.6602 92.3961 10.6597 92.3793C10.6836 92.3366 10.7157 92.2852 10.7157 92.2852C10.7557 92.2168 10.8125 92.1479 10.8696 92.0874C10.9837 91.9663 11.098 91.8537 11.2207 91.7408C11.4581 91.5237 11.7127 91.3229 11.9678 91.1389C12.4775 90.7541 13.0048 90.3939 13.5325 90.0506C14.588 89.3639 15.6534 88.7273 16.6951 88.1419C18.7872 86.9792 20.8088 85.995 22.6401 85.3947C22.8732 85.3206 23.0985 85.2635 23.3237 85.2065C23.4408 85.1862 23.5576 85.1575 23.6663 85.1375C23.7836 85.1257 23.8755 85.1061 24.0017 85.1108C24.4383 85.0979 24.85 85.0942 25.2449 85.091C26.0266 85.0931 26.6994 85.1069 27.2635 85.1407L29.4213 85.3543L29.0212 85.467ZM28.549 85.4137C28.2539 85.3804 27.8157 85.3429 27.2435 85.3177C26.688 85.2921 26.0153 85.2783 25.2336 85.2762C24.8471 85.2792 24.4354 85.2829 23.9987 85.2958C23.9063 85.2985 23.7809 85.319 23.6801 85.322C23.5714 85.342 23.4714 85.3702 23.3628 85.3902C23.1459 85.447 22.9207 85.5041 22.6959 85.578C21.7883 85.8653 20.8422 86.2714 19.8474 86.7378C18.861 87.2039 17.8344 87.7301 16.7841 88.3074C15.7421 88.8844 14.6765 89.5125 13.6207 90.1908C13.0929 90.5342 12.5738 90.8857 12.0639 91.2621C11.8088 91.4461 11.5625 91.6467 11.325 91.8554C11.2104 91.9597 11.096 92.0723 10.9898 92.1763C10.9086 92.2711 10.7629 92.4603 10.8214 92.4502C12.0815 92.4298 13.3416 92.4095 14.5765 92.3898C15.2065 92.3796 15.8279 92.3613 16.4411 92.3516C16.7518 92.3425 17.0541 92.3335 17.3567 92.333L17.8101 92.3196C17.9613 92.3152 18.1129 92.3275 18.2376 92.2818C18.371 92.2443 18.4693 92.1573 18.5755 92.0533L18.894 91.7414C19.1064 91.5334 19.3193 91.3422 19.5319 91.1426C19.9574 90.7519 20.3837 90.3863 20.8104 90.0376C21.6555 89.3403 22.4944 88.7188 23.2768 88.1746C24.0676 87.6302 24.8188 87.171 25.4965 86.7812C26.1742 86.3915 26.7874 86.096 27.2932 85.8626C27.8076 85.6373 28.2319 85.4903 28.5149 85.3979C28.5406 85.414 28.549 85.4137 28.549 85.4137Z" fill="#151B1C"/>
<path d="M50.8951 98.7144C50.7901 98.5746 50.6695 98.4773 50.5656 98.3711C50.3408 98.1592 50.1247 97.9555 49.9085 97.7518C48.1887 96.1468 46.7215 94.8454 45.6701 93.9603C45.1445 93.522 44.7226 93.1814 44.4467 92.9458C44.3005 92.8325 44.1886 92.7433 44.1197 92.6865C44.0678 92.6377 43.9752 92.632 43.9337 92.65C43.8922 92.668 43.8762 92.6937 43.8762 92.6937C43.8762 92.6937 43.3381 93.2559 42.2796 94.1276C41.2209 94.9909 39.6416 96.1552 37.6083 97.3162C36.5918 97.9009 35.4662 98.4888 34.2382 99.0293C33.9315 99.1728 33.6245 99.308 33.3005 99.4352C33.1427 99.4987 32.9851 99.5705 32.8189 99.6343L32.5697 99.7341L32.5117 99.761C32.4951 99.7699 32.47 99.7706 32.429 99.8055C32.3633 99.8578 32.3327 99.9596 32.369 100.051C32.7316 100.662 33.0947 101.29 33.4667 101.935C34.21 103.199 34.9799 104.512 35.7588 105.843C36.1483 106.512 36.5462 107.181 36.9358 107.85C37.1233 108.223 37.5424 108.471 37.9546 108.484C38.165 108.495 38.3742 108.463 38.5656 108.399C38.7489 108.343 38.9403 108.278 39.1233 108.214C42.1017 107.185 44.8625 105.616 47.223 103.865C47.5104 103.638 47.8065 103.42 48.0856 103.193C48.3644 102.958 48.6351 102.731 48.9058 102.505C49.4212 102.027 49.9884 101.599 50.3835 101.032C50.5855 100.757 50.7618 100.466 50.8873 100.16C51.0127 99.8539 51.1038 99.5235 51.0687 99.1883C51.0635 99.012 50.9998 98.8458 50.8951 98.7144ZM50.2719 100.952C49.8928 101.492 49.334 101.921 48.8186 102.398C48.5479 102.624 48.2772 102.851 47.9984 103.086C47.7107 103.305 47.4316 103.531 47.1358 103.759C44.7926 105.526 42.0222 107.053 39.0598 108.056C38.8768 108.121 38.6851 108.177 38.5019 108.233C38.3189 108.297 38.143 108.319 37.9578 108.307C37.5873 108.285 37.2537 108.084 37.0842 107.753C36.6944 107.076 36.3049 106.406 35.9153 105.737C35.1365 104.407 34.3749 103.093 33.6398 101.82C33.2767 101.192 32.9138 100.573 32.5596 99.9613L32.651 99.925L32.8918 99.8254C33.0496 99.7619 33.2156 99.6898 33.3734 99.6263C33.6974 99.4991 34.0041 99.3556 34.3109 99.2121C35.5469 98.6629 36.6724 98.0666 37.6973 97.4817C39.7471 96.3118 41.3259 95.1306 42.3927 94.2587C43.4512 93.387 43.9972 92.8078 43.9972 92.8078C44.0832 92.8725 44.195 92.9617 44.3329 93.0753C44.6172 93.3106 45.0306 93.6514 45.5646 94.0895C46.6158 94.9662 48.0912 96.259 49.811 97.8639C50.0271 98.0676 50.2432 98.2714 50.4678 98.4749C50.5801 98.5808 50.7009 98.6865 50.7797 98.7934C50.8588 98.9088 50.9134 99.05 50.9344 99.1923C50.9776 99.8045 50.6512 100.419 50.2719 100.952Z" fill="#151B1C"/>
<path d="M50.7324 98.6268C50.62 98.5209 50.5076 98.4149 50.3952 98.309C51.2083 101.655 38.0673 108.615 37.0361 107.847C37.3197 108.343 37.9125 108.494 38.4538 108.326C40.4197 107.731 45.2153 105.908 49.7865 101.605C50.4901 100.954 51.5107 99.3687 50.7324 98.6268Z" fill="#151B1C"/>
<path d="M26.1194 97.3273L24.9415 96.7149L23.3011 102.075L24.4716 102.721L26.1194 97.3273Z" fill="#151B1C"/>
<path d="M17.5234 94.2609L16.9879 94.344L15.8151 98.1774L16.2424 98.4169L17.5234 94.2609Z" fill="#151B1C"/>
<path d="M49.1926 124.76C49.7888 124.742 50.9054 124.701 52.3069 124.348C52.4321 124.32 52.5608 124.408 52.5648 124.543L52.624 126.549C52.6267 126.642 52.5704 126.728 52.4788 126.755C51.7705 126.961 50.0787 127.162 49.2634 127.161C49.1543 127.164 49.0676 127.075 49.0644 126.965L49.0054 124.967C48.9938 124.858 49.0834 124.763 49.1926 124.76ZM65.5426 115.755C65.5024 115.815 65.4875 115.883 65.4898 115.958C65.5076 116.277 65.548 118.218 65.5591 118.31C65.6811 118.172 65.9036 117.736 65.993 117.347C66.0169 117.019 65.9775 115.112 65.9681 114.793C65.8619 115.183 65.6868 115.516 65.5426 115.755ZM64.098 117.495C61.9655 119.853 58.6957 121.832 55.6012 123.201C55.5516 123.227 55.5195 123.279 55.5212 123.337L55.5812 125.655C55.5839 125.748 55.6699 125.812 55.7534 125.793C57.0885 125.468 63.2564 121.731 64.3343 120.094C64.3906 120.008 64.4128 119.907 64.4099 119.806L64.3445 117.589C64.3405 117.455 64.1792 117.401 64.098 117.495Z" fill="#595959"/>
<path d="M52.6082 126.046L52.6228 126.541C52.6256 126.633 52.5693 126.719 52.4776 126.747C51.7693 126.953 50.0776 127.154 49.2623 127.153C49.1531 127.156 49.0664 127.066 49.0632 126.957L49.0486 126.462C49.0518 126.571 49.1385 126.661 49.2477 126.657C50.0629 126.659 51.7631 126.457 52.463 126.252C52.5546 126.224 52.6109 126.138 52.6082 126.046ZM65.9935 116.826C65.9041 117.215 65.6651 117.659 65.5431 117.797C65.5429 117.789 65.5416 117.747 65.5406 117.713C65.5498 118.024 65.557 118.268 65.5577 118.293C65.6797 118.155 65.9022 117.72 65.9916 117.33C66.0182 117.094 65.9948 116.868 65.9935 116.826ZM55.7378 125.298C55.6544 125.317 55.5684 125.252 55.5657 125.16L55.5803 125.655C55.583 125.748 55.6606 125.813 55.7525 125.793C57.0876 125.468 63.2555 121.731 64.3334 120.094C64.3897 120.008 64.4119 119.907 64.4087 119.798L64.3941 119.302C64.397 119.403 64.3748 119.504 64.3185 119.59C63.2409 121.236 57.073 124.973 55.7378 125.298Z" fill="url(#paint15_linear_46_15335)"/>
<path d="M32.7979 108.88L33.866 108.907C34.3622 108.918 34.8547 108.802 35.3019 108.579C35.0855 108.081 34.8778 107.591 34.6448 107.102L33.3688 107.72L32.7979 108.88Z" fill="#151B1C"/>
<path d="M33.3891 107.299C33.0863 107.291 30.8572 108.08 30.8903 108.348C30.9555 108.85 31.7731 109.498 32.2547 109.585C32.7193 109.664 34.616 109.003 34.6189 108.818C34.6342 108.481 33.9695 107.315 33.3891 107.299Z" fill="#DCDCDC"/>
<path opacity="0.4" d="M24.9651 107.186L24.3931 106.884C24.1967 106.78 24.0384 106.541 24.0327 106.348L24.0119 105.643C24.0062 105.45 24.1637 105.378 24.3517 105.482L24.9237 105.784C25.1201 105.888 25.2786 106.135 25.2841 106.32L25.3049 107.025C25.3106 107.218 25.1614 107.29 24.9651 107.186Z" fill="#C7C7C7"/>
<path d="M25.401 106.879L23.9236 106.082C23.7699 106.003 23.638 105.805 23.6336 105.654C23.6291 105.503 23.7536 105.449 23.9072 105.528L25.3847 106.325C25.5383 106.404 25.6702 106.602 25.6747 106.753C25.6791 106.905 25.5547 106.959 25.401 106.879Z" fill="#DDDDDD"/>
<path d="M64.0799 109.209C64.681 110.494 63.4734 112.009 62.4411 112.913C62.1381 113.183 62.4432 114.409 62.6719 114.756C63.0768 115.374 64.6417 113.437 65.019 112.266C65.357 111.189 64.1721 109.198 64.0799 109.209Z" fill="#D5DEE2"/>
<path d="M54.943 117.682C51.4556 119.121 48.0774 118.851 47.3184 118.764C47.2172 118.75 47.1095 118.804 47.087 118.897C46.8957 119.533 47.548 120.85 47.9442 121.174C48.4696 121.604 53.0967 121.19 55.5263 119.791C55.7495 119.667 55.8424 119.395 55.8097 119.144C55.7171 118.566 55.4661 117.465 54.943 117.682Z" fill="#D5DEE2"/>
<path d="M49.5196 118.8C48.4452 118.848 47.6369 118.796 47.3082 118.764C47.2069 118.75 47.0992 118.804 47.0767 118.897C46.8854 119.533 47.5378 120.85 47.934 121.174C48.1407 121.345 49.0162 121.395 50.1306 121.278C49.8966 120.469 49.6953 119.627 49.5196 118.8Z" fill="#E07E14"/>
<path d="M62.8024 116.307C62.1584 114.989 61.7959 113.529 61.7397 111.909C60.1325 113.553 57.7242 115.389 54.5551 116.508C55.8066 117.337 56.6687 118.639 57.2712 120.26C59.159 119.297 61.0796 118.022 62.8024 116.307Z" fill="#444443"/>
<path d="M59.0799 114.332C58.017 115.053 56.7881 115.846 54.6773 116.656C54.5993 116.574 54.5644 116.533 54.4948 116.451C56.6135 115.624 57.8594 114.839 58.9387 114.101C60.0179 113.363 60.9284 112.605 61.7483 111.909C61.7688 112.034 61.7792 112.101 61.7997 112.227C61.0369 112.863 60.1429 113.612 59.0799 114.332ZM62.1965 113.997C62.1683 113.897 62.1585 113.847 62.1301 113.738C61.6791 114.121 60.8925 114.808 59.9215 115.509C58.9502 116.202 57.7638 117.01 55.7542 117.834C55.8325 117.924 55.8676 117.974 55.9459 118.064C57.9466 117.223 59.1162 116.416 60.0791 115.723C61.0252 115.031 61.795 114.345 62.1965 113.997ZM61.9868 113.154C61.9583 113.046 61.9482 112.987 61.9279 112.87C61.2962 113.393 60.4432 114.107 59.4137 114.818C58.3838 115.521 57.1801 116.313 55.1113 117.122C55.1896 117.212 55.2328 117.253 55.3111 117.343C57.3629 116.526 58.5669 115.743 59.5715 115.041C60.5761 114.339 61.4126 113.633 61.9868 113.154ZM62.8561 116.129C62.8319 116.163 62.138 116.856 61.2349 117.58C60.3317 118.304 59.1488 119.23 57.1684 120.188C57.1968 120.296 57.2067 120.346 57.2351 120.455C59.2318 119.48 60.4229 118.545 61.3342 117.813C62.2454 117.08 62.9478 116.387 62.9478 116.387C62.9112 116.287 62.8929 116.237 62.8561 116.129ZM62.4218 114.797C62.3937 114.697 62.3754 114.647 62.3475 114.555C62.0694 114.816 61.333 115.493 60.4039 116.193C59.4748 116.893 58.3144 117.725 56.3396 118.59C56.4098 118.689 56.4449 118.738 56.5064 118.829C58.4725 117.956 59.6324 117.106 60.5445 116.399C61.4651 115.699 62.1929 115.014 62.4218 114.797ZM62.6718 115.58C62.6353 115.48 62.6254 115.43 62.5888 115.33C62.4587 115.477 61.7561 116.161 60.8525 116.869C59.9491 117.585 58.7899 118.459 56.8332 119.366C56.8865 119.465 56.9132 119.515 56.9584 119.623C58.9146 118.699 60.0817 117.808 60.9767 117.092C61.8801 116.376 62.5743 115.692 62.6718 115.58Z" fill="#C7C7C7"/>
<path d="M5.20985 93.3722C4.73512 92.9492 4.54345 92.7195 4.20679 92.4185C3.6365 92.1748 3.3096 95.9076 3.6949 96.1484C4.16591 96.4455 4.62729 96.7008 4.92956 96.4061C5.26468 96.0853 5.41498 94.9126 5.54284 94.1188C5.6016 93.8313 5.43412 93.5673 5.20985 93.3722Z" fill="#AF1C1C"/>
<path opacity="0.4" d="M61.8737 109.947C61.8294 109.872 61.7763 109.782 61.7316 109.69C61.3959 109.137 60.8597 108.338 60.1001 107.377C59.9085 107.147 59.7084 106.918 59.5076 106.663C59.2287 106.327 58.9084 106.009 58.6043 105.673C58.2918 105.338 57.9547 105.02 57.6257 104.693C56.9511 104.049 56.2687 103.422 55.5969 102.87C54.9332 102.31 54.2964 101.808 53.7375 101.379C53.1788 100.958 52.7147 100.611 52.38 100.377C52.1397 100.207 51.9767 100.095 51.8996 100.046C51.8826 100.038 51.8653 100.022 51.8566 100.014C51.8566 100.014 48.5926 105.607 38.9932 108.975C38.9932 108.975 39.0191 108.999 39.0707 109.039C39.1051 109.064 39.131 109.088 39.1483 109.104C39.2429 109.177 39.3637 109.283 39.5269 109.404C39.8712 109.68 40.3781 110.051 40.9876 110.487C41.5975 110.932 42.3261 111.414 43.1145 111.929C43.5087 112.186 43.9278 112.434 44.3472 112.691C44.7745 112.931 45.2025 113.195 45.6464 113.426C46.0905 113.665 46.518 113.913 46.9695 114.118C47.4131 114.34 47.848 114.554 48.2736 114.735C48.6994 114.924 49.1168 115.114 49.5162 115.262C49.9158 115.418 50.2902 115.575 50.6548 115.682C51.0112 115.797 51.334 115.914 51.6309 116.006C51.9275 116.09 52.1816 116.158 52.3935 116.219C52.8171 116.332 53.0629 116.401 53.0629 116.401C53.0629 116.401 59.1267 114.835 62.2007 110.492C62.1928 110.509 62.0775 110.302 61.8737 109.947Z" fill="url(#paint16_linear_46_15335)"/>
<path opacity="0.5" d="M51.8574 100.022C51.8574 100.022 52.6695 100.486 53.8109 101.284C54.3777 101.696 55.0471 102.164 55.7191 102.724C56.3994 103.275 57.0984 103.893 57.7813 104.537C58.1106 104.872 58.4396 105.199 58.752 105.534C59.0563 105.878 59.3769 106.205 59.6474 106.541C59.9181 106.886 60.2046 107.197 60.4331 107.535C60.6614 107.865 60.8973 108.169 61.0825 108.466C61.2678 108.763 61.4274 109.044 61.5773 109.283C61.7272 109.522 61.8181 109.755 61.9159 109.937C62.0948 110.302 62.2018 110.509 62.2018 110.509C62.2018 110.509 62.0866 110.31 61.8829 109.955C61.7769 109.781 61.6694 109.558 61.5113 109.327C61.353 109.088 61.1771 108.824 60.9837 108.536C60.7903 108.247 60.5463 107.952 60.3101 107.64C60.0738 107.319 59.7791 107.016 59.5084 106.671C59.2295 106.335 58.9091 106.017 58.6051 105.681C58.2926 105.346 57.9555 105.028 57.6265 104.702C56.9519 104.057 56.2695 103.43 55.5976 102.879C54.934 102.318 54.2972 101.816 53.7383 101.387C53.1796 100.967 52.7155 100.619 52.3808 100.385C52.0543 100.143 51.8574 100.022 51.8574 100.022Z" fill="white"/>
<path d="M38.9932 108.974C38.9932 108.974 39.1829 109.137 39.5353 109.404C39.8796 109.679 40.3865 110.051 40.996 110.487C41.6059 110.931 42.3345 111.414 43.1229 111.929C43.5171 112.186 43.9362 112.434 44.3556 112.691C44.7829 112.93 45.2109 113.195 45.6548 113.426C46.0989 113.665 46.5264 113.912 46.9779 114.118C47.4215 114.34 47.8564 114.554 48.282 114.735C48.7078 114.924 49.1252 115.113 49.5246 115.261C49.9242 115.417 50.2986 115.575 50.6632 115.681C51.0196 115.797 51.3424 115.914 51.6392 116.006C51.9359 116.089 52.19 116.157 52.4019 116.218C52.8255 116.332 53.0713 116.4 53.0713 116.4C53.0713 116.4 52.826 116.349 52.3945 116.252C52.1831 116.208 51.9208 116.149 51.6163 116.082C51.3197 115.998 50.989 115.899 50.6247 115.8C50.2604 115.702 49.8778 115.553 49.47 115.406C49.0625 115.266 48.6372 115.094 48.203 114.905C47.769 114.725 47.3257 114.511 46.8823 114.297C46.4308 114.092 45.9949 113.844 45.5427 113.614C45.0986 113.375 44.6705 113.11 44.243 112.862C43.8234 112.597 43.4124 112.34 43.0182 112.083C42.2295 111.56 41.5251 111.043 40.9232 110.582C40.3215 110.129 39.847 109.714 39.5109 109.43C39.175 109.154 38.9932 108.974 38.9932 108.974Z" fill="#C7C7C7"/>
<path d="M127.218 44.6501C124.643 43.1648 122.333 43.1208 120.732 44.232L118.883 45.0957L119.109 46.2839C118.713 47.1971 118.487 48.3193 118.487 49.6286C118.487 53.4189 120.512 59.3986 122.613 64.5752L124.803 76.0065L127.218 74.8018C127.218 74.8018 135.948 67.5788 135.948 59.7067C135.948 54.1725 132.037 47.4336 127.218 44.6501Z" fill="#0EBCAB"/>
<path d="M133.533 60.9168C133.533 68.7834 124.803 76.0119 124.803 76.0119C124.803 76.0119 116.072 58.6999 116.072 50.8332C116.072 45.2991 119.984 43.0711 124.803 45.8547C129.622 48.6383 133.533 55.3827 133.533 60.9168Z" fill="#047267"/>
<path d="M125.358 45.5523C122.839 44.1 120.578 44.023 118.982 45.0627C120.528 44.364 122.564 44.5621 124.803 45.8548C129.622 48.6384 133.533 55.3828 133.533 60.9114C133.533 67.6503 127.13 73.9161 125.292 75.5774C125.331 75.6544 125.358 75.704 125.358 75.704C125.358 75.704 134.089 68.481 134.089 60.6089C134.089 55.0802 130.177 48.3358 125.358 45.5523Z" fill="url(#paint17_radial_46_15335)"/>
<path d="M127.982 57.7097C127.982 59.7231 126.558 60.5373 124.803 59.5196C123.048 58.5074 121.623 56.0538 121.623 54.0349C121.623 52.0215 123.048 51.2074 124.803 52.2251C126.558 53.2373 127.982 55.6963 127.982 57.7097Z" fill="url(#paint18_linear_46_15335)"/>
<path d="M125.782 59.0685C124.027 58.0563 122.602 55.6028 122.602 53.5839C122.602 52.7862 122.828 52.1811 123.207 51.8015C122.261 51.884 121.623 52.6927 121.623 54.0405C121.623 56.0539 123.048 58.5074 124.803 59.5251C125.864 60.1357 126.8 60.0807 127.377 59.4976C126.91 59.5361 126.365 59.4041 125.782 59.0685Z" fill="#D1D3D4"/>
<defs>
<linearGradient id="paint0_linear_46_15335" x1="31.7414" y1="77.4617" x2="206.305" y2="77.4617" gradientUnits="userSpaceOnUse">
<stop stop-color="#047267"/>
<stop offset="1" stop-color="#02A695"/>
</linearGradient>
<linearGradient id="paint1_linear_46_15335" x1="31.7414" y1="72.9469" x2="206.305" y2="72.9469" gradientUnits="userSpaceOnUse">
<stop stop-color="#047267"/>
<stop offset="1" stop-color="#08E9D2"/>
</linearGradient>
<linearGradient id="paint2_linear_46_15335" x1="33.4855" y1="72.9468" x2="204.56" y2="72.9468" gradientUnits="userSpaceOnUse">
<stop stop-color="#047267"/>
<stop offset="1" stop-color="#079385" stop-opacity="0.3"/>
</linearGradient>
<linearGradient id="paint3_linear_46_15335" x1="110.316" y1="29.4136" x2="140.614" y2="180.907" gradientUnits="userSpaceOnUse">
<stop stop-color="#0AB9A7"/>
<stop offset="0.4293" stop-color="#00C2AF"/>
<stop offset="0.904" stop-color="#021D1A"/>
</linearGradient>
<linearGradient id="paint4_linear_46_15335" x1="57.9482" y1="75.6815" x2="63.1517" y2="73.879" gradientUnits="userSpaceOnUse">
<stop stop-color="#3D065F"/>
<stop offset="1" stop-color="#5F27BD"/>
</linearGradient>
<linearGradient id="paint5_linear_46_15335" x1="73.8278" y1="57.3386" x2="102.723" y2="48.6863" gradientUnits="userSpaceOnUse">
<stop stop-color="#047267"/>
<stop offset="1" stop-color="#45108A"/>
</linearGradient>
<linearGradient id="paint6_linear_46_15335" x1="44.4014" y1="60.7925" x2="81.8537" y2="52.3969" gradientUnits="userSpaceOnUse">
<stop stop-color="#047267"/>
<stop offset="1" stop-color="#0BBAA8"/>
</linearGradient>
<linearGradient id="paint7_linear_46_15335" x1="58.5669" y1="15.679" x2="74.1584" y2="10.598" gradientUnits="userSpaceOnUse">
<stop stop-color="#53E5D6"/>
<stop offset="1" stop-color="#49E0D1"/>
</linearGradient>
<linearGradient id="paint8_linear_46_15335" x1="72.1224" y1="13.6078" x2="77.4356" y2="11.2851" gradientUnits="userSpaceOnUse">
<stop stop-color="#30D3C3"/>
<stop offset="1" stop-color="#86FFF3"/>
</linearGradient>
<linearGradient id="paint9_linear_46_15335" x1="97.0077" y1="56.0079" x2="97.0077" y2="22.1938" gradientUnits="userSpaceOnUse">
<stop offset="0.0303" stop-color="#7C1DC9"/>
<stop offset="0.2138" stop-color="#6E41D2"/>
<stop offset="0.6184" stop-color="#4C9BE8"/>
<stop offset="1" stop-color="#2AF6FF"/>
</linearGradient>
<linearGradient id="paint10_linear_46_15335" x1="97.0077" y1="56.0079" x2="97.0077" y2="22.1939" gradientUnits="userSpaceOnUse">
<stop offset="0.0303" stop-color="#7C1DC9"/>
<stop offset="0.2138" stop-color="#6E41D2"/>
<stop offset="0.6184" stop-color="#4C9BE8"/>
<stop offset="1" stop-color="#2AF6FF"/>
</linearGradient>
<linearGradient id="paint11_linear_46_15335" x1="89.2147" y1="85.8487" x2="81.9256" y2="98.6389" gradientUnits="userSpaceOnUse">
<stop/>
<stop offset="0.2879" stop-color="#616161"/>
<stop offset="0.4848" stop-color="#3D3D3D"/>
<stop offset="0.7001" stop-color="#1C1C1C"/>
<stop offset="0.8796" stop-color="#070707"/>
<stop offset="1"/>
</linearGradient>
<linearGradient id="paint12_linear_46_15335" x1="27.0354" y1="115.105" x2="25.9119" y2="117.191" gradientUnits="userSpaceOnUse">
<stop offset="0.1327" stop-color="#ABABAB"/>
<stop offset="0.1532" stop-color="#C7C7C7"/>
</linearGradient>
<linearGradient id="paint13_linear_46_15335" x1="53.1783" y1="110.49" x2="44.0723" y2="110.759" gradientUnits="userSpaceOnUse">
<stop offset="0.4086" stop-color="white"/>
<stop offset="1" stop-color="#C7C7C7"/>
</linearGradient>
<linearGradient id="paint14_linear_46_15335" x1="35.0243" y1="120.379" x2="64.164" y2="117.567" gradientUnits="userSpaceOnUse">
<stop stop-color="#C7C7C7"/>
<stop offset="0.6182" stop-color="#E1E1E1"/>
<stop offset="1" stop-color="#ECECEC"/>
</linearGradient>
<linearGradient id="paint15_linear_46_15335" x1="47.1798" y1="122.299" x2="69.4764" y2="121.641" gradientUnits="userSpaceOnUse">
<stop stop-color="#C7C7C7"/>
<stop offset="0.6182" stop-color="#E1E1E1"/>
<stop offset="1" stop-color="#ECECEC"/>
</linearGradient>
<linearGradient id="paint16_linear_46_15335" x1="46.7495" y1="104.098" x2="55.0987" y2="116.134" gradientUnits="userSpaceOnUse">
<stop stop-color="#ECECEC"/>
<stop offset="1"/>
</linearGradient>
<radialGradient id="paint17_radial_46_15335" cx="0" cy="0" r="1" gradientUnits="userSpaceOnUse" gradientTransform="translate(129.15 55.4052) scale(12.3013)">
<stop stop-color="white"/>
<stop offset="1"/>
</radialGradient>
<linearGradient id="paint18_linear_46_15335" x1="127.204" y1="59.6803" x2="120.539" y2="54.0629" gradientUnits="userSpaceOnUse">
<stop offset="0.0354" stop-color="#9D9EB3"/>
<stop offset="0.5808" stop-color="#D4D1D8"/>
<stop offset="1" stop-color="#EEEBF2"/>
</linearGradient>
</defs>
</svg>
