<svg width="907" height="494" viewBox="0 0 907 494" fill="none" xmlns="http://www.w3.org/2000/svg">
<path d="M586.743 447.897V468.88L563.981 468.085C563.981 468.085 556.614 407.723 537.301 400.99C517.988 394.256 494.081 397.819 494.081 397.819C494.081 397.819 512.249 359.035 543.288 363.381C574.327 367.727 587.198 384.566 589.502 410.098C591.805 435.63 586.743 447.897 586.743 447.897Z" fill="#08BFAC"/>
<path d="M881.486 418.304V428.303H857.234L851.716 419.301L851.137 396.632C851.137 396.632 833.438 380.897 820.443 382.678C820.443 382.678 822.291 374.176 839.99 373.582C857.689 372.988 877.927 376.646 877.927 376.646C877.927 376.646 886.549 398.912 881.486 418.304Z" fill="#08BFAC"/>
<path d="M860.449 381.194C860.449 381.194 867.87 378.973 873.043 392.178C878.217 405.383 877.527 430.333 868.036 439.988C868.036 439.988 865.622 441.033 858.379 441.175C858.379 441.175 845.453 442.363 839.591 440.285C839.591 440.285 823.726 386.846 832.514 382.987C841.301 379.127 860.449 381.194 860.449 381.194Z" fill="#27343A"/>
<path d="M866.023 393.176C866.722 393.252 867.386 393.481 867.953 393.841C868.521 394.2 868.972 394.679 869.265 395.23C872.768 396.05 875.514 402.83 875.514 411.084C875.514 419.337 872.755 426.129 869.265 426.937C868.972 427.489 868.521 427.967 867.953 428.326C867.386 428.686 866.722 428.915 866.023 428.991C862.188 428.991 859.125 420.976 859.125 411.084C859.125 401.192 862.188 393.176 866.023 393.176Z" fill="white"/>
<path d="M867.485 395.848C867.812 395.686 868.183 395.6 868.561 395.598V394.708C868.01 394.709 867.468 394.832 866.988 395.064L867.485 395.848Z" fill="#27343A"/>
<path d="M865.015 425.358L865.884 424.883C865.459 424.274 865.108 423.629 864.835 422.959L863.856 423.268C864.156 423.997 864.544 424.698 865.015 425.358ZM863.097 421.094L864.104 420.881C863.911 420.216 863.745 419.491 863.594 418.743L862.573 418.886C862.725 419.669 862.904 420.406 863.097 421.094ZM862.228 416.665L863.249 416.57C863.166 415.857 863.083 415.133 863.042 414.373L862.007 414.432C862.062 415.192 862.131 415.941 862.256 416.665H862.228ZM861.897 412.188H862.932C862.932 411.832 862.932 411.464 862.932 411.096C862.932 410.727 862.932 410.347 862.932 409.979H861.897C861.897 410.347 861.897 410.727 861.897 411.167C861.897 411.606 861.897 411.82 861.897 412.188ZM863.042 407.77C863.042 407.022 863.166 406.286 863.249 405.574L862.228 405.479C862.131 406.203 862.062 406.951 862.007 407.711L863.042 407.77ZM863.594 403.4C863.745 402.652 863.925 401.928 864.104 401.263L863.111 401.049C862.892 401.777 862.717 402.514 862.587 403.258L863.594 403.4ZM864.835 399.185C865.121 398.517 865.476 397.873 865.897 397.261L865.028 396.786C864.558 397.446 864.17 398.146 863.87 398.876L864.835 399.185Z" fill="#27343A"/>
<path d="M868.561 427.459V426.569C868.185 426.566 867.816 426.484 867.485 426.331L866.988 427.103C867.468 427.336 868.01 427.458 868.561 427.459Z" fill="#27343A"/>
<path d="M865.015 386.051C865.616 386.097 866.196 386.259 866.712 386.527C867.228 386.794 867.667 387.159 867.995 387.594C867.539 387.375 867.028 387.253 866.505 387.238C861.484 387.238 857.428 398.223 857.428 411.772C857.428 425.322 861.484 436.318 866.505 436.318C867.028 436.303 867.539 436.181 867.995 435.962C867.667 436.397 867.228 436.762 866.712 437.029C866.196 437.297 865.616 437.46 865.015 437.506C860.187 437.506 856.269 425.987 856.269 411.772C856.269 397.558 860.229 386.051 865.015 386.051Z" fill="#323F44"/>
<path d="M827.341 380.41C829.763 380.005 832.271 380.23 834.544 381.057C836.817 381.884 838.751 383.275 840.102 385.053C845.509 391.394 847.689 408.507 846.309 423.754C844.93 439.002 839.991 445.13 832.294 446.115C832.294 446.115 818.844 446.709 812.857 446.412C812.857 446.412 803.669 441.662 803.435 425.037L816.733 423.647C816.733 423.647 817.464 389.91 827.341 380.41Z" fill="#27343A"/>
<path d="M834.833 393.568C836.088 393.568 837.274 394.375 838.323 395.776C842.103 396.643 845.055 403.923 845.055 412.77C845.055 421.617 842.103 428.884 838.323 429.763C837.274 431.165 836.088 431.972 834.833 431.972C830.694 431.972 827.342 423.374 827.342 412.77C827.342 402.165 830.694 393.568 834.833 393.568Z" fill="white"/>
<path d="M836.046 397.522C836.377 397.369 836.746 397.288 837.122 397.285V396.394C836.573 396.397 836.033 396.515 835.549 396.738L836.046 397.522Z" fill="#27343A"/>
<path d="M833.63 427.044L834.499 426.569C834.077 425.959 833.726 425.314 833.45 424.645L832.471 424.954C832.771 425.683 833.16 426.384 833.63 427.044ZM831.712 422.781L832.719 422.567C832.526 421.902 832.361 421.177 832.209 420.429L831.188 420.572C831.34 421.344 831.519 422.092 831.712 422.781ZM830.843 418.351L831.864 418.244C831.781 417.544 831.698 416.807 831.657 416.059H830.622C830.678 416.879 830.747 417.627 830.843 418.351ZM830.526 413.862H831.56C831.56 413.506 831.56 413.15 831.56 412.782C831.56 412.414 831.56 412.034 831.56 411.665H830.526C830.526 412.045 830.526 412.425 830.526 412.853C830.526 413.28 830.526 413.506 830.526 413.862ZM831.671 409.445C831.671 408.685 831.795 407.96 831.878 407.248L830.857 407.153C830.76 407.877 830.691 408.614 830.636 409.385L831.671 409.445ZM832.223 405.075C832.374 404.315 832.554 403.602 832.733 402.925L831.74 402.712C831.533 403.412 831.354 404.148 831.216 404.92L832.223 405.075ZM833.464 400.859C833.75 400.191 834.105 399.547 834.526 398.935L833.657 398.46C833.187 399.12 832.799 399.821 832.498 400.55L833.464 400.859Z" fill="#27343A"/>
<path d="M837.177 429.146V428.255C836.799 428.254 836.428 428.168 836.101 428.006L835.604 428.79C836.084 429.022 836.626 429.144 837.177 429.146Z" fill="#27343A"/>
<path d="M833.094 387.737C833.688 387.791 834.261 387.957 834.771 388.224C835.281 388.491 835.717 388.852 836.046 389.281C835.587 389.054 835.071 388.927 834.542 388.913C829.535 388.913 825.465 399.909 825.465 413.459C825.465 427.008 829.604 438.005 834.542 438.005C835.073 437.983 835.59 437.848 836.046 437.613C835.716 438.05 835.276 438.418 834.757 438.687C834.238 438.956 833.656 439.121 833.052 439.168C828.224 439.168 824.32 427.649 824.32 413.435C824.32 399.22 828.266 387.737 833.094 387.737Z" fill="#323F44"/>
<path d="M513.847 380.897C513.847 380.897 529.022 377.631 543.162 380.897C543.162 380.897 570.586 381.051 575.58 431.07C575.58 431.07 578.518 480.506 544.721 491.491C544.721 491.491 532.471 493.272 525.408 493.711C525.408 493.711 502.811 494.008 492.12 490.6C492.12 490.6 472.297 478.867 471.262 459.131L495.403 454.974C495.403 454.974 494.714 395.005 513.847 380.897Z" fill="#27343A"/>
<path d="M517.133 436.853C517.947 418.494 528.997 403.947 541.798 404.374C544.453 404.488 547.027 405.201 549.261 406.44C559.083 410.157 565.926 423.149 565.25 438.361C564.588 452.956 557.207 465.056 547.661 468.714C545.03 470.176 541.95 470.925 538.819 470.863C526.017 470.436 516.305 455.212 517.133 436.853Z" fill="white"/>
<path d="M545.066 408.032C545.934 407.921 546.811 407.881 547.688 407.913V406.725C546.728 406.697 545.768 406.741 544.818 406.856L545.066 408.032Z" fill="#27343A"/>
<path d="M536.584 466.113L537.342 465.116C535.806 464.231 534.414 463.172 533.204 461.969L532.169 462.764C533.464 464.042 534.948 465.168 536.584 466.113ZM528.665 458.644L529.865 458.038C528.915 456.637 528.098 455.171 527.424 453.656L526.141 454.084C526.834 455.661 527.679 457.186 528.665 458.644ZM524.389 449.286L525.768 449.001C525.322 447.436 524.981 445.85 524.747 444.251L523.368 444.394C523.602 446.039 523.943 447.673 524.389 449.286ZM523.009 439.323H524.389V438.705C524.389 438.112 524.389 437.518 524.389 436.9C524.389 436.069 524.499 435.25 524.582 434.43L523.202 434.323C523.12 435.155 523.051 435.998 523.023 436.853C523.023 437.47 523.023 438.088 523.023 438.705L523.009 439.323ZM525.423 429.561C525.778 427.957 526.239 426.371 526.803 424.811L525.492 424.443C524.892 426.037 524.395 427.659 524.002 429.3L525.423 429.561ZM528.982 420.311C529.804 418.845 530.754 417.436 531.824 416.095L530.693 415.418C529.581 416.808 528.594 418.269 527.741 419.788L528.982 420.311ZM535.452 412.402C536.79 411.286 538.293 410.328 539.922 409.552L539.26 408.519C537.523 409.339 535.922 410.358 534.5 411.547L535.452 412.402Z" fill="#27343A"/>
<path d="M544.971 468.488V467.301C544.097 467.273 543.229 467.173 542.377 467.004L542.06 468.191C543.018 468.363 543.992 468.462 544.971 468.488Z" fill="#27343A"/>
<path d="M509.296 436.14C510.827 407.972 524.939 385.659 540.79 386.264C541.466 386.294 542.139 386.365 542.804 386.478C527.629 387.404 514.455 409.124 512.965 436.295C511.489 463.251 522.056 485.79 536.858 488.237C536.307 488.266 535.754 488.266 535.203 488.237C519.352 487.667 507.723 464.308 509.296 436.14Z" fill="#323F44"/>
<path d="M19.1317 216.877L13.9586 219.691C13.9586 219.691 8.44054 221.924 5.84708 232.908C3.25362 243.893 -0.87109 264.674 0.16354 272.69C0.16354 272.69 3.43295 279.364 9.98558 281.003C9.98558 281.003 10.6753 281.893 16.5382 267.049C20.516 256.567 23.8543 245.912 26.5396 235.129C32.165 230.984 37.521 226.576 42.5832 221.924C42.5832 221.924 51.7155 219.691 48.2668 215.392C44.818 211.094 23.9599 214.644 19.1317 216.877Z" fill="#08BFAC"/>
<path d="M10.1649 270.457C13.6137 262.145 22.4011 232.314 22.4011 232.314C30.6129 227.48 37.3318 220.995 41.9762 213.421C44.956 213.587 47.3011 214.181 48.2668 215.392C51.7155 219.691 42.5832 221.924 42.5832 221.924C37.521 226.575 32.165 230.984 26.5396 235.129C23.8543 245.912 20.516 256.566 16.5382 267.049C10.6753 281.893 9.98558 281.003 9.98558 281.003C8.36657 280.573 6.86507 279.866 5.57116 278.924C6.96445 277.725 8.17844 275.255 10.1649 270.457Z" fill="#047267"/>
<path d="M98.6182 211.081C98.6182 211.081 56.7227 206.783 43.783 207.376C30.8432 207.97 17.4069 211.081 13.9581 219.691C22.2758 217.043 31.1333 215.884 39.9893 216.283L46.542 216.58L42.5828 221.923L95.3488 225.486L98.6182 211.081Z" fill="#27343A"/>
<path d="M815.615 425.286L582.134 450.818C581.452 450.906 580.754 450.811 580.137 450.545C579.52 450.28 579.013 449.856 578.685 449.334C578.685 449.334 581.789 446.507 581.968 437.161C582.148 427.816 581.789 404.053 572.133 385.208C572.133 385.208 564.725 370.506 551.964 369.912L532.996 370.067C532.996 370.067 514.194 371.848 506.441 400.942C498.688 430.036 500.743 446.21 500.743 446.21C500.743 446.21 501.612 454.226 496.95 459.131L328.83 478.273C328.83 478.273 300.895 479.912 267.787 479.461C234.679 479.01 88.7964 470.115 88.7964 470.115C88.7964 470.115 79.6503 469.367 79.6503 463.133L79.4848 434.335L80.3401 433.741L80.1746 412.224C80.1746 412.224 77.926 409.849 78.4501 404.647C78.9744 399.446 81.0298 397.225 81.0298 397.225L80.6849 380.754C80.6849 380.754 82.3541 351.708 84.6579 309.753C86.9617 267.797 98.2184 199.705 100.743 185.063C100.743 185.063 114.538 133.204 139.838 90.6552C139.838 90.6552 149.026 74.8137 163.055 67.2967C163.055 67.2967 214.331 37.11 306.413 8.90639C306.413 8.90639 333.658 0 340.9 0C348.143 0 378.837 13.6565 407.806 25.2348C436.776 36.8131 904.427 232.457 904.427 232.457C904.427 232.457 910.29 234.143 913.504 249.973C916.718 265.802 924.54 320.63 926.154 346.756C927.768 372.881 926.375 400.004 926.375 400.004C925.542 400.421 924.56 400.561 923.616 400.396C923.616 400.396 924.995 406.927 921.091 408.91L901.778 416.427L877.872 419.194L877.182 418.601C877.182 418.601 878.727 417.71 878.906 413.554C879.086 409.397 878.037 391.442 875.802 384.756C873.568 378.071 870.629 377.928 870.629 377.928C870.629 377.928 865.456 377.631 863.042 378.379C863.042 378.379 857.345 386.692 856.655 402.13C855.965 417.567 855.455 420.536 852.861 422.318L847.178 422.46C848.639 420.194 849.354 417.628 849.247 415.038C849.247 410.288 848.378 397.083 846.143 389.506C843.908 381.93 839.935 378.225 839.935 378.225C839.935 378.225 833.203 376.301 829.589 379.27C829.589 379.27 823.892 386.241 822.512 403.163C821.133 420.085 820.967 423.351 818.719 425.726L815.615 425.286Z" fill="#047267"/>
<path d="M295.033 437.613C295.033 437.613 291.115 448.502 265.374 449.096C239.632 449.69 236.625 449.892 236.625 449.892C236.625 449.892 166.27 453.644 90.6324 445.925C90.6324 445.925 81.9001 445.332 80.7413 439.394C84.4053 440.399 88.1837 441.064 92.0119 441.377C92.0119 441.377 144.433 445.735 239.853 444.144C239.853 444.132 280.107 445.32 295.033 437.613Z" fill="#08BFAC"/>
<path d="M81.127 398.199L80.7545 383.664C126.195 376.93 322.623 372.489 322.623 372.489C322.623 372.489 325.727 192.984 335.383 106.295C339.742 67.1067 342.005 45.4226 343.15 33.4643C282.727 38.44 142.598 89.6695 142.598 89.6695C141.965 89.5591 141.342 89.4083 140.735 89.2183C143.356 85.157 151.592 73.4599 163.056 67.3086C163.056 67.3086 214.332 37.1218 306.413 8.91824C306.413 8.91824 333.659 0.0118408 340.901 0.0118408C348.143 0.0118408 378.837 13.6683 407.807 25.2466C435.218 36.2312 855.29 211.901 900.482 230.818C903.328 233.9 905.84 237.199 907.987 240.675C911.546 248.892 913.298 267.192 913.298 276.11C913.298 285.028 909.849 285.61 909.849 285.61L855.359 271.36C851.91 289.767 841.798 325.594 832.376 347.361C822.954 369.128 809.38 366.563 809.38 366.563L432.307 355.995C432.307 378.154 432.086 447.018 432.086 453.644C432.062 458.191 431.003 462.689 428.968 466.885L426.472 467.17C429.153 463.155 430.464 458.569 430.251 453.941V355.923L385.873 354.736C367.939 370.969 337.135 381.657 337.135 381.657C337.135 381.657 336.9 451.317 336.211 464.189C335.824 471.386 334.5 475.554 333.452 477.822L328.899 478.333L326.913 478.44C329.938 475.373 331.759 471.561 332.114 467.55L332.969 382.987C323.312 385.564 319.395 386.953 319.395 386.953C317.794 401.987 314.111 408.328 314.111 408.328C314.111 408.328 311.876 424.954 295.488 434.454C279.099 443.954 241.577 442.22 241.577 442.22L236.224 451.127C236.224 451.127 234.845 452.908 232.776 459.879C230.706 466.849 229.327 475.613 229.327 475.613C230.706 457.658 232.61 454.832 234.5 451.424C236.39 448.015 240.018 442.173 240.018 442.173C191.189 443.71 142.298 442.918 93.5701 439.798C81.4719 439.168 79.6509 436.176 79.4302 434.917V434.347L80.2855 433.753L79.513 410.822L81.127 398.199ZM799.241 298.673C815.795 301.345 821.313 290.063 821.313 290.063L830.279 264.437L530.927 182.498L479.886 242.266L799.241 298.673Z" fill="#27343A"/>
<path d="M366.629 135.08L431.231 152.667C430.913 146.457 427.672 86.8195 419.891 50.2557L421.271 50.042C429.327 87.8645 432.527 150.28 432.665 153.047L520.471 176.94L520.057 178.128L366.242 136.268L366.629 135.08Z" fill="#87A7B2"/>
<path d="M100.771 185.063C100.771 185.063 100.771 184.802 100.978 184.327C121.877 169.079 175.636 152.668 237.81 136.969C302.84 120.545 337.562 126.483 337.562 126.483C357.799 131.435 417.573 149.046 417.573 149.046C417.573 149.046 412.98 159.935 399.874 172.202C396.145 175.712 391.352 178.257 386.034 179.549C380.716 180.841 375.085 180.83 369.774 179.517C369.774 179.517 349.315 175.159 335.976 172.19C322.636 169.222 309.544 174.969 309.544 174.969C277.126 175.361 229.533 185.063 167.456 200.097C109.848 214.062 95.8044 225.629 94.08 227.22C96.9632 207.507 99.667 191.357 100.771 185.063Z" fill="#047267"/>
<path d="M580.59 113.705L355.731 27.6099C355.731 27.6099 355.387 12.4809 378.838 21.981L597.834 112.232L580.59 113.705Z" fill="#37494F"/>
<path d="M589.557 111.33L371.25 23.4535C371.25 23.4535 364.353 21.3754 361.939 27.313C363.021 26.1459 364.513 25.3124 366.192 24.9377C367.871 24.5629 369.646 24.6672 371.25 25.2348L586.108 111.33H589.557Z" fill="#27343A"/>
<path d="M912.18 244.19L612.663 124.547C612.663 124.547 595.929 116.08 580.589 126.922C580.589 126.922 570.464 133.204 551.62 160.173C532.776 187.141 491.611 242.503 463.097 260.114L462.407 245.27C462.407 245.27 495.06 210.048 511.614 187.284C528.168 164.519 550.93 133.252 558.517 125.533C566.105 117.814 580.81 101.189 611.394 114.049L909.159 237.112C909.159 237.112 914.994 239.392 912.18 244.19Z" fill="#08BFAC"/>
<path d="M460.048 262.002C460.048 262.002 453.33 269.567 439.01 269.567C439.01 269.567 455.564 254.58 459.358 248.94L460.048 262.002Z" fill="#08BFAC"/>
<path d="M100.771 185.063C100.771 185.063 114.566 133.204 139.866 90.6554C142.539 86.284 145.694 82.1442 149.288 78.2933C157.491 72.0026 166.427 66.4591 175.954 61.7512C200.992 49.0922 255.027 25.5437 301.006 14.4523C301.006 14.4523 333.19 7.71903 342.391 10.8897C351.592 14.0604 349.744 22.7649 349.054 27.1231C348.364 31.4813 340.556 98.5643 337.563 126.471C323.283 126.178 308.996 126.71 294.798 128.062C275.03 130.235 243.757 136.173 189.032 152.003C134.307 167.832 103.047 181.097 100.288 188.032C100.44 186.868 100.606 185.859 100.771 185.063Z" fill="#172428"/>
<path d="M258.931 127.67C225.367 135.793 178.009 149.841 159.607 155.779C143.453 160.992 113.835 172.463 102.026 180.538C107.42 157.976 120.746 116.199 139.838 90.667C139.838 90.667 140.625 89.3251 142.059 87.2469C147.013 82.8259 152.424 78.8033 158.227 75.2292C169.263 68.6979 206.51 50.0894 251.109 33.8561C295.708 17.6227 330.665 15.0576 337.328 15.0576C337.328 15.0576 342.846 15.6514 342.156 20.4015C341.466 25.1515 332.969 93.6358 330.43 119.357C330.43 119.357 292.522 119.547 258.931 127.67Z" fill="#454545"/>
<path d="M84.6581 309.753C86.0376 284.53 90.3831 250.008 94.3974 223.182C96.8115 220.914 102.481 217.245 114.538 213.16C135.231 206.236 187.886 190.799 234.789 181.892C281.692 172.986 325.036 169.127 331.244 171.893L324.25 376.444C324.25 376.444 155.73 380.897 80.8921 387.725L80.7403 380.766C80.7403 380.766 82.3544 351.708 84.6581 309.753Z" fill="#172428"/>
<path d="M420.567 348.834L420.223 231.863L348.833 219.691L343.66 373.178C343.66 373.178 364.698 366.647 386.08 347.646L420.567 348.834Z" fill="#4D4D4D"/>
<path d="M182.603 200.109C259.165 182.593 304.689 178.437 324.002 178.437C324.002 178.437 320.774 220.499 318.939 275.516C317.104 330.534 318.484 369.627 318.484 369.627C318.484 369.627 173.885 372.56 80.713 381.93C80.713 381.93 78.9058 360.614 82.8098 309.551C87.2794 251.208 93.156 230.082 93.156 230.082C93.156 230.082 106.041 217.613 182.603 200.109Z" fill="#454545"/>
<path d="M80.3547 359.45C87.2522 358.477 162.021 348.086 199.157 344.974C233.093 342.136 301.02 340.64 318.002 340.307C318.098 358.702 318.484 369.615 318.484 369.615C318.484 369.615 173.885 372.561 80.7134 381.93C80.7134 381.93 80.0788 374.947 80.3547 359.45Z" fill="#383838"/>
<path d="M93.156 230.082C93.156 230.082 106.041 217.613 182.603 200.097C259.165 182.581 304.689 178.425 324.002 178.425C324.002 178.425 323.216 188.59 322.209 205.429C278.065 209.407 158.462 228.407 88.6864 254.307C91.1971 237.148 93.156 230.082 93.156 230.082Z" fill="#383838"/>
<path d="M265.538 362.799L232.085 358.049L218.469 357.313L192.079 352.859L178.974 354.047L179.153 357.016C183.559 357.393 188.008 357.038 192.259 355.971L216.91 360.578L231.74 362.36L263.648 370.079L269.511 369.924C269.511 369.924 273.649 363.238 265.538 362.799Z" fill="#27343A"/>
<path d="M228.126 347.504L169.153 351.506L125.519 358.631C125.519 358.631 124.484 359.676 126.388 360.412L181.734 355.365L228.471 349.582C228.637 349.437 228.762 349.262 228.836 349.069C228.91 348.876 228.931 348.67 228.898 348.469C228.864 348.268 228.777 348.076 228.644 347.909C228.51 347.741 228.333 347.603 228.126 347.504Z" fill="#27343A"/>
<path d="M265.249 369.022C265.249 369.022 267.663 365.067 264.339 363.88L232.831 359.236L218.125 358.548L192.715 353.893L218.236 359.64L232.955 360.234L263.18 365.174C263.18 365.174 265.828 365.364 265.249 369.022Z" fill="#172428"/>
<path d="M175.471 347.456L93.2799 352.8C93.2799 352.8 91.9003 352.004 93.5005 351.411L130.871 347.053L174.781 346.067C174.781 346.067 175.816 345.77 175.471 347.456Z" fill="#27343A"/>
<path d="M72.6978 376.942L82.5888 368.333L97.4185 359.13C97.4185 359.13 98.453 358.94 98.3289 360.317L117.476 350.259C117.781 349.869 118.194 349.551 118.677 349.333L128.112 348.739C128.445 349.187 128.58 349.723 128.494 350.25C128.408 350.777 128.106 351.26 127.643 351.613L118.511 352.349L96.6321 364.865L82.4646 377.049C82.4646 377.049 84.0786 377.94 82.4646 380.909L74.4222 381.407C74.4222 381.407 71.3183 380.707 72.6978 376.942Z" fill="#27343A"/>
<path d="M255.372 118.752L178.285 137.61C178.285 137.61 178.12 136.268 182.079 135.08L220.36 124.986L243.301 118.455C243.301 118.455 252.268 115.641 255.372 118.752Z" fill="#27343A"/>
<path d="M275.886 131.672L252.614 125.877L221.575 120.391C221.575 120.391 211.573 120.391 208.125 124.25L178.465 135.828C178.243 136.08 178.108 136.382 178.076 136.697C178.045 137.012 178.117 137.329 178.286 137.61L221.395 122.315L250.02 127.219L272.271 135.235C272.271 135.235 276.41 135.983 275.886 131.672Z" fill="#27343A"/>
<path d="M167.773 141.92L114.828 164.044C114.644 163.621 114.629 163.158 114.787 162.727C114.944 162.297 115.265 161.924 115.697 161.669L152.599 145.78L167.773 141.92Z" fill="#27343A"/>
<path d="M99.9992 189.564L109.145 174.126L125.354 156.016L168.464 141.612C167.406 141.301 166.269 141.252 165.181 141.469L132.942 150.969C132.942 150.969 127.934 150.969 125.175 153.344L107.421 173.378L98.6197 183.032L96.7298 188.079C96.7298 188.079 97.2402 189.267 99.9992 189.564Z" fill="#27343A"/>
<path d="M311.062 154.829C311.062 154.829 303.999 159.579 300.206 160.018C300.206 160.018 297.447 185.55 286.411 209.3C286.411 209.3 282.617 218.361 271.926 221.472C271.926 221.472 257.786 226.377 253.468 224.144C249.15 221.912 247.605 216.129 247.605 216.129C247.605 216.129 245.026 185.407 247.095 166.253C249.164 147.098 257.096 144.485 257.096 144.485C257.096 144.485 279.168 131.815 305.889 138.643C332.61 145.471 318.995 155.126 311.062 154.829Z" fill="#08BFAC"/>
<path d="M277.954 210.797C287.445 202.935 295.722 156.028 295.722 156.028C312.787 151.694 313.725 144.794 312.428 140.662C330.099 147.217 318.25 155.114 311.049 154.841C311.049 154.841 303.986 159.591 300.192 160.03C300.192 160.03 297.433 185.562 286.397 209.312C286.397 209.312 282.603 218.373 271.912 221.484C271.912 221.484 257.772 226.389 253.454 224.156C251.353 222.909 249.73 221.152 248.792 219.109C256.2 220.605 270.16 217.257 277.954 210.797Z" fill="#047267"/>
<path d="M384.011 152.003L306.317 132.812C306.317 132.812 264.477 122.315 257.124 144.486C259.021 144.211 260.873 143.744 262.642 143.096C264.712 142.206 280.741 138.643 293.847 140.579C300.89 141.553 307.86 142.89 314.718 144.581C314.718 144.581 321.961 148.143 311.09 154.829L374.892 169.079C374.892 169.079 386.108 169.222 391.971 165.065C391.971 165.065 396.799 161.36 394.73 157.346C394.702 157.358 392.109 154.093 384.011 152.003Z" fill="#27343A"/>
<path d="M780.783 364.426H782.162L782.673 424.039C782.889 425.753 782.515 427.483 781.596 429.015L779.72 429.217C781.721 427.364 781.321 424.218 781.307 424.111L780.783 364.426Z" fill="#27343A"/>
<path d="M781.961 402.273L782.044 403.458L590.987 413.402L590.904 412.217L781.961 402.273Z" fill="#27343A"/>
<path d="M591.445 360.27L591.79 440.605C591.753 443.837 590.985 447.032 589.528 450.01L587.845 450.188C588.686 449.001 590.079 446.175 590.411 440.581L590.066 360.27H591.445Z" fill="#27343A"/>
<path d="M668.878 408.803H670.258L669.913 434.442C669.962 436.944 669.114 439.399 667.485 441.472L665.54 441.686C667.508 439.665 668.57 437.103 668.533 434.466L668.878 408.803Z" fill="#27343A"/>
<path d="M730.777 429.003L730.611 405.55H731.991L732.156 428.956C732.245 431.025 731.467 433.052 729.963 434.668L727.825 434.893C728.786 434.157 729.549 433.248 730.059 432.23C730.569 431.212 730.814 430.111 730.777 429.003Z" fill="#27343A"/>
<path d="M898.123 375.458L831.452 373.285C831.452 373.285 823.864 373.677 821.561 386.348C821.561 386.348 826.168 375.85 833.066 375.85L897.668 377.833L898.123 375.458Z" fill="#08BFAC"/>
<path d="M888.908 412.829L885.804 313.671H887.184L890.288 412.853C890.305 414.621 889.832 416.368 888.908 417.947L887.115 418.161C888.354 416.592 888.982 414.725 888.908 412.829Z" fill="#27343A"/>
<path d="M846.109 305.778L920.249 319.029L919.969 320.192L845.829 306.94L846.109 305.778Z" fill="#27343A"/>
<path d="M817.694 366.658L888.39 369.155L888.333 370.342L817.638 367.844L817.694 366.658Z" fill="#27343A"/>
<path d="M816.649 365.032H818.029L818.898 416.534C818.898 416.796 818.981 421.902 816.622 425.453L815.615 425.31L815.063 425.369C817.601 422.151 817.519 416.629 817.519 416.558L816.649 365.032Z" fill="#27343A"/>
<path d="M809.062 365.602L810.621 419.04C810.726 421.438 810.168 423.823 808.993 425.999L807.255 426.189C808.042 425.203 809.242 423.042 809.242 419.064L807.683 365.625L809.062 365.602Z" fill="#27343A"/>
<path d="M901.821 320.506L918.895 323.614L918.609 324.775L901.536 321.667L901.821 320.506Z" fill="#27343A"/>
<path d="M901.823 322.737L918.896 325.845L918.611 327.007L901.538 323.899L901.823 322.737Z" fill="#27343A"/>
<path d="M901.827 324.957L918.9 328.065L918.615 329.227L901.542 326.119L901.827 324.957Z" fill="#27343A"/>
<path d="M901.823 327.782L918.896 330.89L918.611 332.052L901.538 328.944L901.823 327.782Z" fill="#27343A"/>
<path d="M901.823 330.595L918.896 333.703L918.611 334.865L901.538 331.757L901.823 330.595Z" fill="#27343A"/>
<path d="M902.105 333.703L918.831 336.232L918.592 337.401L901.867 334.873L902.105 333.703Z" fill="#27343A"/>
<path d="M902.136 336.374L918.863 338.753L918.638 339.924L901.911 337.546L902.136 336.374Z" fill="#27343A"/>
<path d="M902.318 338.742L919.045 341.121L918.82 342.293L902.093 339.914L902.318 338.742Z" fill="#27343A"/>
<path d="M902.782 341.872L919.165 343.649L918.993 344.827L902.609 343.05L902.782 341.872Z" fill="#27343A"/>
<path d="M903.104 344.383L919.311 346.312L919.122 347.488L902.915 345.559L903.104 344.383Z" fill="#27343A"/>
<path d="M902.638 347.356L919.188 349.135L919.017 350.314L902.467 348.534L902.638 347.356Z" fill="#27343A"/>
<path d="M904.936 348.655L921.242 350.073L921.104 351.248L904.798 349.83L904.936 348.655Z" fill="#27343A"/>
<path d="M899.001 354.041L924.009 355.958L923.886 357.141L898.878 355.223L899.001 354.041Z" fill="#27343A"/>
<path d="M903.282 358.931L920.525 360.123L920.415 361.307L903.172 360.115L903.282 358.931Z" fill="#27343A"/>
<path d="M903.282 361.298L920.525 362.49L920.415 363.674L903.172 362.482L903.282 361.298Z" fill="#27343A"/>
<path d="M903.282 363.678L920.525 364.869L920.415 366.053L903.172 364.861L903.282 363.678Z" fill="#27343A"/>
<path d="M903.615 366.507L920.52 367.247L920.449 368.433L903.545 367.693L903.615 366.507Z" fill="#27343A"/>
<path d="M903.211 368.872L920.461 369.614L920.392 370.8L903.142 370.058L903.211 368.872Z" fill="#27343A"/>
<path d="M903.219 375.395L920.469 376.137L920.4 377.323L903.15 376.581L903.219 375.395Z" fill="#27343A"/>
<path d="M903.206 378.23L920.456 378.971L920.387 380.157L903.137 379.416L903.206 378.23Z" fill="#27343A"/>
<path d="M903.209 381.04L920.459 381.782L920.39 382.968L903.14 382.226L903.209 381.04Z" fill="#27343A"/>
<path d="M903.23 383.876L920.817 384.024L920.804 385.211L903.216 385.063L903.23 383.876Z" fill="#27343A"/>
<path d="M920.459 386.369L920.474 387.556L904.086 387.704L904.072 386.516L920.459 386.369Z" fill="#27343A"/>
<path d="M920.459 388.745L920.474 389.932L904.086 390.08L904.072 388.892L920.459 388.745Z" fill="#27343A"/>
<path d="M920.461 391.121L920.476 392.308L904.088 392.456L904.074 391.269L920.461 391.121Z" fill="#27343A"/>
<path d="M920.461 394.097L920.476 395.284L904.088 395.432L904.074 394.245L920.461 394.097Z" fill="#27343A"/>
<path d="M920.447 396.917L920.462 398.105L904.074 398.252L904.06 397.065L920.447 396.917Z" fill="#27343A"/>
<path d="M920.461 399.437L920.476 400.625L904.088 400.772L904.074 399.585L920.461 399.437Z" fill="#27343A"/>
<path d="M920.447 402.258L920.462 403.445L904.074 403.593L904.06 402.405L920.447 402.258Z" fill="#27343A"/>
<path d="M918.032 405.055L918.066 406.242L904.096 406.538L904.062 405.351L918.032 405.055Z" fill="#27343A"/>
<path d="M911.648 408.35L911.68 409.537L904.094 409.686L904.063 408.498L911.648 408.35Z" fill="#27343A"/>
<path d="M490.687 449.678L490.452 357.443H491.832L492.066 449.69C492.066 449.975 491.832 455.877 488.811 460.057L486.962 460.271C490.425 456.411 490.687 449.737 490.687 449.678Z" fill="#27343A"/>
<path d="M312.442 407.616L241.397 409.255C242.849 406.235 245.129 403.564 248.044 401.471C250.959 399.378 254.42 397.925 258.131 397.237C271.057 394.72 317.104 386.704 317.104 386.704C316.077 393.754 314.519 400.739 312.442 407.616Z" fill="#F4A72C"/>
<path d="M80.3407 433.741C80.3407 433.741 81.2098 438.195 92.9355 438.492C89.9414 430.28 88.4293 421.721 88.4522 413.114L79.5958 412.271C78.1935 419.4 78.4467 426.697 80.3407 433.741Z" fill="#D0E2EA"/>
<path d="M231.05 440.724C231.05 440.724 275.718 441.912 291.403 434.632C307.088 427.353 311.751 408.803 311.751 408.803L241.231 410.3C235.504 419.752 232.042 430.098 231.05 440.724Z" fill="#D0E2EA"/>
<path d="M238.474 410.3C238.474 410.3 231.742 420.548 228.817 440.736C228.817 440.736 158.752 443.206 94.0812 438.61C94.0812 438.61 89.1425 425.643 89.8323 413.174L238.474 410.3Z" fill="#08BFAC"/>
<path d="M80.8645 397.011C80.8645 397.011 88.1068 401.085 89.707 412.176C86.3191 412.113 82.9405 411.847 79.5953 411.38C78.5096 409.267 78.1137 406.939 78.4503 404.647C78.7614 402.005 79.5771 399.425 80.8645 397.011Z" fill="#F4A72C"/>
<path d="M268.407 439.477C255.997 440.566 243.52 440.982 231.05 440.724C232.042 430.098 235.504 419.752 241.231 410.3L311.751 408.815C311.374 410.213 310.914 411.592 310.371 412.948C306.84 413.791 298.88 416.071 297.459 419.907C295.611 424.847 297.335 430.488 289.748 432.863H257.205L288.244 431.378C288.244 431.378 294.562 423.469 289.389 416.534C289.389 416.534 294.907 419.408 294.107 424.253C294.107 424.253 296.756 414.563 291.928 413.471L262.723 414.361C262.723 414.361 241.921 416.047 246.514 429.704C246.301 429.556 246.054 429.448 245.79 429.388C245.525 429.327 245.249 429.315 244.979 429.352C244.708 429.389 244.45 429.474 244.22 429.602C243.99 429.73 243.795 429.898 243.645 430.096C242.486 431.58 245.245 432.768 245.245 432.768C245.245 432.768 240.307 432.566 240.762 436.128C241.12 438.8 255.274 439.988 268.407 439.477Z" fill="white"/>
<path d="M79.7596 431.022C79.5113 429.716 79.3181 428.445 79.1801 427.234C81.2494 427.234 82.8082 423.054 82.8082 423.054C82.8082 423.054 86.3811 424.146 87.2916 425.334C88.2021 426.521 85.9121 429.882 85.9121 429.882C85.9121 429.882 87.1813 429.49 88.5608 431.176C89.9403 432.863 88.2159 434.834 88.2159 434.834C86.7804 434.703 85.3594 434.473 83.967 434.145L85.112 431.96C83.2566 432.162 81.3755 431.832 79.7596 431.022Z" fill="white"/>
<path d="M270.312 461.161C270.989 460.932 271.559 460.517 271.933 459.98C272.308 459.443 272.465 458.814 272.381 458.192C267.352 457.619 262.278 457.385 257.207 457.492C251.923 457.896 247.44 462.444 246.971 467.788C246.502 473.131 253.993 473.63 259.042 473.226L266.863 472.443C267.833 471.924 268.643 471.212 269.224 470.366C269.805 469.521 270.14 468.567 270.202 467.586C270.202 467.586 262.035 468.975 260.656 465.911C259.276 462.848 265.249 460.069 270.312 461.161Z" fill="#08BFAC"/>
<path d="M270.891 459.867L259.966 459.974C259.966 459.974 257.662 459.772 257.317 463.833C256.972 467.894 259.166 469.07 261.235 469.272H268.353C269.574 468.834 270.642 468.13 271.45 467.228C272.258 466.326 272.779 465.258 272.961 464.13C273.65 460.176 270.891 459.867 270.891 459.867Z" fill="#27343A"/>
<path d="M79.5814 451.388L82.4645 451.554C82.9824 451.822 83.4125 452.2 83.7142 452.65C84.0159 453.101 84.1793 453.611 84.1889 454.131C84.1889 454.131 82.3542 453.834 82.5887 455.319C82.9243 456.629 83.4625 457.895 84.1889 459.083C84.1889 459.083 85.8029 462.942 84.6579 463.928C83.8302 464.641 81.4299 464.106 79.6503 462.634L79.5814 451.388Z" fill="#08BFAC"/>
<path d="M84.6592 460.176L84.1901 454.143C83.8893 453.843 83.5194 453.601 83.1037 453.431C82.688 453.262 82.2358 453.168 81.776 453.157C81.776 453.157 80.7414 459.38 84.6592 460.176Z" fill="#27343A"/>
<path d="M336.072 379.424L340.528 209.443L428.844 226.697L430.444 349.333L431.823 349.321L430.209 225.747L429.685 225.64L339.19 207.97L334.692 379.4L336.072 379.424Z" fill="#87A7B2"/>
</svg>
